G75*
%MOIN*%
%OFA0B0*%
%FSLAX25Y25*%
%IPPOS*%
%LPD*%
%AMOC8*
5,1,8,0,0,1.08239X$1,22.5*
%
%ADD10C,0.00000*%
D10*
X0003333Y0040000D02*
X0003333Y0250000D01*
X0318333Y0250000D01*
X0318333Y0040000D01*
X0003333Y0040000D01*
X0011833Y0055000D02*
X0011835Y0055161D01*
X0011841Y0055321D01*
X0011851Y0055482D01*
X0011865Y0055642D01*
X0011883Y0055802D01*
X0011904Y0055961D01*
X0011930Y0056120D01*
X0011960Y0056278D01*
X0011993Y0056435D01*
X0012031Y0056592D01*
X0012072Y0056747D01*
X0012117Y0056901D01*
X0012166Y0057054D01*
X0012219Y0057206D01*
X0012275Y0057357D01*
X0012336Y0057506D01*
X0012399Y0057654D01*
X0012467Y0057800D01*
X0012538Y0057944D01*
X0012612Y0058086D01*
X0012690Y0058227D01*
X0012772Y0058365D01*
X0012857Y0058502D01*
X0012945Y0058636D01*
X0013037Y0058768D01*
X0013132Y0058898D01*
X0013230Y0059026D01*
X0013331Y0059151D01*
X0013435Y0059273D01*
X0013542Y0059393D01*
X0013652Y0059510D01*
X0013765Y0059625D01*
X0013881Y0059736D01*
X0014000Y0059845D01*
X0014121Y0059950D01*
X0014245Y0060053D01*
X0014371Y0060153D01*
X0014499Y0060249D01*
X0014630Y0060342D01*
X0014764Y0060432D01*
X0014899Y0060519D01*
X0015037Y0060602D01*
X0015176Y0060682D01*
X0015318Y0060758D01*
X0015461Y0060831D01*
X0015606Y0060900D01*
X0015753Y0060966D01*
X0015901Y0061028D01*
X0016051Y0061086D01*
X0016202Y0061141D01*
X0016355Y0061192D01*
X0016509Y0061239D01*
X0016664Y0061282D01*
X0016820Y0061321D01*
X0016976Y0061357D01*
X0017134Y0061388D01*
X0017292Y0061416D01*
X0017451Y0061440D01*
X0017611Y0061460D01*
X0017771Y0061476D01*
X0017931Y0061488D01*
X0018092Y0061496D01*
X0018253Y0061500D01*
X0018413Y0061500D01*
X0018574Y0061496D01*
X0018735Y0061488D01*
X0018895Y0061476D01*
X0019055Y0061460D01*
X0019215Y0061440D01*
X0019374Y0061416D01*
X0019532Y0061388D01*
X0019690Y0061357D01*
X0019846Y0061321D01*
X0020002Y0061282D01*
X0020157Y0061239D01*
X0020311Y0061192D01*
X0020464Y0061141D01*
X0020615Y0061086D01*
X0020765Y0061028D01*
X0020913Y0060966D01*
X0021060Y0060900D01*
X0021205Y0060831D01*
X0021348Y0060758D01*
X0021490Y0060682D01*
X0021629Y0060602D01*
X0021767Y0060519D01*
X0021902Y0060432D01*
X0022036Y0060342D01*
X0022167Y0060249D01*
X0022295Y0060153D01*
X0022421Y0060053D01*
X0022545Y0059950D01*
X0022666Y0059845D01*
X0022785Y0059736D01*
X0022901Y0059625D01*
X0023014Y0059510D01*
X0023124Y0059393D01*
X0023231Y0059273D01*
X0023335Y0059151D01*
X0023436Y0059026D01*
X0023534Y0058898D01*
X0023629Y0058768D01*
X0023721Y0058636D01*
X0023809Y0058502D01*
X0023894Y0058365D01*
X0023976Y0058227D01*
X0024054Y0058086D01*
X0024128Y0057944D01*
X0024199Y0057800D01*
X0024267Y0057654D01*
X0024330Y0057506D01*
X0024391Y0057357D01*
X0024447Y0057206D01*
X0024500Y0057054D01*
X0024549Y0056901D01*
X0024594Y0056747D01*
X0024635Y0056592D01*
X0024673Y0056435D01*
X0024706Y0056278D01*
X0024736Y0056120D01*
X0024762Y0055961D01*
X0024783Y0055802D01*
X0024801Y0055642D01*
X0024815Y0055482D01*
X0024825Y0055321D01*
X0024831Y0055161D01*
X0024833Y0055000D01*
X0024831Y0054839D01*
X0024825Y0054679D01*
X0024815Y0054518D01*
X0024801Y0054358D01*
X0024783Y0054198D01*
X0024762Y0054039D01*
X0024736Y0053880D01*
X0024706Y0053722D01*
X0024673Y0053565D01*
X0024635Y0053408D01*
X0024594Y0053253D01*
X0024549Y0053099D01*
X0024500Y0052946D01*
X0024447Y0052794D01*
X0024391Y0052643D01*
X0024330Y0052494D01*
X0024267Y0052346D01*
X0024199Y0052200D01*
X0024128Y0052056D01*
X0024054Y0051914D01*
X0023976Y0051773D01*
X0023894Y0051635D01*
X0023809Y0051498D01*
X0023721Y0051364D01*
X0023629Y0051232D01*
X0023534Y0051102D01*
X0023436Y0050974D01*
X0023335Y0050849D01*
X0023231Y0050727D01*
X0023124Y0050607D01*
X0023014Y0050490D01*
X0022901Y0050375D01*
X0022785Y0050264D01*
X0022666Y0050155D01*
X0022545Y0050050D01*
X0022421Y0049947D01*
X0022295Y0049847D01*
X0022167Y0049751D01*
X0022036Y0049658D01*
X0021902Y0049568D01*
X0021767Y0049481D01*
X0021629Y0049398D01*
X0021490Y0049318D01*
X0021348Y0049242D01*
X0021205Y0049169D01*
X0021060Y0049100D01*
X0020913Y0049034D01*
X0020765Y0048972D01*
X0020615Y0048914D01*
X0020464Y0048859D01*
X0020311Y0048808D01*
X0020157Y0048761D01*
X0020002Y0048718D01*
X0019846Y0048679D01*
X0019690Y0048643D01*
X0019532Y0048612D01*
X0019374Y0048584D01*
X0019215Y0048560D01*
X0019055Y0048540D01*
X0018895Y0048524D01*
X0018735Y0048512D01*
X0018574Y0048504D01*
X0018413Y0048500D01*
X0018253Y0048500D01*
X0018092Y0048504D01*
X0017931Y0048512D01*
X0017771Y0048524D01*
X0017611Y0048540D01*
X0017451Y0048560D01*
X0017292Y0048584D01*
X0017134Y0048612D01*
X0016976Y0048643D01*
X0016820Y0048679D01*
X0016664Y0048718D01*
X0016509Y0048761D01*
X0016355Y0048808D01*
X0016202Y0048859D01*
X0016051Y0048914D01*
X0015901Y0048972D01*
X0015753Y0049034D01*
X0015606Y0049100D01*
X0015461Y0049169D01*
X0015318Y0049242D01*
X0015176Y0049318D01*
X0015037Y0049398D01*
X0014899Y0049481D01*
X0014764Y0049568D01*
X0014630Y0049658D01*
X0014499Y0049751D01*
X0014371Y0049847D01*
X0014245Y0049947D01*
X0014121Y0050050D01*
X0014000Y0050155D01*
X0013881Y0050264D01*
X0013765Y0050375D01*
X0013652Y0050490D01*
X0013542Y0050607D01*
X0013435Y0050727D01*
X0013331Y0050849D01*
X0013230Y0050974D01*
X0013132Y0051102D01*
X0013037Y0051232D01*
X0012945Y0051364D01*
X0012857Y0051498D01*
X0012772Y0051635D01*
X0012690Y0051773D01*
X0012612Y0051914D01*
X0012538Y0052056D01*
X0012467Y0052200D01*
X0012399Y0052346D01*
X0012336Y0052494D01*
X0012275Y0052643D01*
X0012219Y0052794D01*
X0012166Y0052946D01*
X0012117Y0053099D01*
X0012072Y0053253D01*
X0012031Y0053408D01*
X0011993Y0053565D01*
X0011960Y0053722D01*
X0011930Y0053880D01*
X0011904Y0054039D01*
X0011883Y0054198D01*
X0011865Y0054358D01*
X0011851Y0054518D01*
X0011841Y0054679D01*
X0011835Y0054839D01*
X0011833Y0055000D01*
X0130833Y0060000D02*
X0130835Y0060184D01*
X0130842Y0060368D01*
X0130853Y0060552D01*
X0130869Y0060735D01*
X0130889Y0060918D01*
X0130914Y0061100D01*
X0130943Y0061282D01*
X0130977Y0061463D01*
X0131015Y0061643D01*
X0131058Y0061822D01*
X0131105Y0062000D01*
X0131156Y0062177D01*
X0131212Y0062353D01*
X0131271Y0062527D01*
X0131336Y0062699D01*
X0131404Y0062870D01*
X0131476Y0063039D01*
X0131553Y0063207D01*
X0131634Y0063372D01*
X0131719Y0063535D01*
X0131807Y0063697D01*
X0131900Y0063856D01*
X0131997Y0064012D01*
X0132097Y0064167D01*
X0132201Y0064319D01*
X0132309Y0064468D01*
X0132420Y0064614D01*
X0132535Y0064758D01*
X0132654Y0064899D01*
X0132776Y0065037D01*
X0132901Y0065172D01*
X0133030Y0065303D01*
X0133161Y0065432D01*
X0133296Y0065557D01*
X0133434Y0065679D01*
X0133575Y0065798D01*
X0133719Y0065913D01*
X0133865Y0066024D01*
X0134014Y0066132D01*
X0134166Y0066236D01*
X0134321Y0066336D01*
X0134477Y0066433D01*
X0134636Y0066526D01*
X0134798Y0066614D01*
X0134961Y0066699D01*
X0135126Y0066780D01*
X0135294Y0066857D01*
X0135463Y0066929D01*
X0135634Y0066997D01*
X0135806Y0067062D01*
X0135980Y0067121D01*
X0136156Y0067177D01*
X0136333Y0067228D01*
X0136511Y0067275D01*
X0136690Y0067318D01*
X0136870Y0067356D01*
X0137051Y0067390D01*
X0137233Y0067419D01*
X0137415Y0067444D01*
X0137598Y0067464D01*
X0137781Y0067480D01*
X0137965Y0067491D01*
X0138149Y0067498D01*
X0138333Y0067500D01*
X0138517Y0067498D01*
X0138701Y0067491D01*
X0138885Y0067480D01*
X0139068Y0067464D01*
X0139251Y0067444D01*
X0139433Y0067419D01*
X0139615Y0067390D01*
X0139796Y0067356D01*
X0139976Y0067318D01*
X0140155Y0067275D01*
X0140333Y0067228D01*
X0140510Y0067177D01*
X0140686Y0067121D01*
X0140860Y0067062D01*
X0141032Y0066997D01*
X0141203Y0066929D01*
X0141372Y0066857D01*
X0141540Y0066780D01*
X0141705Y0066699D01*
X0141868Y0066614D01*
X0142030Y0066526D01*
X0142189Y0066433D01*
X0142345Y0066336D01*
X0142500Y0066236D01*
X0142652Y0066132D01*
X0142801Y0066024D01*
X0142947Y0065913D01*
X0143091Y0065798D01*
X0143232Y0065679D01*
X0143370Y0065557D01*
X0143505Y0065432D01*
X0143636Y0065303D01*
X0143765Y0065172D01*
X0143890Y0065037D01*
X0144012Y0064899D01*
X0144131Y0064758D01*
X0144246Y0064614D01*
X0144357Y0064468D01*
X0144465Y0064319D01*
X0144569Y0064167D01*
X0144669Y0064012D01*
X0144766Y0063856D01*
X0144859Y0063697D01*
X0144947Y0063535D01*
X0145032Y0063372D01*
X0145113Y0063207D01*
X0145190Y0063039D01*
X0145262Y0062870D01*
X0145330Y0062699D01*
X0145395Y0062527D01*
X0145454Y0062353D01*
X0145510Y0062177D01*
X0145561Y0062000D01*
X0145608Y0061822D01*
X0145651Y0061643D01*
X0145689Y0061463D01*
X0145723Y0061282D01*
X0145752Y0061100D01*
X0145777Y0060918D01*
X0145797Y0060735D01*
X0145813Y0060552D01*
X0145824Y0060368D01*
X0145831Y0060184D01*
X0145833Y0060000D01*
X0145831Y0059816D01*
X0145824Y0059632D01*
X0145813Y0059448D01*
X0145797Y0059265D01*
X0145777Y0059082D01*
X0145752Y0058900D01*
X0145723Y0058718D01*
X0145689Y0058537D01*
X0145651Y0058357D01*
X0145608Y0058178D01*
X0145561Y0058000D01*
X0145510Y0057823D01*
X0145454Y0057647D01*
X0145395Y0057473D01*
X0145330Y0057301D01*
X0145262Y0057130D01*
X0145190Y0056961D01*
X0145113Y0056793D01*
X0145032Y0056628D01*
X0144947Y0056465D01*
X0144859Y0056303D01*
X0144766Y0056144D01*
X0144669Y0055988D01*
X0144569Y0055833D01*
X0144465Y0055681D01*
X0144357Y0055532D01*
X0144246Y0055386D01*
X0144131Y0055242D01*
X0144012Y0055101D01*
X0143890Y0054963D01*
X0143765Y0054828D01*
X0143636Y0054697D01*
X0143505Y0054568D01*
X0143370Y0054443D01*
X0143232Y0054321D01*
X0143091Y0054202D01*
X0142947Y0054087D01*
X0142801Y0053976D01*
X0142652Y0053868D01*
X0142500Y0053764D01*
X0142345Y0053664D01*
X0142189Y0053567D01*
X0142030Y0053474D01*
X0141868Y0053386D01*
X0141705Y0053301D01*
X0141540Y0053220D01*
X0141372Y0053143D01*
X0141203Y0053071D01*
X0141032Y0053003D01*
X0140860Y0052938D01*
X0140686Y0052879D01*
X0140510Y0052823D01*
X0140333Y0052772D01*
X0140155Y0052725D01*
X0139976Y0052682D01*
X0139796Y0052644D01*
X0139615Y0052610D01*
X0139433Y0052581D01*
X0139251Y0052556D01*
X0139068Y0052536D01*
X0138885Y0052520D01*
X0138701Y0052509D01*
X0138517Y0052502D01*
X0138333Y0052500D01*
X0138149Y0052502D01*
X0137965Y0052509D01*
X0137781Y0052520D01*
X0137598Y0052536D01*
X0137415Y0052556D01*
X0137233Y0052581D01*
X0137051Y0052610D01*
X0136870Y0052644D01*
X0136690Y0052682D01*
X0136511Y0052725D01*
X0136333Y0052772D01*
X0136156Y0052823D01*
X0135980Y0052879D01*
X0135806Y0052938D01*
X0135634Y0053003D01*
X0135463Y0053071D01*
X0135294Y0053143D01*
X0135126Y0053220D01*
X0134961Y0053301D01*
X0134798Y0053386D01*
X0134636Y0053474D01*
X0134477Y0053567D01*
X0134321Y0053664D01*
X0134166Y0053764D01*
X0134014Y0053868D01*
X0133865Y0053976D01*
X0133719Y0054087D01*
X0133575Y0054202D01*
X0133434Y0054321D01*
X0133296Y0054443D01*
X0133161Y0054568D01*
X0133030Y0054697D01*
X0132901Y0054828D01*
X0132776Y0054963D01*
X0132654Y0055101D01*
X0132535Y0055242D01*
X0132420Y0055386D01*
X0132309Y0055532D01*
X0132201Y0055681D01*
X0132097Y0055833D01*
X0131997Y0055988D01*
X0131900Y0056144D01*
X0131807Y0056303D01*
X0131719Y0056465D01*
X0131634Y0056628D01*
X0131553Y0056793D01*
X0131476Y0056961D01*
X0131404Y0057130D01*
X0131336Y0057301D01*
X0131271Y0057473D01*
X0131212Y0057647D01*
X0131156Y0057823D01*
X0131105Y0058000D01*
X0131058Y0058178D01*
X0131015Y0058357D01*
X0130977Y0058537D01*
X0130943Y0058718D01*
X0130914Y0058900D01*
X0130889Y0059082D01*
X0130869Y0059265D01*
X0130853Y0059448D01*
X0130842Y0059632D01*
X0130835Y0059816D01*
X0130833Y0060000D01*
X0235833Y0060000D02*
X0235835Y0060184D01*
X0235842Y0060368D01*
X0235853Y0060552D01*
X0235869Y0060735D01*
X0235889Y0060918D01*
X0235914Y0061100D01*
X0235943Y0061282D01*
X0235977Y0061463D01*
X0236015Y0061643D01*
X0236058Y0061822D01*
X0236105Y0062000D01*
X0236156Y0062177D01*
X0236212Y0062353D01*
X0236271Y0062527D01*
X0236336Y0062699D01*
X0236404Y0062870D01*
X0236476Y0063039D01*
X0236553Y0063207D01*
X0236634Y0063372D01*
X0236719Y0063535D01*
X0236807Y0063697D01*
X0236900Y0063856D01*
X0236997Y0064012D01*
X0237097Y0064167D01*
X0237201Y0064319D01*
X0237309Y0064468D01*
X0237420Y0064614D01*
X0237535Y0064758D01*
X0237654Y0064899D01*
X0237776Y0065037D01*
X0237901Y0065172D01*
X0238030Y0065303D01*
X0238161Y0065432D01*
X0238296Y0065557D01*
X0238434Y0065679D01*
X0238575Y0065798D01*
X0238719Y0065913D01*
X0238865Y0066024D01*
X0239014Y0066132D01*
X0239166Y0066236D01*
X0239321Y0066336D01*
X0239477Y0066433D01*
X0239636Y0066526D01*
X0239798Y0066614D01*
X0239961Y0066699D01*
X0240126Y0066780D01*
X0240294Y0066857D01*
X0240463Y0066929D01*
X0240634Y0066997D01*
X0240806Y0067062D01*
X0240980Y0067121D01*
X0241156Y0067177D01*
X0241333Y0067228D01*
X0241511Y0067275D01*
X0241690Y0067318D01*
X0241870Y0067356D01*
X0242051Y0067390D01*
X0242233Y0067419D01*
X0242415Y0067444D01*
X0242598Y0067464D01*
X0242781Y0067480D01*
X0242965Y0067491D01*
X0243149Y0067498D01*
X0243333Y0067500D01*
X0243517Y0067498D01*
X0243701Y0067491D01*
X0243885Y0067480D01*
X0244068Y0067464D01*
X0244251Y0067444D01*
X0244433Y0067419D01*
X0244615Y0067390D01*
X0244796Y0067356D01*
X0244976Y0067318D01*
X0245155Y0067275D01*
X0245333Y0067228D01*
X0245510Y0067177D01*
X0245686Y0067121D01*
X0245860Y0067062D01*
X0246032Y0066997D01*
X0246203Y0066929D01*
X0246372Y0066857D01*
X0246540Y0066780D01*
X0246705Y0066699D01*
X0246868Y0066614D01*
X0247030Y0066526D01*
X0247189Y0066433D01*
X0247345Y0066336D01*
X0247500Y0066236D01*
X0247652Y0066132D01*
X0247801Y0066024D01*
X0247947Y0065913D01*
X0248091Y0065798D01*
X0248232Y0065679D01*
X0248370Y0065557D01*
X0248505Y0065432D01*
X0248636Y0065303D01*
X0248765Y0065172D01*
X0248890Y0065037D01*
X0249012Y0064899D01*
X0249131Y0064758D01*
X0249246Y0064614D01*
X0249357Y0064468D01*
X0249465Y0064319D01*
X0249569Y0064167D01*
X0249669Y0064012D01*
X0249766Y0063856D01*
X0249859Y0063697D01*
X0249947Y0063535D01*
X0250032Y0063372D01*
X0250113Y0063207D01*
X0250190Y0063039D01*
X0250262Y0062870D01*
X0250330Y0062699D01*
X0250395Y0062527D01*
X0250454Y0062353D01*
X0250510Y0062177D01*
X0250561Y0062000D01*
X0250608Y0061822D01*
X0250651Y0061643D01*
X0250689Y0061463D01*
X0250723Y0061282D01*
X0250752Y0061100D01*
X0250777Y0060918D01*
X0250797Y0060735D01*
X0250813Y0060552D01*
X0250824Y0060368D01*
X0250831Y0060184D01*
X0250833Y0060000D01*
X0250831Y0059816D01*
X0250824Y0059632D01*
X0250813Y0059448D01*
X0250797Y0059265D01*
X0250777Y0059082D01*
X0250752Y0058900D01*
X0250723Y0058718D01*
X0250689Y0058537D01*
X0250651Y0058357D01*
X0250608Y0058178D01*
X0250561Y0058000D01*
X0250510Y0057823D01*
X0250454Y0057647D01*
X0250395Y0057473D01*
X0250330Y0057301D01*
X0250262Y0057130D01*
X0250190Y0056961D01*
X0250113Y0056793D01*
X0250032Y0056628D01*
X0249947Y0056465D01*
X0249859Y0056303D01*
X0249766Y0056144D01*
X0249669Y0055988D01*
X0249569Y0055833D01*
X0249465Y0055681D01*
X0249357Y0055532D01*
X0249246Y0055386D01*
X0249131Y0055242D01*
X0249012Y0055101D01*
X0248890Y0054963D01*
X0248765Y0054828D01*
X0248636Y0054697D01*
X0248505Y0054568D01*
X0248370Y0054443D01*
X0248232Y0054321D01*
X0248091Y0054202D01*
X0247947Y0054087D01*
X0247801Y0053976D01*
X0247652Y0053868D01*
X0247500Y0053764D01*
X0247345Y0053664D01*
X0247189Y0053567D01*
X0247030Y0053474D01*
X0246868Y0053386D01*
X0246705Y0053301D01*
X0246540Y0053220D01*
X0246372Y0053143D01*
X0246203Y0053071D01*
X0246032Y0053003D01*
X0245860Y0052938D01*
X0245686Y0052879D01*
X0245510Y0052823D01*
X0245333Y0052772D01*
X0245155Y0052725D01*
X0244976Y0052682D01*
X0244796Y0052644D01*
X0244615Y0052610D01*
X0244433Y0052581D01*
X0244251Y0052556D01*
X0244068Y0052536D01*
X0243885Y0052520D01*
X0243701Y0052509D01*
X0243517Y0052502D01*
X0243333Y0052500D01*
X0243149Y0052502D01*
X0242965Y0052509D01*
X0242781Y0052520D01*
X0242598Y0052536D01*
X0242415Y0052556D01*
X0242233Y0052581D01*
X0242051Y0052610D01*
X0241870Y0052644D01*
X0241690Y0052682D01*
X0241511Y0052725D01*
X0241333Y0052772D01*
X0241156Y0052823D01*
X0240980Y0052879D01*
X0240806Y0052938D01*
X0240634Y0053003D01*
X0240463Y0053071D01*
X0240294Y0053143D01*
X0240126Y0053220D01*
X0239961Y0053301D01*
X0239798Y0053386D01*
X0239636Y0053474D01*
X0239477Y0053567D01*
X0239321Y0053664D01*
X0239166Y0053764D01*
X0239014Y0053868D01*
X0238865Y0053976D01*
X0238719Y0054087D01*
X0238575Y0054202D01*
X0238434Y0054321D01*
X0238296Y0054443D01*
X0238161Y0054568D01*
X0238030Y0054697D01*
X0237901Y0054828D01*
X0237776Y0054963D01*
X0237654Y0055101D01*
X0237535Y0055242D01*
X0237420Y0055386D01*
X0237309Y0055532D01*
X0237201Y0055681D01*
X0237097Y0055833D01*
X0236997Y0055988D01*
X0236900Y0056144D01*
X0236807Y0056303D01*
X0236719Y0056465D01*
X0236634Y0056628D01*
X0236553Y0056793D01*
X0236476Y0056961D01*
X0236404Y0057130D01*
X0236336Y0057301D01*
X0236271Y0057473D01*
X0236212Y0057647D01*
X0236156Y0057823D01*
X0236105Y0058000D01*
X0236058Y0058178D01*
X0236015Y0058357D01*
X0235977Y0058537D01*
X0235943Y0058718D01*
X0235914Y0058900D01*
X0235889Y0059082D01*
X0235869Y0059265D01*
X0235853Y0059448D01*
X0235842Y0059632D01*
X0235835Y0059816D01*
X0235833Y0060000D01*
X0296833Y0055000D02*
X0296835Y0055161D01*
X0296841Y0055321D01*
X0296851Y0055482D01*
X0296865Y0055642D01*
X0296883Y0055802D01*
X0296904Y0055961D01*
X0296930Y0056120D01*
X0296960Y0056278D01*
X0296993Y0056435D01*
X0297031Y0056592D01*
X0297072Y0056747D01*
X0297117Y0056901D01*
X0297166Y0057054D01*
X0297219Y0057206D01*
X0297275Y0057357D01*
X0297336Y0057506D01*
X0297399Y0057654D01*
X0297467Y0057800D01*
X0297538Y0057944D01*
X0297612Y0058086D01*
X0297690Y0058227D01*
X0297772Y0058365D01*
X0297857Y0058502D01*
X0297945Y0058636D01*
X0298037Y0058768D01*
X0298132Y0058898D01*
X0298230Y0059026D01*
X0298331Y0059151D01*
X0298435Y0059273D01*
X0298542Y0059393D01*
X0298652Y0059510D01*
X0298765Y0059625D01*
X0298881Y0059736D01*
X0299000Y0059845D01*
X0299121Y0059950D01*
X0299245Y0060053D01*
X0299371Y0060153D01*
X0299499Y0060249D01*
X0299630Y0060342D01*
X0299764Y0060432D01*
X0299899Y0060519D01*
X0300037Y0060602D01*
X0300176Y0060682D01*
X0300318Y0060758D01*
X0300461Y0060831D01*
X0300606Y0060900D01*
X0300753Y0060966D01*
X0300901Y0061028D01*
X0301051Y0061086D01*
X0301202Y0061141D01*
X0301355Y0061192D01*
X0301509Y0061239D01*
X0301664Y0061282D01*
X0301820Y0061321D01*
X0301976Y0061357D01*
X0302134Y0061388D01*
X0302292Y0061416D01*
X0302451Y0061440D01*
X0302611Y0061460D01*
X0302771Y0061476D01*
X0302931Y0061488D01*
X0303092Y0061496D01*
X0303253Y0061500D01*
X0303413Y0061500D01*
X0303574Y0061496D01*
X0303735Y0061488D01*
X0303895Y0061476D01*
X0304055Y0061460D01*
X0304215Y0061440D01*
X0304374Y0061416D01*
X0304532Y0061388D01*
X0304690Y0061357D01*
X0304846Y0061321D01*
X0305002Y0061282D01*
X0305157Y0061239D01*
X0305311Y0061192D01*
X0305464Y0061141D01*
X0305615Y0061086D01*
X0305765Y0061028D01*
X0305913Y0060966D01*
X0306060Y0060900D01*
X0306205Y0060831D01*
X0306348Y0060758D01*
X0306490Y0060682D01*
X0306629Y0060602D01*
X0306767Y0060519D01*
X0306902Y0060432D01*
X0307036Y0060342D01*
X0307167Y0060249D01*
X0307295Y0060153D01*
X0307421Y0060053D01*
X0307545Y0059950D01*
X0307666Y0059845D01*
X0307785Y0059736D01*
X0307901Y0059625D01*
X0308014Y0059510D01*
X0308124Y0059393D01*
X0308231Y0059273D01*
X0308335Y0059151D01*
X0308436Y0059026D01*
X0308534Y0058898D01*
X0308629Y0058768D01*
X0308721Y0058636D01*
X0308809Y0058502D01*
X0308894Y0058365D01*
X0308976Y0058227D01*
X0309054Y0058086D01*
X0309128Y0057944D01*
X0309199Y0057800D01*
X0309267Y0057654D01*
X0309330Y0057506D01*
X0309391Y0057357D01*
X0309447Y0057206D01*
X0309500Y0057054D01*
X0309549Y0056901D01*
X0309594Y0056747D01*
X0309635Y0056592D01*
X0309673Y0056435D01*
X0309706Y0056278D01*
X0309736Y0056120D01*
X0309762Y0055961D01*
X0309783Y0055802D01*
X0309801Y0055642D01*
X0309815Y0055482D01*
X0309825Y0055321D01*
X0309831Y0055161D01*
X0309833Y0055000D01*
X0309831Y0054839D01*
X0309825Y0054679D01*
X0309815Y0054518D01*
X0309801Y0054358D01*
X0309783Y0054198D01*
X0309762Y0054039D01*
X0309736Y0053880D01*
X0309706Y0053722D01*
X0309673Y0053565D01*
X0309635Y0053408D01*
X0309594Y0053253D01*
X0309549Y0053099D01*
X0309500Y0052946D01*
X0309447Y0052794D01*
X0309391Y0052643D01*
X0309330Y0052494D01*
X0309267Y0052346D01*
X0309199Y0052200D01*
X0309128Y0052056D01*
X0309054Y0051914D01*
X0308976Y0051773D01*
X0308894Y0051635D01*
X0308809Y0051498D01*
X0308721Y0051364D01*
X0308629Y0051232D01*
X0308534Y0051102D01*
X0308436Y0050974D01*
X0308335Y0050849D01*
X0308231Y0050727D01*
X0308124Y0050607D01*
X0308014Y0050490D01*
X0307901Y0050375D01*
X0307785Y0050264D01*
X0307666Y0050155D01*
X0307545Y0050050D01*
X0307421Y0049947D01*
X0307295Y0049847D01*
X0307167Y0049751D01*
X0307036Y0049658D01*
X0306902Y0049568D01*
X0306767Y0049481D01*
X0306629Y0049398D01*
X0306490Y0049318D01*
X0306348Y0049242D01*
X0306205Y0049169D01*
X0306060Y0049100D01*
X0305913Y0049034D01*
X0305765Y0048972D01*
X0305615Y0048914D01*
X0305464Y0048859D01*
X0305311Y0048808D01*
X0305157Y0048761D01*
X0305002Y0048718D01*
X0304846Y0048679D01*
X0304690Y0048643D01*
X0304532Y0048612D01*
X0304374Y0048584D01*
X0304215Y0048560D01*
X0304055Y0048540D01*
X0303895Y0048524D01*
X0303735Y0048512D01*
X0303574Y0048504D01*
X0303413Y0048500D01*
X0303253Y0048500D01*
X0303092Y0048504D01*
X0302931Y0048512D01*
X0302771Y0048524D01*
X0302611Y0048540D01*
X0302451Y0048560D01*
X0302292Y0048584D01*
X0302134Y0048612D01*
X0301976Y0048643D01*
X0301820Y0048679D01*
X0301664Y0048718D01*
X0301509Y0048761D01*
X0301355Y0048808D01*
X0301202Y0048859D01*
X0301051Y0048914D01*
X0300901Y0048972D01*
X0300753Y0049034D01*
X0300606Y0049100D01*
X0300461Y0049169D01*
X0300318Y0049242D01*
X0300176Y0049318D01*
X0300037Y0049398D01*
X0299899Y0049481D01*
X0299764Y0049568D01*
X0299630Y0049658D01*
X0299499Y0049751D01*
X0299371Y0049847D01*
X0299245Y0049947D01*
X0299121Y0050050D01*
X0299000Y0050155D01*
X0298881Y0050264D01*
X0298765Y0050375D01*
X0298652Y0050490D01*
X0298542Y0050607D01*
X0298435Y0050727D01*
X0298331Y0050849D01*
X0298230Y0050974D01*
X0298132Y0051102D01*
X0298037Y0051232D01*
X0297945Y0051364D01*
X0297857Y0051498D01*
X0297772Y0051635D01*
X0297690Y0051773D01*
X0297612Y0051914D01*
X0297538Y0052056D01*
X0297467Y0052200D01*
X0297399Y0052346D01*
X0297336Y0052494D01*
X0297275Y0052643D01*
X0297219Y0052794D01*
X0297166Y0052946D01*
X0297117Y0053099D01*
X0297072Y0053253D01*
X0297031Y0053408D01*
X0296993Y0053565D01*
X0296960Y0053722D01*
X0296930Y0053880D01*
X0296904Y0054039D01*
X0296883Y0054198D01*
X0296865Y0054358D01*
X0296851Y0054518D01*
X0296841Y0054679D01*
X0296835Y0054839D01*
X0296833Y0055000D01*
X0235833Y0165000D02*
X0235835Y0165184D01*
X0235842Y0165368D01*
X0235853Y0165552D01*
X0235869Y0165735D01*
X0235889Y0165918D01*
X0235914Y0166100D01*
X0235943Y0166282D01*
X0235977Y0166463D01*
X0236015Y0166643D01*
X0236058Y0166822D01*
X0236105Y0167000D01*
X0236156Y0167177D01*
X0236212Y0167353D01*
X0236271Y0167527D01*
X0236336Y0167699D01*
X0236404Y0167870D01*
X0236476Y0168039D01*
X0236553Y0168207D01*
X0236634Y0168372D01*
X0236719Y0168535D01*
X0236807Y0168697D01*
X0236900Y0168856D01*
X0236997Y0169012D01*
X0237097Y0169167D01*
X0237201Y0169319D01*
X0237309Y0169468D01*
X0237420Y0169614D01*
X0237535Y0169758D01*
X0237654Y0169899D01*
X0237776Y0170037D01*
X0237901Y0170172D01*
X0238030Y0170303D01*
X0238161Y0170432D01*
X0238296Y0170557D01*
X0238434Y0170679D01*
X0238575Y0170798D01*
X0238719Y0170913D01*
X0238865Y0171024D01*
X0239014Y0171132D01*
X0239166Y0171236D01*
X0239321Y0171336D01*
X0239477Y0171433D01*
X0239636Y0171526D01*
X0239798Y0171614D01*
X0239961Y0171699D01*
X0240126Y0171780D01*
X0240294Y0171857D01*
X0240463Y0171929D01*
X0240634Y0171997D01*
X0240806Y0172062D01*
X0240980Y0172121D01*
X0241156Y0172177D01*
X0241333Y0172228D01*
X0241511Y0172275D01*
X0241690Y0172318D01*
X0241870Y0172356D01*
X0242051Y0172390D01*
X0242233Y0172419D01*
X0242415Y0172444D01*
X0242598Y0172464D01*
X0242781Y0172480D01*
X0242965Y0172491D01*
X0243149Y0172498D01*
X0243333Y0172500D01*
X0243517Y0172498D01*
X0243701Y0172491D01*
X0243885Y0172480D01*
X0244068Y0172464D01*
X0244251Y0172444D01*
X0244433Y0172419D01*
X0244615Y0172390D01*
X0244796Y0172356D01*
X0244976Y0172318D01*
X0245155Y0172275D01*
X0245333Y0172228D01*
X0245510Y0172177D01*
X0245686Y0172121D01*
X0245860Y0172062D01*
X0246032Y0171997D01*
X0246203Y0171929D01*
X0246372Y0171857D01*
X0246540Y0171780D01*
X0246705Y0171699D01*
X0246868Y0171614D01*
X0247030Y0171526D01*
X0247189Y0171433D01*
X0247345Y0171336D01*
X0247500Y0171236D01*
X0247652Y0171132D01*
X0247801Y0171024D01*
X0247947Y0170913D01*
X0248091Y0170798D01*
X0248232Y0170679D01*
X0248370Y0170557D01*
X0248505Y0170432D01*
X0248636Y0170303D01*
X0248765Y0170172D01*
X0248890Y0170037D01*
X0249012Y0169899D01*
X0249131Y0169758D01*
X0249246Y0169614D01*
X0249357Y0169468D01*
X0249465Y0169319D01*
X0249569Y0169167D01*
X0249669Y0169012D01*
X0249766Y0168856D01*
X0249859Y0168697D01*
X0249947Y0168535D01*
X0250032Y0168372D01*
X0250113Y0168207D01*
X0250190Y0168039D01*
X0250262Y0167870D01*
X0250330Y0167699D01*
X0250395Y0167527D01*
X0250454Y0167353D01*
X0250510Y0167177D01*
X0250561Y0167000D01*
X0250608Y0166822D01*
X0250651Y0166643D01*
X0250689Y0166463D01*
X0250723Y0166282D01*
X0250752Y0166100D01*
X0250777Y0165918D01*
X0250797Y0165735D01*
X0250813Y0165552D01*
X0250824Y0165368D01*
X0250831Y0165184D01*
X0250833Y0165000D01*
X0250831Y0164816D01*
X0250824Y0164632D01*
X0250813Y0164448D01*
X0250797Y0164265D01*
X0250777Y0164082D01*
X0250752Y0163900D01*
X0250723Y0163718D01*
X0250689Y0163537D01*
X0250651Y0163357D01*
X0250608Y0163178D01*
X0250561Y0163000D01*
X0250510Y0162823D01*
X0250454Y0162647D01*
X0250395Y0162473D01*
X0250330Y0162301D01*
X0250262Y0162130D01*
X0250190Y0161961D01*
X0250113Y0161793D01*
X0250032Y0161628D01*
X0249947Y0161465D01*
X0249859Y0161303D01*
X0249766Y0161144D01*
X0249669Y0160988D01*
X0249569Y0160833D01*
X0249465Y0160681D01*
X0249357Y0160532D01*
X0249246Y0160386D01*
X0249131Y0160242D01*
X0249012Y0160101D01*
X0248890Y0159963D01*
X0248765Y0159828D01*
X0248636Y0159697D01*
X0248505Y0159568D01*
X0248370Y0159443D01*
X0248232Y0159321D01*
X0248091Y0159202D01*
X0247947Y0159087D01*
X0247801Y0158976D01*
X0247652Y0158868D01*
X0247500Y0158764D01*
X0247345Y0158664D01*
X0247189Y0158567D01*
X0247030Y0158474D01*
X0246868Y0158386D01*
X0246705Y0158301D01*
X0246540Y0158220D01*
X0246372Y0158143D01*
X0246203Y0158071D01*
X0246032Y0158003D01*
X0245860Y0157938D01*
X0245686Y0157879D01*
X0245510Y0157823D01*
X0245333Y0157772D01*
X0245155Y0157725D01*
X0244976Y0157682D01*
X0244796Y0157644D01*
X0244615Y0157610D01*
X0244433Y0157581D01*
X0244251Y0157556D01*
X0244068Y0157536D01*
X0243885Y0157520D01*
X0243701Y0157509D01*
X0243517Y0157502D01*
X0243333Y0157500D01*
X0243149Y0157502D01*
X0242965Y0157509D01*
X0242781Y0157520D01*
X0242598Y0157536D01*
X0242415Y0157556D01*
X0242233Y0157581D01*
X0242051Y0157610D01*
X0241870Y0157644D01*
X0241690Y0157682D01*
X0241511Y0157725D01*
X0241333Y0157772D01*
X0241156Y0157823D01*
X0240980Y0157879D01*
X0240806Y0157938D01*
X0240634Y0158003D01*
X0240463Y0158071D01*
X0240294Y0158143D01*
X0240126Y0158220D01*
X0239961Y0158301D01*
X0239798Y0158386D01*
X0239636Y0158474D01*
X0239477Y0158567D01*
X0239321Y0158664D01*
X0239166Y0158764D01*
X0239014Y0158868D01*
X0238865Y0158976D01*
X0238719Y0159087D01*
X0238575Y0159202D01*
X0238434Y0159321D01*
X0238296Y0159443D01*
X0238161Y0159568D01*
X0238030Y0159697D01*
X0237901Y0159828D01*
X0237776Y0159963D01*
X0237654Y0160101D01*
X0237535Y0160242D01*
X0237420Y0160386D01*
X0237309Y0160532D01*
X0237201Y0160681D01*
X0237097Y0160833D01*
X0236997Y0160988D01*
X0236900Y0161144D01*
X0236807Y0161303D01*
X0236719Y0161465D01*
X0236634Y0161628D01*
X0236553Y0161793D01*
X0236476Y0161961D01*
X0236404Y0162130D01*
X0236336Y0162301D01*
X0236271Y0162473D01*
X0236212Y0162647D01*
X0236156Y0162823D01*
X0236105Y0163000D01*
X0236058Y0163178D01*
X0236015Y0163357D01*
X0235977Y0163537D01*
X0235943Y0163718D01*
X0235914Y0163900D01*
X0235889Y0164082D01*
X0235869Y0164265D01*
X0235853Y0164448D01*
X0235842Y0164632D01*
X0235835Y0164816D01*
X0235833Y0165000D01*
X0296833Y0210000D02*
X0296835Y0210161D01*
X0296841Y0210321D01*
X0296851Y0210482D01*
X0296865Y0210642D01*
X0296883Y0210802D01*
X0296904Y0210961D01*
X0296930Y0211120D01*
X0296960Y0211278D01*
X0296993Y0211435D01*
X0297031Y0211592D01*
X0297072Y0211747D01*
X0297117Y0211901D01*
X0297166Y0212054D01*
X0297219Y0212206D01*
X0297275Y0212357D01*
X0297336Y0212506D01*
X0297399Y0212654D01*
X0297467Y0212800D01*
X0297538Y0212944D01*
X0297612Y0213086D01*
X0297690Y0213227D01*
X0297772Y0213365D01*
X0297857Y0213502D01*
X0297945Y0213636D01*
X0298037Y0213768D01*
X0298132Y0213898D01*
X0298230Y0214026D01*
X0298331Y0214151D01*
X0298435Y0214273D01*
X0298542Y0214393D01*
X0298652Y0214510D01*
X0298765Y0214625D01*
X0298881Y0214736D01*
X0299000Y0214845D01*
X0299121Y0214950D01*
X0299245Y0215053D01*
X0299371Y0215153D01*
X0299499Y0215249D01*
X0299630Y0215342D01*
X0299764Y0215432D01*
X0299899Y0215519D01*
X0300037Y0215602D01*
X0300176Y0215682D01*
X0300318Y0215758D01*
X0300461Y0215831D01*
X0300606Y0215900D01*
X0300753Y0215966D01*
X0300901Y0216028D01*
X0301051Y0216086D01*
X0301202Y0216141D01*
X0301355Y0216192D01*
X0301509Y0216239D01*
X0301664Y0216282D01*
X0301820Y0216321D01*
X0301976Y0216357D01*
X0302134Y0216388D01*
X0302292Y0216416D01*
X0302451Y0216440D01*
X0302611Y0216460D01*
X0302771Y0216476D01*
X0302931Y0216488D01*
X0303092Y0216496D01*
X0303253Y0216500D01*
X0303413Y0216500D01*
X0303574Y0216496D01*
X0303735Y0216488D01*
X0303895Y0216476D01*
X0304055Y0216460D01*
X0304215Y0216440D01*
X0304374Y0216416D01*
X0304532Y0216388D01*
X0304690Y0216357D01*
X0304846Y0216321D01*
X0305002Y0216282D01*
X0305157Y0216239D01*
X0305311Y0216192D01*
X0305464Y0216141D01*
X0305615Y0216086D01*
X0305765Y0216028D01*
X0305913Y0215966D01*
X0306060Y0215900D01*
X0306205Y0215831D01*
X0306348Y0215758D01*
X0306490Y0215682D01*
X0306629Y0215602D01*
X0306767Y0215519D01*
X0306902Y0215432D01*
X0307036Y0215342D01*
X0307167Y0215249D01*
X0307295Y0215153D01*
X0307421Y0215053D01*
X0307545Y0214950D01*
X0307666Y0214845D01*
X0307785Y0214736D01*
X0307901Y0214625D01*
X0308014Y0214510D01*
X0308124Y0214393D01*
X0308231Y0214273D01*
X0308335Y0214151D01*
X0308436Y0214026D01*
X0308534Y0213898D01*
X0308629Y0213768D01*
X0308721Y0213636D01*
X0308809Y0213502D01*
X0308894Y0213365D01*
X0308976Y0213227D01*
X0309054Y0213086D01*
X0309128Y0212944D01*
X0309199Y0212800D01*
X0309267Y0212654D01*
X0309330Y0212506D01*
X0309391Y0212357D01*
X0309447Y0212206D01*
X0309500Y0212054D01*
X0309549Y0211901D01*
X0309594Y0211747D01*
X0309635Y0211592D01*
X0309673Y0211435D01*
X0309706Y0211278D01*
X0309736Y0211120D01*
X0309762Y0210961D01*
X0309783Y0210802D01*
X0309801Y0210642D01*
X0309815Y0210482D01*
X0309825Y0210321D01*
X0309831Y0210161D01*
X0309833Y0210000D01*
X0309831Y0209839D01*
X0309825Y0209679D01*
X0309815Y0209518D01*
X0309801Y0209358D01*
X0309783Y0209198D01*
X0309762Y0209039D01*
X0309736Y0208880D01*
X0309706Y0208722D01*
X0309673Y0208565D01*
X0309635Y0208408D01*
X0309594Y0208253D01*
X0309549Y0208099D01*
X0309500Y0207946D01*
X0309447Y0207794D01*
X0309391Y0207643D01*
X0309330Y0207494D01*
X0309267Y0207346D01*
X0309199Y0207200D01*
X0309128Y0207056D01*
X0309054Y0206914D01*
X0308976Y0206773D01*
X0308894Y0206635D01*
X0308809Y0206498D01*
X0308721Y0206364D01*
X0308629Y0206232D01*
X0308534Y0206102D01*
X0308436Y0205974D01*
X0308335Y0205849D01*
X0308231Y0205727D01*
X0308124Y0205607D01*
X0308014Y0205490D01*
X0307901Y0205375D01*
X0307785Y0205264D01*
X0307666Y0205155D01*
X0307545Y0205050D01*
X0307421Y0204947D01*
X0307295Y0204847D01*
X0307167Y0204751D01*
X0307036Y0204658D01*
X0306902Y0204568D01*
X0306767Y0204481D01*
X0306629Y0204398D01*
X0306490Y0204318D01*
X0306348Y0204242D01*
X0306205Y0204169D01*
X0306060Y0204100D01*
X0305913Y0204034D01*
X0305765Y0203972D01*
X0305615Y0203914D01*
X0305464Y0203859D01*
X0305311Y0203808D01*
X0305157Y0203761D01*
X0305002Y0203718D01*
X0304846Y0203679D01*
X0304690Y0203643D01*
X0304532Y0203612D01*
X0304374Y0203584D01*
X0304215Y0203560D01*
X0304055Y0203540D01*
X0303895Y0203524D01*
X0303735Y0203512D01*
X0303574Y0203504D01*
X0303413Y0203500D01*
X0303253Y0203500D01*
X0303092Y0203504D01*
X0302931Y0203512D01*
X0302771Y0203524D01*
X0302611Y0203540D01*
X0302451Y0203560D01*
X0302292Y0203584D01*
X0302134Y0203612D01*
X0301976Y0203643D01*
X0301820Y0203679D01*
X0301664Y0203718D01*
X0301509Y0203761D01*
X0301355Y0203808D01*
X0301202Y0203859D01*
X0301051Y0203914D01*
X0300901Y0203972D01*
X0300753Y0204034D01*
X0300606Y0204100D01*
X0300461Y0204169D01*
X0300318Y0204242D01*
X0300176Y0204318D01*
X0300037Y0204398D01*
X0299899Y0204481D01*
X0299764Y0204568D01*
X0299630Y0204658D01*
X0299499Y0204751D01*
X0299371Y0204847D01*
X0299245Y0204947D01*
X0299121Y0205050D01*
X0299000Y0205155D01*
X0298881Y0205264D01*
X0298765Y0205375D01*
X0298652Y0205490D01*
X0298542Y0205607D01*
X0298435Y0205727D01*
X0298331Y0205849D01*
X0298230Y0205974D01*
X0298132Y0206102D01*
X0298037Y0206232D01*
X0297945Y0206364D01*
X0297857Y0206498D01*
X0297772Y0206635D01*
X0297690Y0206773D01*
X0297612Y0206914D01*
X0297538Y0207056D01*
X0297467Y0207200D01*
X0297399Y0207346D01*
X0297336Y0207494D01*
X0297275Y0207643D01*
X0297219Y0207794D01*
X0297166Y0207946D01*
X0297117Y0208099D01*
X0297072Y0208253D01*
X0297031Y0208408D01*
X0296993Y0208565D01*
X0296960Y0208722D01*
X0296930Y0208880D01*
X0296904Y0209039D01*
X0296883Y0209198D01*
X0296865Y0209358D01*
X0296851Y0209518D01*
X0296841Y0209679D01*
X0296835Y0209839D01*
X0296833Y0210000D01*
X0130833Y0165000D02*
X0130835Y0165184D01*
X0130842Y0165368D01*
X0130853Y0165552D01*
X0130869Y0165735D01*
X0130889Y0165918D01*
X0130914Y0166100D01*
X0130943Y0166282D01*
X0130977Y0166463D01*
X0131015Y0166643D01*
X0131058Y0166822D01*
X0131105Y0167000D01*
X0131156Y0167177D01*
X0131212Y0167353D01*
X0131271Y0167527D01*
X0131336Y0167699D01*
X0131404Y0167870D01*
X0131476Y0168039D01*
X0131553Y0168207D01*
X0131634Y0168372D01*
X0131719Y0168535D01*
X0131807Y0168697D01*
X0131900Y0168856D01*
X0131997Y0169012D01*
X0132097Y0169167D01*
X0132201Y0169319D01*
X0132309Y0169468D01*
X0132420Y0169614D01*
X0132535Y0169758D01*
X0132654Y0169899D01*
X0132776Y0170037D01*
X0132901Y0170172D01*
X0133030Y0170303D01*
X0133161Y0170432D01*
X0133296Y0170557D01*
X0133434Y0170679D01*
X0133575Y0170798D01*
X0133719Y0170913D01*
X0133865Y0171024D01*
X0134014Y0171132D01*
X0134166Y0171236D01*
X0134321Y0171336D01*
X0134477Y0171433D01*
X0134636Y0171526D01*
X0134798Y0171614D01*
X0134961Y0171699D01*
X0135126Y0171780D01*
X0135294Y0171857D01*
X0135463Y0171929D01*
X0135634Y0171997D01*
X0135806Y0172062D01*
X0135980Y0172121D01*
X0136156Y0172177D01*
X0136333Y0172228D01*
X0136511Y0172275D01*
X0136690Y0172318D01*
X0136870Y0172356D01*
X0137051Y0172390D01*
X0137233Y0172419D01*
X0137415Y0172444D01*
X0137598Y0172464D01*
X0137781Y0172480D01*
X0137965Y0172491D01*
X0138149Y0172498D01*
X0138333Y0172500D01*
X0138517Y0172498D01*
X0138701Y0172491D01*
X0138885Y0172480D01*
X0139068Y0172464D01*
X0139251Y0172444D01*
X0139433Y0172419D01*
X0139615Y0172390D01*
X0139796Y0172356D01*
X0139976Y0172318D01*
X0140155Y0172275D01*
X0140333Y0172228D01*
X0140510Y0172177D01*
X0140686Y0172121D01*
X0140860Y0172062D01*
X0141032Y0171997D01*
X0141203Y0171929D01*
X0141372Y0171857D01*
X0141540Y0171780D01*
X0141705Y0171699D01*
X0141868Y0171614D01*
X0142030Y0171526D01*
X0142189Y0171433D01*
X0142345Y0171336D01*
X0142500Y0171236D01*
X0142652Y0171132D01*
X0142801Y0171024D01*
X0142947Y0170913D01*
X0143091Y0170798D01*
X0143232Y0170679D01*
X0143370Y0170557D01*
X0143505Y0170432D01*
X0143636Y0170303D01*
X0143765Y0170172D01*
X0143890Y0170037D01*
X0144012Y0169899D01*
X0144131Y0169758D01*
X0144246Y0169614D01*
X0144357Y0169468D01*
X0144465Y0169319D01*
X0144569Y0169167D01*
X0144669Y0169012D01*
X0144766Y0168856D01*
X0144859Y0168697D01*
X0144947Y0168535D01*
X0145032Y0168372D01*
X0145113Y0168207D01*
X0145190Y0168039D01*
X0145262Y0167870D01*
X0145330Y0167699D01*
X0145395Y0167527D01*
X0145454Y0167353D01*
X0145510Y0167177D01*
X0145561Y0167000D01*
X0145608Y0166822D01*
X0145651Y0166643D01*
X0145689Y0166463D01*
X0145723Y0166282D01*
X0145752Y0166100D01*
X0145777Y0165918D01*
X0145797Y0165735D01*
X0145813Y0165552D01*
X0145824Y0165368D01*
X0145831Y0165184D01*
X0145833Y0165000D01*
X0145831Y0164816D01*
X0145824Y0164632D01*
X0145813Y0164448D01*
X0145797Y0164265D01*
X0145777Y0164082D01*
X0145752Y0163900D01*
X0145723Y0163718D01*
X0145689Y0163537D01*
X0145651Y0163357D01*
X0145608Y0163178D01*
X0145561Y0163000D01*
X0145510Y0162823D01*
X0145454Y0162647D01*
X0145395Y0162473D01*
X0145330Y0162301D01*
X0145262Y0162130D01*
X0145190Y0161961D01*
X0145113Y0161793D01*
X0145032Y0161628D01*
X0144947Y0161465D01*
X0144859Y0161303D01*
X0144766Y0161144D01*
X0144669Y0160988D01*
X0144569Y0160833D01*
X0144465Y0160681D01*
X0144357Y0160532D01*
X0144246Y0160386D01*
X0144131Y0160242D01*
X0144012Y0160101D01*
X0143890Y0159963D01*
X0143765Y0159828D01*
X0143636Y0159697D01*
X0143505Y0159568D01*
X0143370Y0159443D01*
X0143232Y0159321D01*
X0143091Y0159202D01*
X0142947Y0159087D01*
X0142801Y0158976D01*
X0142652Y0158868D01*
X0142500Y0158764D01*
X0142345Y0158664D01*
X0142189Y0158567D01*
X0142030Y0158474D01*
X0141868Y0158386D01*
X0141705Y0158301D01*
X0141540Y0158220D01*
X0141372Y0158143D01*
X0141203Y0158071D01*
X0141032Y0158003D01*
X0140860Y0157938D01*
X0140686Y0157879D01*
X0140510Y0157823D01*
X0140333Y0157772D01*
X0140155Y0157725D01*
X0139976Y0157682D01*
X0139796Y0157644D01*
X0139615Y0157610D01*
X0139433Y0157581D01*
X0139251Y0157556D01*
X0139068Y0157536D01*
X0138885Y0157520D01*
X0138701Y0157509D01*
X0138517Y0157502D01*
X0138333Y0157500D01*
X0138149Y0157502D01*
X0137965Y0157509D01*
X0137781Y0157520D01*
X0137598Y0157536D01*
X0137415Y0157556D01*
X0137233Y0157581D01*
X0137051Y0157610D01*
X0136870Y0157644D01*
X0136690Y0157682D01*
X0136511Y0157725D01*
X0136333Y0157772D01*
X0136156Y0157823D01*
X0135980Y0157879D01*
X0135806Y0157938D01*
X0135634Y0158003D01*
X0135463Y0158071D01*
X0135294Y0158143D01*
X0135126Y0158220D01*
X0134961Y0158301D01*
X0134798Y0158386D01*
X0134636Y0158474D01*
X0134477Y0158567D01*
X0134321Y0158664D01*
X0134166Y0158764D01*
X0134014Y0158868D01*
X0133865Y0158976D01*
X0133719Y0159087D01*
X0133575Y0159202D01*
X0133434Y0159321D01*
X0133296Y0159443D01*
X0133161Y0159568D01*
X0133030Y0159697D01*
X0132901Y0159828D01*
X0132776Y0159963D01*
X0132654Y0160101D01*
X0132535Y0160242D01*
X0132420Y0160386D01*
X0132309Y0160532D01*
X0132201Y0160681D01*
X0132097Y0160833D01*
X0131997Y0160988D01*
X0131900Y0161144D01*
X0131807Y0161303D01*
X0131719Y0161465D01*
X0131634Y0161628D01*
X0131553Y0161793D01*
X0131476Y0161961D01*
X0131404Y0162130D01*
X0131336Y0162301D01*
X0131271Y0162473D01*
X0131212Y0162647D01*
X0131156Y0162823D01*
X0131105Y0163000D01*
X0131058Y0163178D01*
X0131015Y0163357D01*
X0130977Y0163537D01*
X0130943Y0163718D01*
X0130914Y0163900D01*
X0130889Y0164082D01*
X0130869Y0164265D01*
X0130853Y0164448D01*
X0130842Y0164632D01*
X0130835Y0164816D01*
X0130833Y0165000D01*
X0011833Y0210000D02*
X0011835Y0210161D01*
X0011841Y0210321D01*
X0011851Y0210482D01*
X0011865Y0210642D01*
X0011883Y0210802D01*
X0011904Y0210961D01*
X0011930Y0211120D01*
X0011960Y0211278D01*
X0011993Y0211435D01*
X0012031Y0211592D01*
X0012072Y0211747D01*
X0012117Y0211901D01*
X0012166Y0212054D01*
X0012219Y0212206D01*
X0012275Y0212357D01*
X0012336Y0212506D01*
X0012399Y0212654D01*
X0012467Y0212800D01*
X0012538Y0212944D01*
X0012612Y0213086D01*
X0012690Y0213227D01*
X0012772Y0213365D01*
X0012857Y0213502D01*
X0012945Y0213636D01*
X0013037Y0213768D01*
X0013132Y0213898D01*
X0013230Y0214026D01*
X0013331Y0214151D01*
X0013435Y0214273D01*
X0013542Y0214393D01*
X0013652Y0214510D01*
X0013765Y0214625D01*
X0013881Y0214736D01*
X0014000Y0214845D01*
X0014121Y0214950D01*
X0014245Y0215053D01*
X0014371Y0215153D01*
X0014499Y0215249D01*
X0014630Y0215342D01*
X0014764Y0215432D01*
X0014899Y0215519D01*
X0015037Y0215602D01*
X0015176Y0215682D01*
X0015318Y0215758D01*
X0015461Y0215831D01*
X0015606Y0215900D01*
X0015753Y0215966D01*
X0015901Y0216028D01*
X0016051Y0216086D01*
X0016202Y0216141D01*
X0016355Y0216192D01*
X0016509Y0216239D01*
X0016664Y0216282D01*
X0016820Y0216321D01*
X0016976Y0216357D01*
X0017134Y0216388D01*
X0017292Y0216416D01*
X0017451Y0216440D01*
X0017611Y0216460D01*
X0017771Y0216476D01*
X0017931Y0216488D01*
X0018092Y0216496D01*
X0018253Y0216500D01*
X0018413Y0216500D01*
X0018574Y0216496D01*
X0018735Y0216488D01*
X0018895Y0216476D01*
X0019055Y0216460D01*
X0019215Y0216440D01*
X0019374Y0216416D01*
X0019532Y0216388D01*
X0019690Y0216357D01*
X0019846Y0216321D01*
X0020002Y0216282D01*
X0020157Y0216239D01*
X0020311Y0216192D01*
X0020464Y0216141D01*
X0020615Y0216086D01*
X0020765Y0216028D01*
X0020913Y0215966D01*
X0021060Y0215900D01*
X0021205Y0215831D01*
X0021348Y0215758D01*
X0021490Y0215682D01*
X0021629Y0215602D01*
X0021767Y0215519D01*
X0021902Y0215432D01*
X0022036Y0215342D01*
X0022167Y0215249D01*
X0022295Y0215153D01*
X0022421Y0215053D01*
X0022545Y0214950D01*
X0022666Y0214845D01*
X0022785Y0214736D01*
X0022901Y0214625D01*
X0023014Y0214510D01*
X0023124Y0214393D01*
X0023231Y0214273D01*
X0023335Y0214151D01*
X0023436Y0214026D01*
X0023534Y0213898D01*
X0023629Y0213768D01*
X0023721Y0213636D01*
X0023809Y0213502D01*
X0023894Y0213365D01*
X0023976Y0213227D01*
X0024054Y0213086D01*
X0024128Y0212944D01*
X0024199Y0212800D01*
X0024267Y0212654D01*
X0024330Y0212506D01*
X0024391Y0212357D01*
X0024447Y0212206D01*
X0024500Y0212054D01*
X0024549Y0211901D01*
X0024594Y0211747D01*
X0024635Y0211592D01*
X0024673Y0211435D01*
X0024706Y0211278D01*
X0024736Y0211120D01*
X0024762Y0210961D01*
X0024783Y0210802D01*
X0024801Y0210642D01*
X0024815Y0210482D01*
X0024825Y0210321D01*
X0024831Y0210161D01*
X0024833Y0210000D01*
X0024831Y0209839D01*
X0024825Y0209679D01*
X0024815Y0209518D01*
X0024801Y0209358D01*
X0024783Y0209198D01*
X0024762Y0209039D01*
X0024736Y0208880D01*
X0024706Y0208722D01*
X0024673Y0208565D01*
X0024635Y0208408D01*
X0024594Y0208253D01*
X0024549Y0208099D01*
X0024500Y0207946D01*
X0024447Y0207794D01*
X0024391Y0207643D01*
X0024330Y0207494D01*
X0024267Y0207346D01*
X0024199Y0207200D01*
X0024128Y0207056D01*
X0024054Y0206914D01*
X0023976Y0206773D01*
X0023894Y0206635D01*
X0023809Y0206498D01*
X0023721Y0206364D01*
X0023629Y0206232D01*
X0023534Y0206102D01*
X0023436Y0205974D01*
X0023335Y0205849D01*
X0023231Y0205727D01*
X0023124Y0205607D01*
X0023014Y0205490D01*
X0022901Y0205375D01*
X0022785Y0205264D01*
X0022666Y0205155D01*
X0022545Y0205050D01*
X0022421Y0204947D01*
X0022295Y0204847D01*
X0022167Y0204751D01*
X0022036Y0204658D01*
X0021902Y0204568D01*
X0021767Y0204481D01*
X0021629Y0204398D01*
X0021490Y0204318D01*
X0021348Y0204242D01*
X0021205Y0204169D01*
X0021060Y0204100D01*
X0020913Y0204034D01*
X0020765Y0203972D01*
X0020615Y0203914D01*
X0020464Y0203859D01*
X0020311Y0203808D01*
X0020157Y0203761D01*
X0020002Y0203718D01*
X0019846Y0203679D01*
X0019690Y0203643D01*
X0019532Y0203612D01*
X0019374Y0203584D01*
X0019215Y0203560D01*
X0019055Y0203540D01*
X0018895Y0203524D01*
X0018735Y0203512D01*
X0018574Y0203504D01*
X0018413Y0203500D01*
X0018253Y0203500D01*
X0018092Y0203504D01*
X0017931Y0203512D01*
X0017771Y0203524D01*
X0017611Y0203540D01*
X0017451Y0203560D01*
X0017292Y0203584D01*
X0017134Y0203612D01*
X0016976Y0203643D01*
X0016820Y0203679D01*
X0016664Y0203718D01*
X0016509Y0203761D01*
X0016355Y0203808D01*
X0016202Y0203859D01*
X0016051Y0203914D01*
X0015901Y0203972D01*
X0015753Y0204034D01*
X0015606Y0204100D01*
X0015461Y0204169D01*
X0015318Y0204242D01*
X0015176Y0204318D01*
X0015037Y0204398D01*
X0014899Y0204481D01*
X0014764Y0204568D01*
X0014630Y0204658D01*
X0014499Y0204751D01*
X0014371Y0204847D01*
X0014245Y0204947D01*
X0014121Y0205050D01*
X0014000Y0205155D01*
X0013881Y0205264D01*
X0013765Y0205375D01*
X0013652Y0205490D01*
X0013542Y0205607D01*
X0013435Y0205727D01*
X0013331Y0205849D01*
X0013230Y0205974D01*
X0013132Y0206102D01*
X0013037Y0206232D01*
X0012945Y0206364D01*
X0012857Y0206498D01*
X0012772Y0206635D01*
X0012690Y0206773D01*
X0012612Y0206914D01*
X0012538Y0207056D01*
X0012467Y0207200D01*
X0012399Y0207346D01*
X0012336Y0207494D01*
X0012275Y0207643D01*
X0012219Y0207794D01*
X0012166Y0207946D01*
X0012117Y0208099D01*
X0012072Y0208253D01*
X0012031Y0208408D01*
X0011993Y0208565D01*
X0011960Y0208722D01*
X0011930Y0208880D01*
X0011904Y0209039D01*
X0011883Y0209198D01*
X0011865Y0209358D01*
X0011851Y0209518D01*
X0011841Y0209679D01*
X0011835Y0209839D01*
X0011833Y0210000D01*
M02*
