%
M48
M72
T01C0.04000
T02C0.13000
T03C0.15000
%
T01
X77833Y215000
X78833Y205000
X78833Y225000
X117833Y215000
X118833Y205000
X118833Y225000
X158833Y225000
X157833Y215000
X158833Y205000
X197833Y215000
X198833Y205000
X198833Y225000
X238833Y225000
X237833Y215000
X238833Y205000
X228333Y157500
X228333Y147500
X228333Y137500
X228333Y127500
X228333Y117500
X228333Y107500
X228333Y97500
X248333Y97500
X248333Y87500
X248333Y77500
X248333Y107500
X248333Y117500
X248333Y127500
X248333Y137500
X248333Y147500
X133333Y150000
X133333Y140000
X133333Y130000
X133333Y120000
X103333Y120000
X103333Y110000
X103333Y100000
X103333Y90000
X43333Y90000
X43333Y100000
X43333Y110000
X43333Y120000
X43333Y130000
X43333Y140000
X43333Y150000
X43333Y160000
X103333Y160000
X103333Y150000
X103333Y140000
X103333Y130000
T02
X18333Y55000
X303333Y55000
X303333Y210000
X18333Y210000
T03
X138333Y165000
X243333Y165000
X243333Y60000
X138333Y60000
M30
