G75*
%MOIN*%
%OFA0B0*%
%FSLAX25Y25*%
%IPPOS*%
%LPD*%
%AMOC8*
5,1,8,0,0,1.08239X$1,22.5*
%
%ADD10C,0.00000*%
%ADD11R,0.06000X0.06000*%
%ADD12C,0.06000*%
%ADD13R,0.04724X0.04724*%
%ADD14R,0.05118X0.06299*%
%ADD15C,0.07400*%
%ADD16C,0.00600*%
%ADD17C,0.05000*%
D10*
X0003333Y0040000D02*
X0003333Y0250000D01*
X0318333Y0250000D01*
X0318333Y0040000D01*
X0003333Y0040000D01*
X0011833Y0055000D02*
X0011835Y0055161D01*
X0011841Y0055321D01*
X0011851Y0055482D01*
X0011865Y0055642D01*
X0011883Y0055802D01*
X0011904Y0055961D01*
X0011930Y0056120D01*
X0011960Y0056278D01*
X0011993Y0056435D01*
X0012031Y0056592D01*
X0012072Y0056747D01*
X0012117Y0056901D01*
X0012166Y0057054D01*
X0012219Y0057206D01*
X0012275Y0057357D01*
X0012336Y0057506D01*
X0012399Y0057654D01*
X0012467Y0057800D01*
X0012538Y0057944D01*
X0012612Y0058086D01*
X0012690Y0058227D01*
X0012772Y0058365D01*
X0012857Y0058502D01*
X0012945Y0058636D01*
X0013037Y0058768D01*
X0013132Y0058898D01*
X0013230Y0059026D01*
X0013331Y0059151D01*
X0013435Y0059273D01*
X0013542Y0059393D01*
X0013652Y0059510D01*
X0013765Y0059625D01*
X0013881Y0059736D01*
X0014000Y0059845D01*
X0014121Y0059950D01*
X0014245Y0060053D01*
X0014371Y0060153D01*
X0014499Y0060249D01*
X0014630Y0060342D01*
X0014764Y0060432D01*
X0014899Y0060519D01*
X0015037Y0060602D01*
X0015176Y0060682D01*
X0015318Y0060758D01*
X0015461Y0060831D01*
X0015606Y0060900D01*
X0015753Y0060966D01*
X0015901Y0061028D01*
X0016051Y0061086D01*
X0016202Y0061141D01*
X0016355Y0061192D01*
X0016509Y0061239D01*
X0016664Y0061282D01*
X0016820Y0061321D01*
X0016976Y0061357D01*
X0017134Y0061388D01*
X0017292Y0061416D01*
X0017451Y0061440D01*
X0017611Y0061460D01*
X0017771Y0061476D01*
X0017931Y0061488D01*
X0018092Y0061496D01*
X0018253Y0061500D01*
X0018413Y0061500D01*
X0018574Y0061496D01*
X0018735Y0061488D01*
X0018895Y0061476D01*
X0019055Y0061460D01*
X0019215Y0061440D01*
X0019374Y0061416D01*
X0019532Y0061388D01*
X0019690Y0061357D01*
X0019846Y0061321D01*
X0020002Y0061282D01*
X0020157Y0061239D01*
X0020311Y0061192D01*
X0020464Y0061141D01*
X0020615Y0061086D01*
X0020765Y0061028D01*
X0020913Y0060966D01*
X0021060Y0060900D01*
X0021205Y0060831D01*
X0021348Y0060758D01*
X0021490Y0060682D01*
X0021629Y0060602D01*
X0021767Y0060519D01*
X0021902Y0060432D01*
X0022036Y0060342D01*
X0022167Y0060249D01*
X0022295Y0060153D01*
X0022421Y0060053D01*
X0022545Y0059950D01*
X0022666Y0059845D01*
X0022785Y0059736D01*
X0022901Y0059625D01*
X0023014Y0059510D01*
X0023124Y0059393D01*
X0023231Y0059273D01*
X0023335Y0059151D01*
X0023436Y0059026D01*
X0023534Y0058898D01*
X0023629Y0058768D01*
X0023721Y0058636D01*
X0023809Y0058502D01*
X0023894Y0058365D01*
X0023976Y0058227D01*
X0024054Y0058086D01*
X0024128Y0057944D01*
X0024199Y0057800D01*
X0024267Y0057654D01*
X0024330Y0057506D01*
X0024391Y0057357D01*
X0024447Y0057206D01*
X0024500Y0057054D01*
X0024549Y0056901D01*
X0024594Y0056747D01*
X0024635Y0056592D01*
X0024673Y0056435D01*
X0024706Y0056278D01*
X0024736Y0056120D01*
X0024762Y0055961D01*
X0024783Y0055802D01*
X0024801Y0055642D01*
X0024815Y0055482D01*
X0024825Y0055321D01*
X0024831Y0055161D01*
X0024833Y0055000D01*
X0024831Y0054839D01*
X0024825Y0054679D01*
X0024815Y0054518D01*
X0024801Y0054358D01*
X0024783Y0054198D01*
X0024762Y0054039D01*
X0024736Y0053880D01*
X0024706Y0053722D01*
X0024673Y0053565D01*
X0024635Y0053408D01*
X0024594Y0053253D01*
X0024549Y0053099D01*
X0024500Y0052946D01*
X0024447Y0052794D01*
X0024391Y0052643D01*
X0024330Y0052494D01*
X0024267Y0052346D01*
X0024199Y0052200D01*
X0024128Y0052056D01*
X0024054Y0051914D01*
X0023976Y0051773D01*
X0023894Y0051635D01*
X0023809Y0051498D01*
X0023721Y0051364D01*
X0023629Y0051232D01*
X0023534Y0051102D01*
X0023436Y0050974D01*
X0023335Y0050849D01*
X0023231Y0050727D01*
X0023124Y0050607D01*
X0023014Y0050490D01*
X0022901Y0050375D01*
X0022785Y0050264D01*
X0022666Y0050155D01*
X0022545Y0050050D01*
X0022421Y0049947D01*
X0022295Y0049847D01*
X0022167Y0049751D01*
X0022036Y0049658D01*
X0021902Y0049568D01*
X0021767Y0049481D01*
X0021629Y0049398D01*
X0021490Y0049318D01*
X0021348Y0049242D01*
X0021205Y0049169D01*
X0021060Y0049100D01*
X0020913Y0049034D01*
X0020765Y0048972D01*
X0020615Y0048914D01*
X0020464Y0048859D01*
X0020311Y0048808D01*
X0020157Y0048761D01*
X0020002Y0048718D01*
X0019846Y0048679D01*
X0019690Y0048643D01*
X0019532Y0048612D01*
X0019374Y0048584D01*
X0019215Y0048560D01*
X0019055Y0048540D01*
X0018895Y0048524D01*
X0018735Y0048512D01*
X0018574Y0048504D01*
X0018413Y0048500D01*
X0018253Y0048500D01*
X0018092Y0048504D01*
X0017931Y0048512D01*
X0017771Y0048524D01*
X0017611Y0048540D01*
X0017451Y0048560D01*
X0017292Y0048584D01*
X0017134Y0048612D01*
X0016976Y0048643D01*
X0016820Y0048679D01*
X0016664Y0048718D01*
X0016509Y0048761D01*
X0016355Y0048808D01*
X0016202Y0048859D01*
X0016051Y0048914D01*
X0015901Y0048972D01*
X0015753Y0049034D01*
X0015606Y0049100D01*
X0015461Y0049169D01*
X0015318Y0049242D01*
X0015176Y0049318D01*
X0015037Y0049398D01*
X0014899Y0049481D01*
X0014764Y0049568D01*
X0014630Y0049658D01*
X0014499Y0049751D01*
X0014371Y0049847D01*
X0014245Y0049947D01*
X0014121Y0050050D01*
X0014000Y0050155D01*
X0013881Y0050264D01*
X0013765Y0050375D01*
X0013652Y0050490D01*
X0013542Y0050607D01*
X0013435Y0050727D01*
X0013331Y0050849D01*
X0013230Y0050974D01*
X0013132Y0051102D01*
X0013037Y0051232D01*
X0012945Y0051364D01*
X0012857Y0051498D01*
X0012772Y0051635D01*
X0012690Y0051773D01*
X0012612Y0051914D01*
X0012538Y0052056D01*
X0012467Y0052200D01*
X0012399Y0052346D01*
X0012336Y0052494D01*
X0012275Y0052643D01*
X0012219Y0052794D01*
X0012166Y0052946D01*
X0012117Y0053099D01*
X0012072Y0053253D01*
X0012031Y0053408D01*
X0011993Y0053565D01*
X0011960Y0053722D01*
X0011930Y0053880D01*
X0011904Y0054039D01*
X0011883Y0054198D01*
X0011865Y0054358D01*
X0011851Y0054518D01*
X0011841Y0054679D01*
X0011835Y0054839D01*
X0011833Y0055000D01*
X0130833Y0060000D02*
X0130835Y0060184D01*
X0130842Y0060368D01*
X0130853Y0060552D01*
X0130869Y0060735D01*
X0130889Y0060918D01*
X0130914Y0061100D01*
X0130943Y0061282D01*
X0130977Y0061463D01*
X0131015Y0061643D01*
X0131058Y0061822D01*
X0131105Y0062000D01*
X0131156Y0062177D01*
X0131212Y0062353D01*
X0131271Y0062527D01*
X0131336Y0062699D01*
X0131404Y0062870D01*
X0131476Y0063039D01*
X0131553Y0063207D01*
X0131634Y0063372D01*
X0131719Y0063535D01*
X0131807Y0063697D01*
X0131900Y0063856D01*
X0131997Y0064012D01*
X0132097Y0064167D01*
X0132201Y0064319D01*
X0132309Y0064468D01*
X0132420Y0064614D01*
X0132535Y0064758D01*
X0132654Y0064899D01*
X0132776Y0065037D01*
X0132901Y0065172D01*
X0133030Y0065303D01*
X0133161Y0065432D01*
X0133296Y0065557D01*
X0133434Y0065679D01*
X0133575Y0065798D01*
X0133719Y0065913D01*
X0133865Y0066024D01*
X0134014Y0066132D01*
X0134166Y0066236D01*
X0134321Y0066336D01*
X0134477Y0066433D01*
X0134636Y0066526D01*
X0134798Y0066614D01*
X0134961Y0066699D01*
X0135126Y0066780D01*
X0135294Y0066857D01*
X0135463Y0066929D01*
X0135634Y0066997D01*
X0135806Y0067062D01*
X0135980Y0067121D01*
X0136156Y0067177D01*
X0136333Y0067228D01*
X0136511Y0067275D01*
X0136690Y0067318D01*
X0136870Y0067356D01*
X0137051Y0067390D01*
X0137233Y0067419D01*
X0137415Y0067444D01*
X0137598Y0067464D01*
X0137781Y0067480D01*
X0137965Y0067491D01*
X0138149Y0067498D01*
X0138333Y0067500D01*
X0138517Y0067498D01*
X0138701Y0067491D01*
X0138885Y0067480D01*
X0139068Y0067464D01*
X0139251Y0067444D01*
X0139433Y0067419D01*
X0139615Y0067390D01*
X0139796Y0067356D01*
X0139976Y0067318D01*
X0140155Y0067275D01*
X0140333Y0067228D01*
X0140510Y0067177D01*
X0140686Y0067121D01*
X0140860Y0067062D01*
X0141032Y0066997D01*
X0141203Y0066929D01*
X0141372Y0066857D01*
X0141540Y0066780D01*
X0141705Y0066699D01*
X0141868Y0066614D01*
X0142030Y0066526D01*
X0142189Y0066433D01*
X0142345Y0066336D01*
X0142500Y0066236D01*
X0142652Y0066132D01*
X0142801Y0066024D01*
X0142947Y0065913D01*
X0143091Y0065798D01*
X0143232Y0065679D01*
X0143370Y0065557D01*
X0143505Y0065432D01*
X0143636Y0065303D01*
X0143765Y0065172D01*
X0143890Y0065037D01*
X0144012Y0064899D01*
X0144131Y0064758D01*
X0144246Y0064614D01*
X0144357Y0064468D01*
X0144465Y0064319D01*
X0144569Y0064167D01*
X0144669Y0064012D01*
X0144766Y0063856D01*
X0144859Y0063697D01*
X0144947Y0063535D01*
X0145032Y0063372D01*
X0145113Y0063207D01*
X0145190Y0063039D01*
X0145262Y0062870D01*
X0145330Y0062699D01*
X0145395Y0062527D01*
X0145454Y0062353D01*
X0145510Y0062177D01*
X0145561Y0062000D01*
X0145608Y0061822D01*
X0145651Y0061643D01*
X0145689Y0061463D01*
X0145723Y0061282D01*
X0145752Y0061100D01*
X0145777Y0060918D01*
X0145797Y0060735D01*
X0145813Y0060552D01*
X0145824Y0060368D01*
X0145831Y0060184D01*
X0145833Y0060000D01*
X0145831Y0059816D01*
X0145824Y0059632D01*
X0145813Y0059448D01*
X0145797Y0059265D01*
X0145777Y0059082D01*
X0145752Y0058900D01*
X0145723Y0058718D01*
X0145689Y0058537D01*
X0145651Y0058357D01*
X0145608Y0058178D01*
X0145561Y0058000D01*
X0145510Y0057823D01*
X0145454Y0057647D01*
X0145395Y0057473D01*
X0145330Y0057301D01*
X0145262Y0057130D01*
X0145190Y0056961D01*
X0145113Y0056793D01*
X0145032Y0056628D01*
X0144947Y0056465D01*
X0144859Y0056303D01*
X0144766Y0056144D01*
X0144669Y0055988D01*
X0144569Y0055833D01*
X0144465Y0055681D01*
X0144357Y0055532D01*
X0144246Y0055386D01*
X0144131Y0055242D01*
X0144012Y0055101D01*
X0143890Y0054963D01*
X0143765Y0054828D01*
X0143636Y0054697D01*
X0143505Y0054568D01*
X0143370Y0054443D01*
X0143232Y0054321D01*
X0143091Y0054202D01*
X0142947Y0054087D01*
X0142801Y0053976D01*
X0142652Y0053868D01*
X0142500Y0053764D01*
X0142345Y0053664D01*
X0142189Y0053567D01*
X0142030Y0053474D01*
X0141868Y0053386D01*
X0141705Y0053301D01*
X0141540Y0053220D01*
X0141372Y0053143D01*
X0141203Y0053071D01*
X0141032Y0053003D01*
X0140860Y0052938D01*
X0140686Y0052879D01*
X0140510Y0052823D01*
X0140333Y0052772D01*
X0140155Y0052725D01*
X0139976Y0052682D01*
X0139796Y0052644D01*
X0139615Y0052610D01*
X0139433Y0052581D01*
X0139251Y0052556D01*
X0139068Y0052536D01*
X0138885Y0052520D01*
X0138701Y0052509D01*
X0138517Y0052502D01*
X0138333Y0052500D01*
X0138149Y0052502D01*
X0137965Y0052509D01*
X0137781Y0052520D01*
X0137598Y0052536D01*
X0137415Y0052556D01*
X0137233Y0052581D01*
X0137051Y0052610D01*
X0136870Y0052644D01*
X0136690Y0052682D01*
X0136511Y0052725D01*
X0136333Y0052772D01*
X0136156Y0052823D01*
X0135980Y0052879D01*
X0135806Y0052938D01*
X0135634Y0053003D01*
X0135463Y0053071D01*
X0135294Y0053143D01*
X0135126Y0053220D01*
X0134961Y0053301D01*
X0134798Y0053386D01*
X0134636Y0053474D01*
X0134477Y0053567D01*
X0134321Y0053664D01*
X0134166Y0053764D01*
X0134014Y0053868D01*
X0133865Y0053976D01*
X0133719Y0054087D01*
X0133575Y0054202D01*
X0133434Y0054321D01*
X0133296Y0054443D01*
X0133161Y0054568D01*
X0133030Y0054697D01*
X0132901Y0054828D01*
X0132776Y0054963D01*
X0132654Y0055101D01*
X0132535Y0055242D01*
X0132420Y0055386D01*
X0132309Y0055532D01*
X0132201Y0055681D01*
X0132097Y0055833D01*
X0131997Y0055988D01*
X0131900Y0056144D01*
X0131807Y0056303D01*
X0131719Y0056465D01*
X0131634Y0056628D01*
X0131553Y0056793D01*
X0131476Y0056961D01*
X0131404Y0057130D01*
X0131336Y0057301D01*
X0131271Y0057473D01*
X0131212Y0057647D01*
X0131156Y0057823D01*
X0131105Y0058000D01*
X0131058Y0058178D01*
X0131015Y0058357D01*
X0130977Y0058537D01*
X0130943Y0058718D01*
X0130914Y0058900D01*
X0130889Y0059082D01*
X0130869Y0059265D01*
X0130853Y0059448D01*
X0130842Y0059632D01*
X0130835Y0059816D01*
X0130833Y0060000D01*
X0235833Y0060000D02*
X0235835Y0060184D01*
X0235842Y0060368D01*
X0235853Y0060552D01*
X0235869Y0060735D01*
X0235889Y0060918D01*
X0235914Y0061100D01*
X0235943Y0061282D01*
X0235977Y0061463D01*
X0236015Y0061643D01*
X0236058Y0061822D01*
X0236105Y0062000D01*
X0236156Y0062177D01*
X0236212Y0062353D01*
X0236271Y0062527D01*
X0236336Y0062699D01*
X0236404Y0062870D01*
X0236476Y0063039D01*
X0236553Y0063207D01*
X0236634Y0063372D01*
X0236719Y0063535D01*
X0236807Y0063697D01*
X0236900Y0063856D01*
X0236997Y0064012D01*
X0237097Y0064167D01*
X0237201Y0064319D01*
X0237309Y0064468D01*
X0237420Y0064614D01*
X0237535Y0064758D01*
X0237654Y0064899D01*
X0237776Y0065037D01*
X0237901Y0065172D01*
X0238030Y0065303D01*
X0238161Y0065432D01*
X0238296Y0065557D01*
X0238434Y0065679D01*
X0238575Y0065798D01*
X0238719Y0065913D01*
X0238865Y0066024D01*
X0239014Y0066132D01*
X0239166Y0066236D01*
X0239321Y0066336D01*
X0239477Y0066433D01*
X0239636Y0066526D01*
X0239798Y0066614D01*
X0239961Y0066699D01*
X0240126Y0066780D01*
X0240294Y0066857D01*
X0240463Y0066929D01*
X0240634Y0066997D01*
X0240806Y0067062D01*
X0240980Y0067121D01*
X0241156Y0067177D01*
X0241333Y0067228D01*
X0241511Y0067275D01*
X0241690Y0067318D01*
X0241870Y0067356D01*
X0242051Y0067390D01*
X0242233Y0067419D01*
X0242415Y0067444D01*
X0242598Y0067464D01*
X0242781Y0067480D01*
X0242965Y0067491D01*
X0243149Y0067498D01*
X0243333Y0067500D01*
X0243517Y0067498D01*
X0243701Y0067491D01*
X0243885Y0067480D01*
X0244068Y0067464D01*
X0244251Y0067444D01*
X0244433Y0067419D01*
X0244615Y0067390D01*
X0244796Y0067356D01*
X0244976Y0067318D01*
X0245155Y0067275D01*
X0245333Y0067228D01*
X0245510Y0067177D01*
X0245686Y0067121D01*
X0245860Y0067062D01*
X0246032Y0066997D01*
X0246203Y0066929D01*
X0246372Y0066857D01*
X0246540Y0066780D01*
X0246705Y0066699D01*
X0246868Y0066614D01*
X0247030Y0066526D01*
X0247189Y0066433D01*
X0247345Y0066336D01*
X0247500Y0066236D01*
X0247652Y0066132D01*
X0247801Y0066024D01*
X0247947Y0065913D01*
X0248091Y0065798D01*
X0248232Y0065679D01*
X0248370Y0065557D01*
X0248505Y0065432D01*
X0248636Y0065303D01*
X0248765Y0065172D01*
X0248890Y0065037D01*
X0249012Y0064899D01*
X0249131Y0064758D01*
X0249246Y0064614D01*
X0249357Y0064468D01*
X0249465Y0064319D01*
X0249569Y0064167D01*
X0249669Y0064012D01*
X0249766Y0063856D01*
X0249859Y0063697D01*
X0249947Y0063535D01*
X0250032Y0063372D01*
X0250113Y0063207D01*
X0250190Y0063039D01*
X0250262Y0062870D01*
X0250330Y0062699D01*
X0250395Y0062527D01*
X0250454Y0062353D01*
X0250510Y0062177D01*
X0250561Y0062000D01*
X0250608Y0061822D01*
X0250651Y0061643D01*
X0250689Y0061463D01*
X0250723Y0061282D01*
X0250752Y0061100D01*
X0250777Y0060918D01*
X0250797Y0060735D01*
X0250813Y0060552D01*
X0250824Y0060368D01*
X0250831Y0060184D01*
X0250833Y0060000D01*
X0250831Y0059816D01*
X0250824Y0059632D01*
X0250813Y0059448D01*
X0250797Y0059265D01*
X0250777Y0059082D01*
X0250752Y0058900D01*
X0250723Y0058718D01*
X0250689Y0058537D01*
X0250651Y0058357D01*
X0250608Y0058178D01*
X0250561Y0058000D01*
X0250510Y0057823D01*
X0250454Y0057647D01*
X0250395Y0057473D01*
X0250330Y0057301D01*
X0250262Y0057130D01*
X0250190Y0056961D01*
X0250113Y0056793D01*
X0250032Y0056628D01*
X0249947Y0056465D01*
X0249859Y0056303D01*
X0249766Y0056144D01*
X0249669Y0055988D01*
X0249569Y0055833D01*
X0249465Y0055681D01*
X0249357Y0055532D01*
X0249246Y0055386D01*
X0249131Y0055242D01*
X0249012Y0055101D01*
X0248890Y0054963D01*
X0248765Y0054828D01*
X0248636Y0054697D01*
X0248505Y0054568D01*
X0248370Y0054443D01*
X0248232Y0054321D01*
X0248091Y0054202D01*
X0247947Y0054087D01*
X0247801Y0053976D01*
X0247652Y0053868D01*
X0247500Y0053764D01*
X0247345Y0053664D01*
X0247189Y0053567D01*
X0247030Y0053474D01*
X0246868Y0053386D01*
X0246705Y0053301D01*
X0246540Y0053220D01*
X0246372Y0053143D01*
X0246203Y0053071D01*
X0246032Y0053003D01*
X0245860Y0052938D01*
X0245686Y0052879D01*
X0245510Y0052823D01*
X0245333Y0052772D01*
X0245155Y0052725D01*
X0244976Y0052682D01*
X0244796Y0052644D01*
X0244615Y0052610D01*
X0244433Y0052581D01*
X0244251Y0052556D01*
X0244068Y0052536D01*
X0243885Y0052520D01*
X0243701Y0052509D01*
X0243517Y0052502D01*
X0243333Y0052500D01*
X0243149Y0052502D01*
X0242965Y0052509D01*
X0242781Y0052520D01*
X0242598Y0052536D01*
X0242415Y0052556D01*
X0242233Y0052581D01*
X0242051Y0052610D01*
X0241870Y0052644D01*
X0241690Y0052682D01*
X0241511Y0052725D01*
X0241333Y0052772D01*
X0241156Y0052823D01*
X0240980Y0052879D01*
X0240806Y0052938D01*
X0240634Y0053003D01*
X0240463Y0053071D01*
X0240294Y0053143D01*
X0240126Y0053220D01*
X0239961Y0053301D01*
X0239798Y0053386D01*
X0239636Y0053474D01*
X0239477Y0053567D01*
X0239321Y0053664D01*
X0239166Y0053764D01*
X0239014Y0053868D01*
X0238865Y0053976D01*
X0238719Y0054087D01*
X0238575Y0054202D01*
X0238434Y0054321D01*
X0238296Y0054443D01*
X0238161Y0054568D01*
X0238030Y0054697D01*
X0237901Y0054828D01*
X0237776Y0054963D01*
X0237654Y0055101D01*
X0237535Y0055242D01*
X0237420Y0055386D01*
X0237309Y0055532D01*
X0237201Y0055681D01*
X0237097Y0055833D01*
X0236997Y0055988D01*
X0236900Y0056144D01*
X0236807Y0056303D01*
X0236719Y0056465D01*
X0236634Y0056628D01*
X0236553Y0056793D01*
X0236476Y0056961D01*
X0236404Y0057130D01*
X0236336Y0057301D01*
X0236271Y0057473D01*
X0236212Y0057647D01*
X0236156Y0057823D01*
X0236105Y0058000D01*
X0236058Y0058178D01*
X0236015Y0058357D01*
X0235977Y0058537D01*
X0235943Y0058718D01*
X0235914Y0058900D01*
X0235889Y0059082D01*
X0235869Y0059265D01*
X0235853Y0059448D01*
X0235842Y0059632D01*
X0235835Y0059816D01*
X0235833Y0060000D01*
X0296833Y0055000D02*
X0296835Y0055161D01*
X0296841Y0055321D01*
X0296851Y0055482D01*
X0296865Y0055642D01*
X0296883Y0055802D01*
X0296904Y0055961D01*
X0296930Y0056120D01*
X0296960Y0056278D01*
X0296993Y0056435D01*
X0297031Y0056592D01*
X0297072Y0056747D01*
X0297117Y0056901D01*
X0297166Y0057054D01*
X0297219Y0057206D01*
X0297275Y0057357D01*
X0297336Y0057506D01*
X0297399Y0057654D01*
X0297467Y0057800D01*
X0297538Y0057944D01*
X0297612Y0058086D01*
X0297690Y0058227D01*
X0297772Y0058365D01*
X0297857Y0058502D01*
X0297945Y0058636D01*
X0298037Y0058768D01*
X0298132Y0058898D01*
X0298230Y0059026D01*
X0298331Y0059151D01*
X0298435Y0059273D01*
X0298542Y0059393D01*
X0298652Y0059510D01*
X0298765Y0059625D01*
X0298881Y0059736D01*
X0299000Y0059845D01*
X0299121Y0059950D01*
X0299245Y0060053D01*
X0299371Y0060153D01*
X0299499Y0060249D01*
X0299630Y0060342D01*
X0299764Y0060432D01*
X0299899Y0060519D01*
X0300037Y0060602D01*
X0300176Y0060682D01*
X0300318Y0060758D01*
X0300461Y0060831D01*
X0300606Y0060900D01*
X0300753Y0060966D01*
X0300901Y0061028D01*
X0301051Y0061086D01*
X0301202Y0061141D01*
X0301355Y0061192D01*
X0301509Y0061239D01*
X0301664Y0061282D01*
X0301820Y0061321D01*
X0301976Y0061357D01*
X0302134Y0061388D01*
X0302292Y0061416D01*
X0302451Y0061440D01*
X0302611Y0061460D01*
X0302771Y0061476D01*
X0302931Y0061488D01*
X0303092Y0061496D01*
X0303253Y0061500D01*
X0303413Y0061500D01*
X0303574Y0061496D01*
X0303735Y0061488D01*
X0303895Y0061476D01*
X0304055Y0061460D01*
X0304215Y0061440D01*
X0304374Y0061416D01*
X0304532Y0061388D01*
X0304690Y0061357D01*
X0304846Y0061321D01*
X0305002Y0061282D01*
X0305157Y0061239D01*
X0305311Y0061192D01*
X0305464Y0061141D01*
X0305615Y0061086D01*
X0305765Y0061028D01*
X0305913Y0060966D01*
X0306060Y0060900D01*
X0306205Y0060831D01*
X0306348Y0060758D01*
X0306490Y0060682D01*
X0306629Y0060602D01*
X0306767Y0060519D01*
X0306902Y0060432D01*
X0307036Y0060342D01*
X0307167Y0060249D01*
X0307295Y0060153D01*
X0307421Y0060053D01*
X0307545Y0059950D01*
X0307666Y0059845D01*
X0307785Y0059736D01*
X0307901Y0059625D01*
X0308014Y0059510D01*
X0308124Y0059393D01*
X0308231Y0059273D01*
X0308335Y0059151D01*
X0308436Y0059026D01*
X0308534Y0058898D01*
X0308629Y0058768D01*
X0308721Y0058636D01*
X0308809Y0058502D01*
X0308894Y0058365D01*
X0308976Y0058227D01*
X0309054Y0058086D01*
X0309128Y0057944D01*
X0309199Y0057800D01*
X0309267Y0057654D01*
X0309330Y0057506D01*
X0309391Y0057357D01*
X0309447Y0057206D01*
X0309500Y0057054D01*
X0309549Y0056901D01*
X0309594Y0056747D01*
X0309635Y0056592D01*
X0309673Y0056435D01*
X0309706Y0056278D01*
X0309736Y0056120D01*
X0309762Y0055961D01*
X0309783Y0055802D01*
X0309801Y0055642D01*
X0309815Y0055482D01*
X0309825Y0055321D01*
X0309831Y0055161D01*
X0309833Y0055000D01*
X0309831Y0054839D01*
X0309825Y0054679D01*
X0309815Y0054518D01*
X0309801Y0054358D01*
X0309783Y0054198D01*
X0309762Y0054039D01*
X0309736Y0053880D01*
X0309706Y0053722D01*
X0309673Y0053565D01*
X0309635Y0053408D01*
X0309594Y0053253D01*
X0309549Y0053099D01*
X0309500Y0052946D01*
X0309447Y0052794D01*
X0309391Y0052643D01*
X0309330Y0052494D01*
X0309267Y0052346D01*
X0309199Y0052200D01*
X0309128Y0052056D01*
X0309054Y0051914D01*
X0308976Y0051773D01*
X0308894Y0051635D01*
X0308809Y0051498D01*
X0308721Y0051364D01*
X0308629Y0051232D01*
X0308534Y0051102D01*
X0308436Y0050974D01*
X0308335Y0050849D01*
X0308231Y0050727D01*
X0308124Y0050607D01*
X0308014Y0050490D01*
X0307901Y0050375D01*
X0307785Y0050264D01*
X0307666Y0050155D01*
X0307545Y0050050D01*
X0307421Y0049947D01*
X0307295Y0049847D01*
X0307167Y0049751D01*
X0307036Y0049658D01*
X0306902Y0049568D01*
X0306767Y0049481D01*
X0306629Y0049398D01*
X0306490Y0049318D01*
X0306348Y0049242D01*
X0306205Y0049169D01*
X0306060Y0049100D01*
X0305913Y0049034D01*
X0305765Y0048972D01*
X0305615Y0048914D01*
X0305464Y0048859D01*
X0305311Y0048808D01*
X0305157Y0048761D01*
X0305002Y0048718D01*
X0304846Y0048679D01*
X0304690Y0048643D01*
X0304532Y0048612D01*
X0304374Y0048584D01*
X0304215Y0048560D01*
X0304055Y0048540D01*
X0303895Y0048524D01*
X0303735Y0048512D01*
X0303574Y0048504D01*
X0303413Y0048500D01*
X0303253Y0048500D01*
X0303092Y0048504D01*
X0302931Y0048512D01*
X0302771Y0048524D01*
X0302611Y0048540D01*
X0302451Y0048560D01*
X0302292Y0048584D01*
X0302134Y0048612D01*
X0301976Y0048643D01*
X0301820Y0048679D01*
X0301664Y0048718D01*
X0301509Y0048761D01*
X0301355Y0048808D01*
X0301202Y0048859D01*
X0301051Y0048914D01*
X0300901Y0048972D01*
X0300753Y0049034D01*
X0300606Y0049100D01*
X0300461Y0049169D01*
X0300318Y0049242D01*
X0300176Y0049318D01*
X0300037Y0049398D01*
X0299899Y0049481D01*
X0299764Y0049568D01*
X0299630Y0049658D01*
X0299499Y0049751D01*
X0299371Y0049847D01*
X0299245Y0049947D01*
X0299121Y0050050D01*
X0299000Y0050155D01*
X0298881Y0050264D01*
X0298765Y0050375D01*
X0298652Y0050490D01*
X0298542Y0050607D01*
X0298435Y0050727D01*
X0298331Y0050849D01*
X0298230Y0050974D01*
X0298132Y0051102D01*
X0298037Y0051232D01*
X0297945Y0051364D01*
X0297857Y0051498D01*
X0297772Y0051635D01*
X0297690Y0051773D01*
X0297612Y0051914D01*
X0297538Y0052056D01*
X0297467Y0052200D01*
X0297399Y0052346D01*
X0297336Y0052494D01*
X0297275Y0052643D01*
X0297219Y0052794D01*
X0297166Y0052946D01*
X0297117Y0053099D01*
X0297072Y0053253D01*
X0297031Y0053408D01*
X0296993Y0053565D01*
X0296960Y0053722D01*
X0296930Y0053880D01*
X0296904Y0054039D01*
X0296883Y0054198D01*
X0296865Y0054358D01*
X0296851Y0054518D01*
X0296841Y0054679D01*
X0296835Y0054839D01*
X0296833Y0055000D01*
X0235833Y0165000D02*
X0235835Y0165184D01*
X0235842Y0165368D01*
X0235853Y0165552D01*
X0235869Y0165735D01*
X0235889Y0165918D01*
X0235914Y0166100D01*
X0235943Y0166282D01*
X0235977Y0166463D01*
X0236015Y0166643D01*
X0236058Y0166822D01*
X0236105Y0167000D01*
X0236156Y0167177D01*
X0236212Y0167353D01*
X0236271Y0167527D01*
X0236336Y0167699D01*
X0236404Y0167870D01*
X0236476Y0168039D01*
X0236553Y0168207D01*
X0236634Y0168372D01*
X0236719Y0168535D01*
X0236807Y0168697D01*
X0236900Y0168856D01*
X0236997Y0169012D01*
X0237097Y0169167D01*
X0237201Y0169319D01*
X0237309Y0169468D01*
X0237420Y0169614D01*
X0237535Y0169758D01*
X0237654Y0169899D01*
X0237776Y0170037D01*
X0237901Y0170172D01*
X0238030Y0170303D01*
X0238161Y0170432D01*
X0238296Y0170557D01*
X0238434Y0170679D01*
X0238575Y0170798D01*
X0238719Y0170913D01*
X0238865Y0171024D01*
X0239014Y0171132D01*
X0239166Y0171236D01*
X0239321Y0171336D01*
X0239477Y0171433D01*
X0239636Y0171526D01*
X0239798Y0171614D01*
X0239961Y0171699D01*
X0240126Y0171780D01*
X0240294Y0171857D01*
X0240463Y0171929D01*
X0240634Y0171997D01*
X0240806Y0172062D01*
X0240980Y0172121D01*
X0241156Y0172177D01*
X0241333Y0172228D01*
X0241511Y0172275D01*
X0241690Y0172318D01*
X0241870Y0172356D01*
X0242051Y0172390D01*
X0242233Y0172419D01*
X0242415Y0172444D01*
X0242598Y0172464D01*
X0242781Y0172480D01*
X0242965Y0172491D01*
X0243149Y0172498D01*
X0243333Y0172500D01*
X0243517Y0172498D01*
X0243701Y0172491D01*
X0243885Y0172480D01*
X0244068Y0172464D01*
X0244251Y0172444D01*
X0244433Y0172419D01*
X0244615Y0172390D01*
X0244796Y0172356D01*
X0244976Y0172318D01*
X0245155Y0172275D01*
X0245333Y0172228D01*
X0245510Y0172177D01*
X0245686Y0172121D01*
X0245860Y0172062D01*
X0246032Y0171997D01*
X0246203Y0171929D01*
X0246372Y0171857D01*
X0246540Y0171780D01*
X0246705Y0171699D01*
X0246868Y0171614D01*
X0247030Y0171526D01*
X0247189Y0171433D01*
X0247345Y0171336D01*
X0247500Y0171236D01*
X0247652Y0171132D01*
X0247801Y0171024D01*
X0247947Y0170913D01*
X0248091Y0170798D01*
X0248232Y0170679D01*
X0248370Y0170557D01*
X0248505Y0170432D01*
X0248636Y0170303D01*
X0248765Y0170172D01*
X0248890Y0170037D01*
X0249012Y0169899D01*
X0249131Y0169758D01*
X0249246Y0169614D01*
X0249357Y0169468D01*
X0249465Y0169319D01*
X0249569Y0169167D01*
X0249669Y0169012D01*
X0249766Y0168856D01*
X0249859Y0168697D01*
X0249947Y0168535D01*
X0250032Y0168372D01*
X0250113Y0168207D01*
X0250190Y0168039D01*
X0250262Y0167870D01*
X0250330Y0167699D01*
X0250395Y0167527D01*
X0250454Y0167353D01*
X0250510Y0167177D01*
X0250561Y0167000D01*
X0250608Y0166822D01*
X0250651Y0166643D01*
X0250689Y0166463D01*
X0250723Y0166282D01*
X0250752Y0166100D01*
X0250777Y0165918D01*
X0250797Y0165735D01*
X0250813Y0165552D01*
X0250824Y0165368D01*
X0250831Y0165184D01*
X0250833Y0165000D01*
X0250831Y0164816D01*
X0250824Y0164632D01*
X0250813Y0164448D01*
X0250797Y0164265D01*
X0250777Y0164082D01*
X0250752Y0163900D01*
X0250723Y0163718D01*
X0250689Y0163537D01*
X0250651Y0163357D01*
X0250608Y0163178D01*
X0250561Y0163000D01*
X0250510Y0162823D01*
X0250454Y0162647D01*
X0250395Y0162473D01*
X0250330Y0162301D01*
X0250262Y0162130D01*
X0250190Y0161961D01*
X0250113Y0161793D01*
X0250032Y0161628D01*
X0249947Y0161465D01*
X0249859Y0161303D01*
X0249766Y0161144D01*
X0249669Y0160988D01*
X0249569Y0160833D01*
X0249465Y0160681D01*
X0249357Y0160532D01*
X0249246Y0160386D01*
X0249131Y0160242D01*
X0249012Y0160101D01*
X0248890Y0159963D01*
X0248765Y0159828D01*
X0248636Y0159697D01*
X0248505Y0159568D01*
X0248370Y0159443D01*
X0248232Y0159321D01*
X0248091Y0159202D01*
X0247947Y0159087D01*
X0247801Y0158976D01*
X0247652Y0158868D01*
X0247500Y0158764D01*
X0247345Y0158664D01*
X0247189Y0158567D01*
X0247030Y0158474D01*
X0246868Y0158386D01*
X0246705Y0158301D01*
X0246540Y0158220D01*
X0246372Y0158143D01*
X0246203Y0158071D01*
X0246032Y0158003D01*
X0245860Y0157938D01*
X0245686Y0157879D01*
X0245510Y0157823D01*
X0245333Y0157772D01*
X0245155Y0157725D01*
X0244976Y0157682D01*
X0244796Y0157644D01*
X0244615Y0157610D01*
X0244433Y0157581D01*
X0244251Y0157556D01*
X0244068Y0157536D01*
X0243885Y0157520D01*
X0243701Y0157509D01*
X0243517Y0157502D01*
X0243333Y0157500D01*
X0243149Y0157502D01*
X0242965Y0157509D01*
X0242781Y0157520D01*
X0242598Y0157536D01*
X0242415Y0157556D01*
X0242233Y0157581D01*
X0242051Y0157610D01*
X0241870Y0157644D01*
X0241690Y0157682D01*
X0241511Y0157725D01*
X0241333Y0157772D01*
X0241156Y0157823D01*
X0240980Y0157879D01*
X0240806Y0157938D01*
X0240634Y0158003D01*
X0240463Y0158071D01*
X0240294Y0158143D01*
X0240126Y0158220D01*
X0239961Y0158301D01*
X0239798Y0158386D01*
X0239636Y0158474D01*
X0239477Y0158567D01*
X0239321Y0158664D01*
X0239166Y0158764D01*
X0239014Y0158868D01*
X0238865Y0158976D01*
X0238719Y0159087D01*
X0238575Y0159202D01*
X0238434Y0159321D01*
X0238296Y0159443D01*
X0238161Y0159568D01*
X0238030Y0159697D01*
X0237901Y0159828D01*
X0237776Y0159963D01*
X0237654Y0160101D01*
X0237535Y0160242D01*
X0237420Y0160386D01*
X0237309Y0160532D01*
X0237201Y0160681D01*
X0237097Y0160833D01*
X0236997Y0160988D01*
X0236900Y0161144D01*
X0236807Y0161303D01*
X0236719Y0161465D01*
X0236634Y0161628D01*
X0236553Y0161793D01*
X0236476Y0161961D01*
X0236404Y0162130D01*
X0236336Y0162301D01*
X0236271Y0162473D01*
X0236212Y0162647D01*
X0236156Y0162823D01*
X0236105Y0163000D01*
X0236058Y0163178D01*
X0236015Y0163357D01*
X0235977Y0163537D01*
X0235943Y0163718D01*
X0235914Y0163900D01*
X0235889Y0164082D01*
X0235869Y0164265D01*
X0235853Y0164448D01*
X0235842Y0164632D01*
X0235835Y0164816D01*
X0235833Y0165000D01*
X0296833Y0210000D02*
X0296835Y0210161D01*
X0296841Y0210321D01*
X0296851Y0210482D01*
X0296865Y0210642D01*
X0296883Y0210802D01*
X0296904Y0210961D01*
X0296930Y0211120D01*
X0296960Y0211278D01*
X0296993Y0211435D01*
X0297031Y0211592D01*
X0297072Y0211747D01*
X0297117Y0211901D01*
X0297166Y0212054D01*
X0297219Y0212206D01*
X0297275Y0212357D01*
X0297336Y0212506D01*
X0297399Y0212654D01*
X0297467Y0212800D01*
X0297538Y0212944D01*
X0297612Y0213086D01*
X0297690Y0213227D01*
X0297772Y0213365D01*
X0297857Y0213502D01*
X0297945Y0213636D01*
X0298037Y0213768D01*
X0298132Y0213898D01*
X0298230Y0214026D01*
X0298331Y0214151D01*
X0298435Y0214273D01*
X0298542Y0214393D01*
X0298652Y0214510D01*
X0298765Y0214625D01*
X0298881Y0214736D01*
X0299000Y0214845D01*
X0299121Y0214950D01*
X0299245Y0215053D01*
X0299371Y0215153D01*
X0299499Y0215249D01*
X0299630Y0215342D01*
X0299764Y0215432D01*
X0299899Y0215519D01*
X0300037Y0215602D01*
X0300176Y0215682D01*
X0300318Y0215758D01*
X0300461Y0215831D01*
X0300606Y0215900D01*
X0300753Y0215966D01*
X0300901Y0216028D01*
X0301051Y0216086D01*
X0301202Y0216141D01*
X0301355Y0216192D01*
X0301509Y0216239D01*
X0301664Y0216282D01*
X0301820Y0216321D01*
X0301976Y0216357D01*
X0302134Y0216388D01*
X0302292Y0216416D01*
X0302451Y0216440D01*
X0302611Y0216460D01*
X0302771Y0216476D01*
X0302931Y0216488D01*
X0303092Y0216496D01*
X0303253Y0216500D01*
X0303413Y0216500D01*
X0303574Y0216496D01*
X0303735Y0216488D01*
X0303895Y0216476D01*
X0304055Y0216460D01*
X0304215Y0216440D01*
X0304374Y0216416D01*
X0304532Y0216388D01*
X0304690Y0216357D01*
X0304846Y0216321D01*
X0305002Y0216282D01*
X0305157Y0216239D01*
X0305311Y0216192D01*
X0305464Y0216141D01*
X0305615Y0216086D01*
X0305765Y0216028D01*
X0305913Y0215966D01*
X0306060Y0215900D01*
X0306205Y0215831D01*
X0306348Y0215758D01*
X0306490Y0215682D01*
X0306629Y0215602D01*
X0306767Y0215519D01*
X0306902Y0215432D01*
X0307036Y0215342D01*
X0307167Y0215249D01*
X0307295Y0215153D01*
X0307421Y0215053D01*
X0307545Y0214950D01*
X0307666Y0214845D01*
X0307785Y0214736D01*
X0307901Y0214625D01*
X0308014Y0214510D01*
X0308124Y0214393D01*
X0308231Y0214273D01*
X0308335Y0214151D01*
X0308436Y0214026D01*
X0308534Y0213898D01*
X0308629Y0213768D01*
X0308721Y0213636D01*
X0308809Y0213502D01*
X0308894Y0213365D01*
X0308976Y0213227D01*
X0309054Y0213086D01*
X0309128Y0212944D01*
X0309199Y0212800D01*
X0309267Y0212654D01*
X0309330Y0212506D01*
X0309391Y0212357D01*
X0309447Y0212206D01*
X0309500Y0212054D01*
X0309549Y0211901D01*
X0309594Y0211747D01*
X0309635Y0211592D01*
X0309673Y0211435D01*
X0309706Y0211278D01*
X0309736Y0211120D01*
X0309762Y0210961D01*
X0309783Y0210802D01*
X0309801Y0210642D01*
X0309815Y0210482D01*
X0309825Y0210321D01*
X0309831Y0210161D01*
X0309833Y0210000D01*
X0309831Y0209839D01*
X0309825Y0209679D01*
X0309815Y0209518D01*
X0309801Y0209358D01*
X0309783Y0209198D01*
X0309762Y0209039D01*
X0309736Y0208880D01*
X0309706Y0208722D01*
X0309673Y0208565D01*
X0309635Y0208408D01*
X0309594Y0208253D01*
X0309549Y0208099D01*
X0309500Y0207946D01*
X0309447Y0207794D01*
X0309391Y0207643D01*
X0309330Y0207494D01*
X0309267Y0207346D01*
X0309199Y0207200D01*
X0309128Y0207056D01*
X0309054Y0206914D01*
X0308976Y0206773D01*
X0308894Y0206635D01*
X0308809Y0206498D01*
X0308721Y0206364D01*
X0308629Y0206232D01*
X0308534Y0206102D01*
X0308436Y0205974D01*
X0308335Y0205849D01*
X0308231Y0205727D01*
X0308124Y0205607D01*
X0308014Y0205490D01*
X0307901Y0205375D01*
X0307785Y0205264D01*
X0307666Y0205155D01*
X0307545Y0205050D01*
X0307421Y0204947D01*
X0307295Y0204847D01*
X0307167Y0204751D01*
X0307036Y0204658D01*
X0306902Y0204568D01*
X0306767Y0204481D01*
X0306629Y0204398D01*
X0306490Y0204318D01*
X0306348Y0204242D01*
X0306205Y0204169D01*
X0306060Y0204100D01*
X0305913Y0204034D01*
X0305765Y0203972D01*
X0305615Y0203914D01*
X0305464Y0203859D01*
X0305311Y0203808D01*
X0305157Y0203761D01*
X0305002Y0203718D01*
X0304846Y0203679D01*
X0304690Y0203643D01*
X0304532Y0203612D01*
X0304374Y0203584D01*
X0304215Y0203560D01*
X0304055Y0203540D01*
X0303895Y0203524D01*
X0303735Y0203512D01*
X0303574Y0203504D01*
X0303413Y0203500D01*
X0303253Y0203500D01*
X0303092Y0203504D01*
X0302931Y0203512D01*
X0302771Y0203524D01*
X0302611Y0203540D01*
X0302451Y0203560D01*
X0302292Y0203584D01*
X0302134Y0203612D01*
X0301976Y0203643D01*
X0301820Y0203679D01*
X0301664Y0203718D01*
X0301509Y0203761D01*
X0301355Y0203808D01*
X0301202Y0203859D01*
X0301051Y0203914D01*
X0300901Y0203972D01*
X0300753Y0204034D01*
X0300606Y0204100D01*
X0300461Y0204169D01*
X0300318Y0204242D01*
X0300176Y0204318D01*
X0300037Y0204398D01*
X0299899Y0204481D01*
X0299764Y0204568D01*
X0299630Y0204658D01*
X0299499Y0204751D01*
X0299371Y0204847D01*
X0299245Y0204947D01*
X0299121Y0205050D01*
X0299000Y0205155D01*
X0298881Y0205264D01*
X0298765Y0205375D01*
X0298652Y0205490D01*
X0298542Y0205607D01*
X0298435Y0205727D01*
X0298331Y0205849D01*
X0298230Y0205974D01*
X0298132Y0206102D01*
X0298037Y0206232D01*
X0297945Y0206364D01*
X0297857Y0206498D01*
X0297772Y0206635D01*
X0297690Y0206773D01*
X0297612Y0206914D01*
X0297538Y0207056D01*
X0297467Y0207200D01*
X0297399Y0207346D01*
X0297336Y0207494D01*
X0297275Y0207643D01*
X0297219Y0207794D01*
X0297166Y0207946D01*
X0297117Y0208099D01*
X0297072Y0208253D01*
X0297031Y0208408D01*
X0296993Y0208565D01*
X0296960Y0208722D01*
X0296930Y0208880D01*
X0296904Y0209039D01*
X0296883Y0209198D01*
X0296865Y0209358D01*
X0296851Y0209518D01*
X0296841Y0209679D01*
X0296835Y0209839D01*
X0296833Y0210000D01*
X0130833Y0165000D02*
X0130835Y0165184D01*
X0130842Y0165368D01*
X0130853Y0165552D01*
X0130869Y0165735D01*
X0130889Y0165918D01*
X0130914Y0166100D01*
X0130943Y0166282D01*
X0130977Y0166463D01*
X0131015Y0166643D01*
X0131058Y0166822D01*
X0131105Y0167000D01*
X0131156Y0167177D01*
X0131212Y0167353D01*
X0131271Y0167527D01*
X0131336Y0167699D01*
X0131404Y0167870D01*
X0131476Y0168039D01*
X0131553Y0168207D01*
X0131634Y0168372D01*
X0131719Y0168535D01*
X0131807Y0168697D01*
X0131900Y0168856D01*
X0131997Y0169012D01*
X0132097Y0169167D01*
X0132201Y0169319D01*
X0132309Y0169468D01*
X0132420Y0169614D01*
X0132535Y0169758D01*
X0132654Y0169899D01*
X0132776Y0170037D01*
X0132901Y0170172D01*
X0133030Y0170303D01*
X0133161Y0170432D01*
X0133296Y0170557D01*
X0133434Y0170679D01*
X0133575Y0170798D01*
X0133719Y0170913D01*
X0133865Y0171024D01*
X0134014Y0171132D01*
X0134166Y0171236D01*
X0134321Y0171336D01*
X0134477Y0171433D01*
X0134636Y0171526D01*
X0134798Y0171614D01*
X0134961Y0171699D01*
X0135126Y0171780D01*
X0135294Y0171857D01*
X0135463Y0171929D01*
X0135634Y0171997D01*
X0135806Y0172062D01*
X0135980Y0172121D01*
X0136156Y0172177D01*
X0136333Y0172228D01*
X0136511Y0172275D01*
X0136690Y0172318D01*
X0136870Y0172356D01*
X0137051Y0172390D01*
X0137233Y0172419D01*
X0137415Y0172444D01*
X0137598Y0172464D01*
X0137781Y0172480D01*
X0137965Y0172491D01*
X0138149Y0172498D01*
X0138333Y0172500D01*
X0138517Y0172498D01*
X0138701Y0172491D01*
X0138885Y0172480D01*
X0139068Y0172464D01*
X0139251Y0172444D01*
X0139433Y0172419D01*
X0139615Y0172390D01*
X0139796Y0172356D01*
X0139976Y0172318D01*
X0140155Y0172275D01*
X0140333Y0172228D01*
X0140510Y0172177D01*
X0140686Y0172121D01*
X0140860Y0172062D01*
X0141032Y0171997D01*
X0141203Y0171929D01*
X0141372Y0171857D01*
X0141540Y0171780D01*
X0141705Y0171699D01*
X0141868Y0171614D01*
X0142030Y0171526D01*
X0142189Y0171433D01*
X0142345Y0171336D01*
X0142500Y0171236D01*
X0142652Y0171132D01*
X0142801Y0171024D01*
X0142947Y0170913D01*
X0143091Y0170798D01*
X0143232Y0170679D01*
X0143370Y0170557D01*
X0143505Y0170432D01*
X0143636Y0170303D01*
X0143765Y0170172D01*
X0143890Y0170037D01*
X0144012Y0169899D01*
X0144131Y0169758D01*
X0144246Y0169614D01*
X0144357Y0169468D01*
X0144465Y0169319D01*
X0144569Y0169167D01*
X0144669Y0169012D01*
X0144766Y0168856D01*
X0144859Y0168697D01*
X0144947Y0168535D01*
X0145032Y0168372D01*
X0145113Y0168207D01*
X0145190Y0168039D01*
X0145262Y0167870D01*
X0145330Y0167699D01*
X0145395Y0167527D01*
X0145454Y0167353D01*
X0145510Y0167177D01*
X0145561Y0167000D01*
X0145608Y0166822D01*
X0145651Y0166643D01*
X0145689Y0166463D01*
X0145723Y0166282D01*
X0145752Y0166100D01*
X0145777Y0165918D01*
X0145797Y0165735D01*
X0145813Y0165552D01*
X0145824Y0165368D01*
X0145831Y0165184D01*
X0145833Y0165000D01*
X0145831Y0164816D01*
X0145824Y0164632D01*
X0145813Y0164448D01*
X0145797Y0164265D01*
X0145777Y0164082D01*
X0145752Y0163900D01*
X0145723Y0163718D01*
X0145689Y0163537D01*
X0145651Y0163357D01*
X0145608Y0163178D01*
X0145561Y0163000D01*
X0145510Y0162823D01*
X0145454Y0162647D01*
X0145395Y0162473D01*
X0145330Y0162301D01*
X0145262Y0162130D01*
X0145190Y0161961D01*
X0145113Y0161793D01*
X0145032Y0161628D01*
X0144947Y0161465D01*
X0144859Y0161303D01*
X0144766Y0161144D01*
X0144669Y0160988D01*
X0144569Y0160833D01*
X0144465Y0160681D01*
X0144357Y0160532D01*
X0144246Y0160386D01*
X0144131Y0160242D01*
X0144012Y0160101D01*
X0143890Y0159963D01*
X0143765Y0159828D01*
X0143636Y0159697D01*
X0143505Y0159568D01*
X0143370Y0159443D01*
X0143232Y0159321D01*
X0143091Y0159202D01*
X0142947Y0159087D01*
X0142801Y0158976D01*
X0142652Y0158868D01*
X0142500Y0158764D01*
X0142345Y0158664D01*
X0142189Y0158567D01*
X0142030Y0158474D01*
X0141868Y0158386D01*
X0141705Y0158301D01*
X0141540Y0158220D01*
X0141372Y0158143D01*
X0141203Y0158071D01*
X0141032Y0158003D01*
X0140860Y0157938D01*
X0140686Y0157879D01*
X0140510Y0157823D01*
X0140333Y0157772D01*
X0140155Y0157725D01*
X0139976Y0157682D01*
X0139796Y0157644D01*
X0139615Y0157610D01*
X0139433Y0157581D01*
X0139251Y0157556D01*
X0139068Y0157536D01*
X0138885Y0157520D01*
X0138701Y0157509D01*
X0138517Y0157502D01*
X0138333Y0157500D01*
X0138149Y0157502D01*
X0137965Y0157509D01*
X0137781Y0157520D01*
X0137598Y0157536D01*
X0137415Y0157556D01*
X0137233Y0157581D01*
X0137051Y0157610D01*
X0136870Y0157644D01*
X0136690Y0157682D01*
X0136511Y0157725D01*
X0136333Y0157772D01*
X0136156Y0157823D01*
X0135980Y0157879D01*
X0135806Y0157938D01*
X0135634Y0158003D01*
X0135463Y0158071D01*
X0135294Y0158143D01*
X0135126Y0158220D01*
X0134961Y0158301D01*
X0134798Y0158386D01*
X0134636Y0158474D01*
X0134477Y0158567D01*
X0134321Y0158664D01*
X0134166Y0158764D01*
X0134014Y0158868D01*
X0133865Y0158976D01*
X0133719Y0159087D01*
X0133575Y0159202D01*
X0133434Y0159321D01*
X0133296Y0159443D01*
X0133161Y0159568D01*
X0133030Y0159697D01*
X0132901Y0159828D01*
X0132776Y0159963D01*
X0132654Y0160101D01*
X0132535Y0160242D01*
X0132420Y0160386D01*
X0132309Y0160532D01*
X0132201Y0160681D01*
X0132097Y0160833D01*
X0131997Y0160988D01*
X0131900Y0161144D01*
X0131807Y0161303D01*
X0131719Y0161465D01*
X0131634Y0161628D01*
X0131553Y0161793D01*
X0131476Y0161961D01*
X0131404Y0162130D01*
X0131336Y0162301D01*
X0131271Y0162473D01*
X0131212Y0162647D01*
X0131156Y0162823D01*
X0131105Y0163000D01*
X0131058Y0163178D01*
X0131015Y0163357D01*
X0130977Y0163537D01*
X0130943Y0163718D01*
X0130914Y0163900D01*
X0130889Y0164082D01*
X0130869Y0164265D01*
X0130853Y0164448D01*
X0130842Y0164632D01*
X0130835Y0164816D01*
X0130833Y0165000D01*
X0011833Y0210000D02*
X0011835Y0210161D01*
X0011841Y0210321D01*
X0011851Y0210482D01*
X0011865Y0210642D01*
X0011883Y0210802D01*
X0011904Y0210961D01*
X0011930Y0211120D01*
X0011960Y0211278D01*
X0011993Y0211435D01*
X0012031Y0211592D01*
X0012072Y0211747D01*
X0012117Y0211901D01*
X0012166Y0212054D01*
X0012219Y0212206D01*
X0012275Y0212357D01*
X0012336Y0212506D01*
X0012399Y0212654D01*
X0012467Y0212800D01*
X0012538Y0212944D01*
X0012612Y0213086D01*
X0012690Y0213227D01*
X0012772Y0213365D01*
X0012857Y0213502D01*
X0012945Y0213636D01*
X0013037Y0213768D01*
X0013132Y0213898D01*
X0013230Y0214026D01*
X0013331Y0214151D01*
X0013435Y0214273D01*
X0013542Y0214393D01*
X0013652Y0214510D01*
X0013765Y0214625D01*
X0013881Y0214736D01*
X0014000Y0214845D01*
X0014121Y0214950D01*
X0014245Y0215053D01*
X0014371Y0215153D01*
X0014499Y0215249D01*
X0014630Y0215342D01*
X0014764Y0215432D01*
X0014899Y0215519D01*
X0015037Y0215602D01*
X0015176Y0215682D01*
X0015318Y0215758D01*
X0015461Y0215831D01*
X0015606Y0215900D01*
X0015753Y0215966D01*
X0015901Y0216028D01*
X0016051Y0216086D01*
X0016202Y0216141D01*
X0016355Y0216192D01*
X0016509Y0216239D01*
X0016664Y0216282D01*
X0016820Y0216321D01*
X0016976Y0216357D01*
X0017134Y0216388D01*
X0017292Y0216416D01*
X0017451Y0216440D01*
X0017611Y0216460D01*
X0017771Y0216476D01*
X0017931Y0216488D01*
X0018092Y0216496D01*
X0018253Y0216500D01*
X0018413Y0216500D01*
X0018574Y0216496D01*
X0018735Y0216488D01*
X0018895Y0216476D01*
X0019055Y0216460D01*
X0019215Y0216440D01*
X0019374Y0216416D01*
X0019532Y0216388D01*
X0019690Y0216357D01*
X0019846Y0216321D01*
X0020002Y0216282D01*
X0020157Y0216239D01*
X0020311Y0216192D01*
X0020464Y0216141D01*
X0020615Y0216086D01*
X0020765Y0216028D01*
X0020913Y0215966D01*
X0021060Y0215900D01*
X0021205Y0215831D01*
X0021348Y0215758D01*
X0021490Y0215682D01*
X0021629Y0215602D01*
X0021767Y0215519D01*
X0021902Y0215432D01*
X0022036Y0215342D01*
X0022167Y0215249D01*
X0022295Y0215153D01*
X0022421Y0215053D01*
X0022545Y0214950D01*
X0022666Y0214845D01*
X0022785Y0214736D01*
X0022901Y0214625D01*
X0023014Y0214510D01*
X0023124Y0214393D01*
X0023231Y0214273D01*
X0023335Y0214151D01*
X0023436Y0214026D01*
X0023534Y0213898D01*
X0023629Y0213768D01*
X0023721Y0213636D01*
X0023809Y0213502D01*
X0023894Y0213365D01*
X0023976Y0213227D01*
X0024054Y0213086D01*
X0024128Y0212944D01*
X0024199Y0212800D01*
X0024267Y0212654D01*
X0024330Y0212506D01*
X0024391Y0212357D01*
X0024447Y0212206D01*
X0024500Y0212054D01*
X0024549Y0211901D01*
X0024594Y0211747D01*
X0024635Y0211592D01*
X0024673Y0211435D01*
X0024706Y0211278D01*
X0024736Y0211120D01*
X0024762Y0210961D01*
X0024783Y0210802D01*
X0024801Y0210642D01*
X0024815Y0210482D01*
X0024825Y0210321D01*
X0024831Y0210161D01*
X0024833Y0210000D01*
X0024831Y0209839D01*
X0024825Y0209679D01*
X0024815Y0209518D01*
X0024801Y0209358D01*
X0024783Y0209198D01*
X0024762Y0209039D01*
X0024736Y0208880D01*
X0024706Y0208722D01*
X0024673Y0208565D01*
X0024635Y0208408D01*
X0024594Y0208253D01*
X0024549Y0208099D01*
X0024500Y0207946D01*
X0024447Y0207794D01*
X0024391Y0207643D01*
X0024330Y0207494D01*
X0024267Y0207346D01*
X0024199Y0207200D01*
X0024128Y0207056D01*
X0024054Y0206914D01*
X0023976Y0206773D01*
X0023894Y0206635D01*
X0023809Y0206498D01*
X0023721Y0206364D01*
X0023629Y0206232D01*
X0023534Y0206102D01*
X0023436Y0205974D01*
X0023335Y0205849D01*
X0023231Y0205727D01*
X0023124Y0205607D01*
X0023014Y0205490D01*
X0022901Y0205375D01*
X0022785Y0205264D01*
X0022666Y0205155D01*
X0022545Y0205050D01*
X0022421Y0204947D01*
X0022295Y0204847D01*
X0022167Y0204751D01*
X0022036Y0204658D01*
X0021902Y0204568D01*
X0021767Y0204481D01*
X0021629Y0204398D01*
X0021490Y0204318D01*
X0021348Y0204242D01*
X0021205Y0204169D01*
X0021060Y0204100D01*
X0020913Y0204034D01*
X0020765Y0203972D01*
X0020615Y0203914D01*
X0020464Y0203859D01*
X0020311Y0203808D01*
X0020157Y0203761D01*
X0020002Y0203718D01*
X0019846Y0203679D01*
X0019690Y0203643D01*
X0019532Y0203612D01*
X0019374Y0203584D01*
X0019215Y0203560D01*
X0019055Y0203540D01*
X0018895Y0203524D01*
X0018735Y0203512D01*
X0018574Y0203504D01*
X0018413Y0203500D01*
X0018253Y0203500D01*
X0018092Y0203504D01*
X0017931Y0203512D01*
X0017771Y0203524D01*
X0017611Y0203540D01*
X0017451Y0203560D01*
X0017292Y0203584D01*
X0017134Y0203612D01*
X0016976Y0203643D01*
X0016820Y0203679D01*
X0016664Y0203718D01*
X0016509Y0203761D01*
X0016355Y0203808D01*
X0016202Y0203859D01*
X0016051Y0203914D01*
X0015901Y0203972D01*
X0015753Y0204034D01*
X0015606Y0204100D01*
X0015461Y0204169D01*
X0015318Y0204242D01*
X0015176Y0204318D01*
X0015037Y0204398D01*
X0014899Y0204481D01*
X0014764Y0204568D01*
X0014630Y0204658D01*
X0014499Y0204751D01*
X0014371Y0204847D01*
X0014245Y0204947D01*
X0014121Y0205050D01*
X0014000Y0205155D01*
X0013881Y0205264D01*
X0013765Y0205375D01*
X0013652Y0205490D01*
X0013542Y0205607D01*
X0013435Y0205727D01*
X0013331Y0205849D01*
X0013230Y0205974D01*
X0013132Y0206102D01*
X0013037Y0206232D01*
X0012945Y0206364D01*
X0012857Y0206498D01*
X0012772Y0206635D01*
X0012690Y0206773D01*
X0012612Y0206914D01*
X0012538Y0207056D01*
X0012467Y0207200D01*
X0012399Y0207346D01*
X0012336Y0207494D01*
X0012275Y0207643D01*
X0012219Y0207794D01*
X0012166Y0207946D01*
X0012117Y0208099D01*
X0012072Y0208253D01*
X0012031Y0208408D01*
X0011993Y0208565D01*
X0011960Y0208722D01*
X0011930Y0208880D01*
X0011904Y0209039D01*
X0011883Y0209198D01*
X0011865Y0209358D01*
X0011851Y0209518D01*
X0011841Y0209679D01*
X0011835Y0209839D01*
X0011833Y0210000D01*
D11*
X0043333Y0160000D03*
X0043333Y0120000D03*
X0103333Y0120000D03*
X0133333Y0150000D03*
X0103333Y0160000D03*
D12*
X0103333Y0150000D03*
X0103333Y0140000D03*
X0103333Y0130000D03*
X0103333Y0110000D03*
X0103333Y0100000D03*
X0103333Y0090000D03*
X0133333Y0120000D03*
X0133333Y0130000D03*
X0133333Y0140000D03*
X0043333Y0140000D03*
X0043333Y0130000D03*
X0043333Y0110000D03*
X0043333Y0100000D03*
X0043333Y0090000D03*
X0043333Y0150000D03*
X0228333Y0147500D03*
X0228333Y0137500D03*
X0228333Y0127500D03*
X0228333Y0117500D03*
X0228333Y0107500D03*
X0228333Y0097500D03*
X0248333Y0097500D03*
X0248333Y0087500D03*
X0248333Y0077500D03*
X0248333Y0107500D03*
X0248333Y0117500D03*
X0248333Y0127500D03*
X0248333Y0137500D03*
X0248333Y0147500D03*
X0228333Y0157500D03*
D13*
X0269199Y0130000D03*
X0277467Y0130000D03*
X0277467Y0115000D03*
X0269199Y0115000D03*
X0269199Y0100000D03*
X0277467Y0100000D03*
X0277467Y0085000D03*
X0269199Y0085000D03*
D14*
X0294593Y0085000D03*
X0302073Y0085000D03*
X0302073Y0100000D03*
X0294593Y0100000D03*
X0294593Y0115000D03*
X0302073Y0115000D03*
X0302073Y0130000D03*
X0294593Y0130000D03*
D15*
X0238833Y0205000D03*
X0237833Y0215000D03*
X0238833Y0225000D03*
X0198833Y0225000D03*
X0197833Y0215000D03*
X0198833Y0205000D03*
X0158833Y0205000D03*
X0157833Y0215000D03*
X0158833Y0225000D03*
X0118833Y0225000D03*
X0117833Y0215000D03*
X0118833Y0205000D03*
X0078833Y0205000D03*
X0077833Y0215000D03*
X0078833Y0225000D03*
D16*
X0078533Y0224940D02*
X0004633Y0224940D01*
X0004633Y0225539D02*
X0073856Y0225539D01*
X0073833Y0225394D02*
X0073833Y0225300D01*
X0078533Y0225300D01*
X0078533Y0224700D01*
X0073833Y0224700D01*
X0073833Y0224606D01*
X0073956Y0223829D01*
X0074200Y0223081D01*
X0074557Y0222379D01*
X0075020Y0221743D01*
X0075576Y0221186D01*
X0076213Y0220724D01*
X0076914Y0220366D01*
X0077662Y0220123D01*
X0078440Y0220000D01*
X0078533Y0220000D01*
X0078533Y0224700D01*
X0079133Y0224700D01*
X0079133Y0220000D01*
X0079227Y0220000D01*
X0080004Y0220123D01*
X0080753Y0220366D01*
X0081454Y0220724D01*
X0082091Y0221186D01*
X0082647Y0221743D01*
X0083110Y0222379D01*
X0083467Y0223081D01*
X0083710Y0223829D01*
X0083833Y0224606D01*
X0083833Y0224700D01*
X0079133Y0224700D01*
X0079133Y0225300D01*
X0078533Y0225300D01*
X0078533Y0230000D01*
X0078440Y0230000D01*
X0077662Y0229877D01*
X0076914Y0229634D01*
X0076213Y0229276D01*
X0075576Y0228814D01*
X0075020Y0228257D01*
X0074557Y0227621D01*
X0074200Y0226919D01*
X0073956Y0226171D01*
X0073833Y0225394D01*
X0073951Y0226137D02*
X0004633Y0226137D01*
X0004633Y0226736D02*
X0074140Y0226736D01*
X0074411Y0227334D02*
X0004633Y0227334D01*
X0004633Y0227933D02*
X0074784Y0227933D01*
X0075293Y0228531D02*
X0004633Y0228531D01*
X0004633Y0229130D02*
X0076011Y0229130D01*
X0077205Y0229728D02*
X0004633Y0229728D01*
X0004633Y0230327D02*
X0317033Y0230327D01*
X0317033Y0230925D02*
X0004633Y0230925D01*
X0004633Y0231524D02*
X0317033Y0231524D01*
X0317033Y0232122D02*
X0004633Y0232122D01*
X0004633Y0232721D02*
X0317033Y0232721D01*
X0317033Y0233319D02*
X0004633Y0233319D01*
X0004633Y0233918D02*
X0317033Y0233918D01*
X0317033Y0234516D02*
X0004633Y0234516D01*
X0004633Y0235115D02*
X0317033Y0235115D01*
X0317033Y0235713D02*
X0004633Y0235713D01*
X0004633Y0236312D02*
X0317033Y0236312D01*
X0317033Y0236910D02*
X0004633Y0236910D01*
X0004633Y0237509D02*
X0317033Y0237509D01*
X0317033Y0238107D02*
X0004633Y0238107D01*
X0004633Y0238706D02*
X0317033Y0238706D01*
X0317033Y0239304D02*
X0004633Y0239304D01*
X0004633Y0239903D02*
X0317033Y0239903D01*
X0317033Y0240501D02*
X0004633Y0240501D01*
X0004633Y0241100D02*
X0317033Y0241100D01*
X0317033Y0241698D02*
X0004633Y0241698D01*
X0004633Y0242297D02*
X0317033Y0242297D01*
X0317033Y0242895D02*
X0004633Y0242895D01*
X0004633Y0243494D02*
X0317033Y0243494D01*
X0317033Y0244092D02*
X0004633Y0244092D01*
X0004633Y0244691D02*
X0317033Y0244691D01*
X0317033Y0245289D02*
X0004633Y0245289D01*
X0004633Y0245888D02*
X0317033Y0245888D01*
X0317033Y0246486D02*
X0004633Y0246486D01*
X0004633Y0247085D02*
X0317033Y0247085D01*
X0317033Y0247683D02*
X0004633Y0247683D01*
X0004633Y0248282D02*
X0317033Y0248282D01*
X0317033Y0248700D02*
X0004633Y0248700D01*
X0004633Y0041300D01*
X0317033Y0041300D01*
X0317033Y0248700D01*
X0317033Y0229728D02*
X0240462Y0229728D01*
X0240753Y0229634D02*
X0240004Y0229877D01*
X0239227Y0230000D01*
X0239133Y0230000D01*
X0239133Y0225300D01*
X0238533Y0225300D01*
X0238533Y0224700D01*
X0233833Y0224700D01*
X0233833Y0224606D01*
X0233956Y0223829D01*
X0234200Y0223081D01*
X0234557Y0222379D01*
X0235020Y0221743D01*
X0235576Y0221186D01*
X0236213Y0220724D01*
X0236914Y0220366D01*
X0237662Y0220123D01*
X0238440Y0220000D01*
X0238533Y0220000D01*
X0238533Y0224700D01*
X0239133Y0224700D01*
X0239133Y0220000D01*
X0239227Y0220000D01*
X0240004Y0220123D01*
X0240753Y0220366D01*
X0241454Y0220724D01*
X0242091Y0221186D01*
X0242647Y0221743D01*
X0243110Y0222379D01*
X0243467Y0223081D01*
X0243710Y0223829D01*
X0243833Y0224606D01*
X0243833Y0224700D01*
X0239133Y0224700D01*
X0239133Y0225300D01*
X0243833Y0225300D01*
X0243833Y0225394D01*
X0243710Y0226171D01*
X0243467Y0226919D01*
X0243110Y0227621D01*
X0242647Y0228257D01*
X0242091Y0228814D01*
X0241454Y0229276D01*
X0240753Y0229634D01*
X0241656Y0229130D02*
X0317033Y0229130D01*
X0317033Y0228531D02*
X0242373Y0228531D01*
X0242883Y0227933D02*
X0317033Y0227933D01*
X0317033Y0227334D02*
X0243256Y0227334D01*
X0243527Y0226736D02*
X0317033Y0226736D01*
X0317033Y0226137D02*
X0243716Y0226137D01*
X0243810Y0225539D02*
X0317033Y0225539D01*
X0317033Y0224940D02*
X0239133Y0224940D01*
X0239133Y0225539D02*
X0238533Y0225539D01*
X0238533Y0225300D02*
X0238533Y0230000D01*
X0238440Y0230000D01*
X0237662Y0229877D01*
X0236914Y0229634D01*
X0236213Y0229276D01*
X0235576Y0228814D01*
X0235020Y0228257D01*
X0234557Y0227621D01*
X0234200Y0226919D01*
X0233956Y0226171D01*
X0233833Y0225394D01*
X0233833Y0225300D01*
X0238533Y0225300D01*
X0238533Y0224940D02*
X0199133Y0224940D01*
X0199133Y0224700D02*
X0199133Y0225300D01*
X0198533Y0225300D01*
X0198533Y0224700D01*
X0193833Y0224700D01*
X0193833Y0224606D01*
X0193956Y0223829D01*
X0194200Y0223081D01*
X0194557Y0222379D01*
X0195020Y0221743D01*
X0195576Y0221186D01*
X0196213Y0220724D01*
X0196914Y0220366D01*
X0197662Y0220123D01*
X0198440Y0220000D01*
X0198533Y0220000D01*
X0198533Y0224700D01*
X0199133Y0224700D01*
X0199133Y0220000D01*
X0199227Y0220000D01*
X0200004Y0220123D01*
X0200753Y0220366D01*
X0201454Y0220724D01*
X0202091Y0221186D01*
X0202647Y0221743D01*
X0203110Y0222379D01*
X0203467Y0223081D01*
X0203710Y0223829D01*
X0203833Y0224606D01*
X0203833Y0224700D01*
X0199133Y0224700D01*
X0199133Y0224341D02*
X0198533Y0224341D01*
X0198533Y0223743D02*
X0199133Y0223743D01*
X0199133Y0223144D02*
X0198533Y0223144D01*
X0198533Y0222546D02*
X0199133Y0222546D01*
X0199133Y0221947D02*
X0198533Y0221947D01*
X0198533Y0221349D02*
X0199133Y0221349D01*
X0199133Y0220750D02*
X0198533Y0220750D01*
X0198533Y0220152D02*
X0199133Y0220152D01*
X0198861Y0219553D02*
X0236806Y0219553D01*
X0236918Y0219600D02*
X0235228Y0218900D01*
X0234728Y0218400D01*
X0200939Y0218400D01*
X0200439Y0218900D01*
X0198748Y0219600D01*
X0196918Y0219600D01*
X0195228Y0218900D01*
X0194728Y0218400D01*
X0160939Y0218400D01*
X0160439Y0218900D01*
X0158748Y0219600D01*
X0156918Y0219600D01*
X0155228Y0218900D01*
X0154728Y0218400D01*
X0120939Y0218400D01*
X0120439Y0218900D01*
X0118748Y0219600D01*
X0116918Y0219600D01*
X0115228Y0218900D01*
X0114728Y0218400D01*
X0080939Y0218400D01*
X0080439Y0218900D01*
X0078748Y0219600D01*
X0076918Y0219600D01*
X0075228Y0218900D01*
X0074728Y0218400D01*
X0072657Y0218400D01*
X0071407Y0217882D01*
X0070451Y0216926D01*
X0060451Y0206926D01*
X0059933Y0205676D01*
X0059933Y0164324D01*
X0060451Y0163074D01*
X0061407Y0162118D01*
X0061407Y0162118D01*
X0076407Y0147118D01*
X0077657Y0146600D01*
X0101350Y0146600D01*
X0102331Y0146194D01*
X0104990Y0143535D01*
X0104109Y0143900D01*
X0102558Y0143900D01*
X0101124Y0143306D01*
X0100027Y0142209D01*
X0099433Y0140776D01*
X0099433Y0139224D01*
X0100027Y0137791D01*
X0101124Y0136694D01*
X0102331Y0136194D01*
X0104990Y0133535D01*
X0104109Y0133900D01*
X0102558Y0133900D01*
X0101124Y0133306D01*
X0100027Y0132209D01*
X0099433Y0130776D01*
X0099433Y0129224D01*
X0100027Y0127791D01*
X0101124Y0126694D01*
X0102331Y0126194D01*
X0104625Y0123900D01*
X0099961Y0123900D01*
X0099433Y0123373D01*
X0099433Y0116627D01*
X0099961Y0116100D01*
X0106706Y0116100D01*
X0107233Y0116627D01*
X0107233Y0121676D01*
X0145991Y0082918D01*
X0147241Y0082400D01*
X0233856Y0082400D01*
X0235106Y0082918D01*
X0236062Y0083874D01*
X0241959Y0089771D01*
X0242916Y0090728D01*
X0243433Y0091977D01*
X0243433Y0107792D01*
X0244798Y0109157D01*
X0244433Y0108276D01*
X0244433Y0106724D01*
X0245027Y0105291D01*
X0246124Y0104194D01*
X0247558Y0103600D01*
X0249109Y0103600D01*
X0249990Y0103965D01*
X0247331Y0101306D01*
X0246124Y0100806D01*
X0245027Y0099709D01*
X0244433Y0098276D01*
X0244433Y0096724D01*
X0245027Y0095291D01*
X0246124Y0094194D01*
X0247558Y0093600D01*
X0249109Y0093600D01*
X0250542Y0094194D01*
X0251640Y0095291D01*
X0252140Y0096498D01*
X0267242Y0111600D01*
X0269876Y0111600D01*
X0270208Y0111738D01*
X0271934Y0111738D01*
X0272462Y0112265D01*
X0272462Y0113991D01*
X0272599Y0114324D01*
X0272599Y0115676D01*
X0272462Y0116009D01*
X0272462Y0117735D01*
X0271934Y0118262D01*
X0270208Y0118262D01*
X0269876Y0118400D01*
X0265157Y0118400D01*
X0263907Y0117882D01*
X0251868Y0105843D01*
X0252233Y0106724D01*
X0252233Y0107965D01*
X0257316Y0113047D01*
X0257500Y0113492D01*
X0270746Y0126738D01*
X0271934Y0126738D01*
X0272462Y0127265D01*
X0272462Y0128991D01*
X0272599Y0129324D01*
X0272599Y0130676D01*
X0272462Y0131009D01*
X0272462Y0132735D01*
X0271934Y0133262D01*
X0270208Y0133262D01*
X0269876Y0133400D01*
X0268523Y0133400D01*
X0268191Y0133262D01*
X0266464Y0133262D01*
X0265937Y0132735D01*
X0265937Y0131546D01*
X0252233Y0117842D01*
X0252233Y0118276D01*
X0251640Y0119709D01*
X0250542Y0120806D01*
X0249109Y0121400D01*
X0247558Y0121400D01*
X0246677Y0121035D01*
X0249335Y0123694D01*
X0250542Y0124194D01*
X0251640Y0125291D01*
X0252233Y0126724D01*
X0252233Y0128276D01*
X0251640Y0129709D01*
X0250542Y0130806D01*
X0249109Y0131400D01*
X0247558Y0131400D01*
X0246124Y0130806D01*
X0245027Y0129709D01*
X0244527Y0128502D01*
X0232507Y0116482D01*
X0231868Y0115843D01*
X0232233Y0116724D01*
X0232233Y0118276D01*
X0231640Y0119709D01*
X0230542Y0120806D01*
X0229335Y0121306D01*
X0226677Y0123965D01*
X0227558Y0123600D01*
X0229109Y0123600D01*
X0230542Y0124194D01*
X0231640Y0125291D01*
X0232233Y0126724D01*
X0232233Y0128276D01*
X0231640Y0129709D01*
X0230542Y0130806D01*
X0229335Y0131306D01*
X0226677Y0133965D01*
X0227558Y0133600D01*
X0229109Y0133600D01*
X0230542Y0134194D01*
X0231640Y0135291D01*
X0232233Y0136724D01*
X0232233Y0138276D01*
X0231733Y0139483D01*
X0231733Y0139550D01*
X0231216Y0140799D01*
X0228415Y0143600D01*
X0229109Y0143600D01*
X0230542Y0144194D01*
X0231640Y0145291D01*
X0232233Y0146724D01*
X0232233Y0148276D01*
X0231640Y0149709D01*
X0230542Y0150806D01*
X0229109Y0151400D01*
X0227558Y0151400D01*
X0226124Y0150806D01*
X0225633Y0150315D01*
X0225633Y0154685D01*
X0226124Y0154194D01*
X0227558Y0153600D01*
X0229109Y0153600D01*
X0230542Y0154194D01*
X0231640Y0155291D01*
X0232233Y0156724D01*
X0232233Y0158276D01*
X0231640Y0159709D01*
X0230542Y0160806D01*
X0229109Y0161400D01*
X0227558Y0161400D01*
X0226124Y0160806D01*
X0225633Y0160315D01*
X0225633Y0186992D01*
X0239042Y0200400D01*
X0239748Y0200400D01*
X0241439Y0201100D01*
X0242733Y0202394D01*
X0243433Y0204085D01*
X0243433Y0205915D01*
X0242733Y0207606D01*
X0241439Y0208900D01*
X0239748Y0209600D01*
X0237918Y0209600D01*
X0236228Y0208900D01*
X0234934Y0207606D01*
X0234233Y0205915D01*
X0234233Y0205208D01*
X0220307Y0191282D01*
X0219351Y0190326D01*
X0218833Y0189076D01*
X0218833Y0144297D01*
X0219351Y0143047D01*
X0220307Y0142091D01*
X0224433Y0137965D01*
X0224433Y0136724D01*
X0224798Y0135843D01*
X0202233Y0158408D01*
X0202233Y0201895D01*
X0202733Y0202394D01*
X0203433Y0204085D01*
X0203433Y0205915D01*
X0202733Y0207606D01*
X0201439Y0208900D01*
X0199748Y0209600D01*
X0197918Y0209600D01*
X0196228Y0208900D01*
X0194934Y0207606D01*
X0194233Y0205915D01*
X0194233Y0204085D01*
X0194934Y0202394D01*
X0195433Y0201895D01*
X0195433Y0156324D01*
X0195951Y0155074D01*
X0224527Y0126498D01*
X0224798Y0125843D01*
X0162233Y0188408D01*
X0162233Y0201895D01*
X0162733Y0202394D01*
X0163433Y0204085D01*
X0163433Y0205915D01*
X0162733Y0207606D01*
X0161439Y0208900D01*
X0159748Y0209600D01*
X0157918Y0209600D01*
X0156228Y0208900D01*
X0154934Y0207606D01*
X0154233Y0205915D01*
X0154233Y0204085D01*
X0154934Y0202394D01*
X0155433Y0201895D01*
X0155433Y0186324D01*
X0155951Y0185074D01*
X0224527Y0116498D01*
X0224798Y0115843D01*
X0132759Y0207882D01*
X0131510Y0208400D01*
X0121939Y0208400D01*
X0121439Y0208900D01*
X0119748Y0209600D01*
X0117918Y0209600D01*
X0116228Y0208900D01*
X0114934Y0207606D01*
X0114233Y0205915D01*
X0114233Y0204085D01*
X0114934Y0202394D01*
X0116228Y0201100D01*
X0117918Y0200400D01*
X0119748Y0200400D01*
X0121439Y0201100D01*
X0121939Y0201600D01*
X0129425Y0201600D01*
X0224527Y0106498D01*
X0225027Y0105291D01*
X0226124Y0104194D01*
X0227558Y0103600D01*
X0229109Y0103600D01*
X0230542Y0104194D01*
X0231033Y0104685D01*
X0231033Y0100315D01*
X0230542Y0100806D01*
X0229335Y0101306D01*
X0227759Y0102882D01*
X0226510Y0103400D01*
X0204742Y0103400D01*
X0155733Y0152408D01*
X0155733Y0171475D01*
X0155216Y0172725D01*
X0154259Y0173681D01*
X0147015Y0180926D01*
X0146058Y0181882D01*
X0144809Y0182400D01*
X0125742Y0182400D01*
X0100259Y0207882D01*
X0099010Y0208400D01*
X0081939Y0208400D01*
X0081439Y0208900D01*
X0079748Y0209600D01*
X0077918Y0209600D01*
X0076228Y0208900D01*
X0074934Y0207606D01*
X0074233Y0205915D01*
X0074233Y0204085D01*
X0074934Y0202394D01*
X0076228Y0201100D01*
X0077918Y0200400D01*
X0079748Y0200400D01*
X0081439Y0201100D01*
X0081939Y0201600D01*
X0096925Y0201600D01*
X0121451Y0177074D01*
X0122407Y0176118D01*
X0123657Y0175600D01*
X0142724Y0175600D01*
X0148933Y0169391D01*
X0148933Y0150324D01*
X0149451Y0149074D01*
X0150407Y0148118D01*
X0200451Y0098074D01*
X0201407Y0097118D01*
X0202657Y0096600D01*
X0224425Y0096600D01*
X0224527Y0096498D01*
X0225027Y0095291D01*
X0225518Y0094800D01*
X0153342Y0094800D01*
X0131677Y0116465D01*
X0132558Y0116100D01*
X0134109Y0116100D01*
X0135542Y0116694D01*
X0136640Y0117791D01*
X0137233Y0119224D01*
X0137233Y0120776D01*
X0136640Y0122209D01*
X0135542Y0123306D01*
X0134109Y0123900D01*
X0132558Y0123900D01*
X0131124Y0123306D01*
X0130027Y0122209D01*
X0129433Y0120776D01*
X0129433Y0119224D01*
X0129798Y0118343D01*
X0107140Y0141002D01*
X0106868Y0141657D01*
X0111407Y0137118D01*
X0112657Y0136600D01*
X0131350Y0136600D01*
X0132558Y0136100D01*
X0134109Y0136100D01*
X0135542Y0136694D01*
X0136640Y0137791D01*
X0137233Y0139224D01*
X0137233Y0140776D01*
X0136640Y0142209D01*
X0135542Y0143306D01*
X0134109Y0143900D01*
X0132558Y0143900D01*
X0131350Y0143400D01*
X0114742Y0143400D01*
X0107140Y0151002D01*
X0106640Y0152209D01*
X0105542Y0153306D01*
X0104109Y0153900D01*
X0102558Y0153900D01*
X0101350Y0153400D01*
X0079742Y0153400D01*
X0066733Y0166408D01*
X0066733Y0203592D01*
X0074735Y0211593D01*
X0075228Y0211100D01*
X0076918Y0210400D01*
X0078748Y0210400D01*
X0080439Y0211100D01*
X0080939Y0211600D01*
X0114728Y0211600D01*
X0115228Y0211100D01*
X0116918Y0210400D01*
X0118748Y0210400D01*
X0120439Y0211100D01*
X0120939Y0211600D01*
X0154728Y0211600D01*
X0155228Y0211100D01*
X0156918Y0210400D01*
X0158748Y0210400D01*
X0160439Y0211100D01*
X0160939Y0211600D01*
X0194728Y0211600D01*
X0195228Y0211100D01*
X0196918Y0210400D01*
X0198748Y0210400D01*
X0200439Y0211100D01*
X0200939Y0211600D01*
X0234728Y0211600D01*
X0235228Y0211100D01*
X0236918Y0210400D01*
X0238748Y0210400D01*
X0240439Y0211100D01*
X0240939Y0211600D01*
X0256925Y0211600D01*
X0264933Y0203592D01*
X0264933Y0151408D01*
X0256925Y0143400D01*
X0250157Y0143400D01*
X0248907Y0142882D01*
X0247331Y0141306D01*
X0246124Y0140806D01*
X0245027Y0139709D01*
X0244433Y0138276D01*
X0244433Y0136724D01*
X0245027Y0135291D01*
X0246124Y0134194D01*
X0247558Y0133600D01*
X0249109Y0133600D01*
X0250542Y0134194D01*
X0251640Y0135291D01*
X0252140Y0136498D01*
X0252242Y0136600D01*
X0259010Y0136600D01*
X0260259Y0137118D01*
X0261216Y0138074D01*
X0271216Y0148074D01*
X0271733Y0149324D01*
X0271733Y0205676D01*
X0271216Y0206926D01*
X0270259Y0207882D01*
X0260259Y0217882D01*
X0259010Y0218400D01*
X0240939Y0218400D01*
X0240439Y0218900D01*
X0238748Y0219600D01*
X0236918Y0219600D01*
X0237574Y0220152D02*
X0200093Y0220152D01*
X0200306Y0218955D02*
X0235361Y0218955D01*
X0236176Y0220750D02*
X0201491Y0220750D01*
X0202253Y0221349D02*
X0235413Y0221349D01*
X0234871Y0221947D02*
X0202796Y0221947D01*
X0203195Y0222546D02*
X0234472Y0222546D01*
X0234179Y0223144D02*
X0203488Y0223144D01*
X0203682Y0223743D02*
X0233984Y0223743D01*
X0233875Y0224341D02*
X0203791Y0224341D01*
X0203833Y0225300D02*
X0203833Y0225394D01*
X0203710Y0226171D01*
X0203467Y0226919D01*
X0203110Y0227621D01*
X0202647Y0228257D01*
X0202091Y0228814D01*
X0201454Y0229276D01*
X0200753Y0229634D01*
X0200004Y0229877D01*
X0199227Y0230000D01*
X0199133Y0230000D01*
X0199133Y0225300D01*
X0203833Y0225300D01*
X0203810Y0225539D02*
X0233856Y0225539D01*
X0233951Y0226137D02*
X0203716Y0226137D01*
X0203527Y0226736D02*
X0234140Y0226736D01*
X0234411Y0227334D02*
X0203256Y0227334D01*
X0202883Y0227933D02*
X0234784Y0227933D01*
X0235293Y0228531D02*
X0202373Y0228531D01*
X0201656Y0229130D02*
X0236011Y0229130D01*
X0237205Y0229728D02*
X0200462Y0229728D01*
X0199133Y0229728D02*
X0198533Y0229728D01*
X0198533Y0230000D02*
X0198440Y0230000D01*
X0197662Y0229877D01*
X0196914Y0229634D01*
X0196213Y0229276D01*
X0195576Y0228814D01*
X0195020Y0228257D01*
X0194557Y0227621D01*
X0194200Y0226919D01*
X0193956Y0226171D01*
X0193833Y0225394D01*
X0193833Y0225300D01*
X0198533Y0225300D01*
X0198533Y0230000D01*
X0198533Y0229130D02*
X0199133Y0229130D01*
X0199133Y0228531D02*
X0198533Y0228531D01*
X0198533Y0227933D02*
X0199133Y0227933D01*
X0199133Y0227334D02*
X0198533Y0227334D01*
X0198533Y0226736D02*
X0199133Y0226736D01*
X0199133Y0226137D02*
X0198533Y0226137D01*
X0198533Y0225539D02*
X0199133Y0225539D01*
X0198533Y0224940D02*
X0159133Y0224940D01*
X0159133Y0224700D02*
X0159133Y0225300D01*
X0158533Y0225300D01*
X0158533Y0224700D01*
X0153833Y0224700D01*
X0153833Y0224606D01*
X0153956Y0223829D01*
X0154200Y0223081D01*
X0154557Y0222379D01*
X0155020Y0221743D01*
X0155576Y0221186D01*
X0156213Y0220724D01*
X0156914Y0220366D01*
X0157662Y0220123D01*
X0158440Y0220000D01*
X0158533Y0220000D01*
X0158533Y0224700D01*
X0159133Y0224700D01*
X0159133Y0220000D01*
X0159227Y0220000D01*
X0160004Y0220123D01*
X0160753Y0220366D01*
X0161454Y0220724D01*
X0162091Y0221186D01*
X0162647Y0221743D01*
X0163110Y0222379D01*
X0163467Y0223081D01*
X0163710Y0223829D01*
X0163833Y0224606D01*
X0163833Y0224700D01*
X0159133Y0224700D01*
X0159133Y0224341D02*
X0158533Y0224341D01*
X0158533Y0223743D02*
X0159133Y0223743D01*
X0159133Y0223144D02*
X0158533Y0223144D01*
X0158533Y0222546D02*
X0159133Y0222546D01*
X0159133Y0221947D02*
X0158533Y0221947D01*
X0158533Y0221349D02*
X0159133Y0221349D01*
X0159133Y0220750D02*
X0158533Y0220750D01*
X0158533Y0220152D02*
X0159133Y0220152D01*
X0158861Y0219553D02*
X0196806Y0219553D01*
X0197574Y0220152D02*
X0160093Y0220152D01*
X0160306Y0218955D02*
X0195361Y0218955D01*
X0196176Y0220750D02*
X0161491Y0220750D01*
X0162253Y0221349D02*
X0195413Y0221349D01*
X0194871Y0221947D02*
X0162796Y0221947D01*
X0163195Y0222546D02*
X0194472Y0222546D01*
X0194179Y0223144D02*
X0163488Y0223144D01*
X0163682Y0223743D02*
X0193984Y0223743D01*
X0193875Y0224341D02*
X0163791Y0224341D01*
X0163833Y0225300D02*
X0163833Y0225394D01*
X0163710Y0226171D01*
X0163467Y0226919D01*
X0163110Y0227621D01*
X0162647Y0228257D01*
X0162091Y0228814D01*
X0161454Y0229276D01*
X0160753Y0229634D01*
X0160004Y0229877D01*
X0159227Y0230000D01*
X0159133Y0230000D01*
X0159133Y0225300D01*
X0163833Y0225300D01*
X0163810Y0225539D02*
X0193856Y0225539D01*
X0193951Y0226137D02*
X0163716Y0226137D01*
X0163527Y0226736D02*
X0194140Y0226736D01*
X0194411Y0227334D02*
X0163256Y0227334D01*
X0162883Y0227933D02*
X0194784Y0227933D01*
X0195293Y0228531D02*
X0162373Y0228531D01*
X0161656Y0229130D02*
X0196011Y0229130D01*
X0197205Y0229728D02*
X0160462Y0229728D01*
X0159133Y0229728D02*
X0158533Y0229728D01*
X0158533Y0230000D02*
X0158440Y0230000D01*
X0157662Y0229877D01*
X0156914Y0229634D01*
X0156213Y0229276D01*
X0155576Y0228814D01*
X0155020Y0228257D01*
X0154557Y0227621D01*
X0154200Y0226919D01*
X0153956Y0226171D01*
X0153833Y0225394D01*
X0153833Y0225300D01*
X0158533Y0225300D01*
X0158533Y0230000D01*
X0158533Y0229130D02*
X0159133Y0229130D01*
X0159133Y0228531D02*
X0158533Y0228531D01*
X0158533Y0227933D02*
X0159133Y0227933D01*
X0159133Y0227334D02*
X0158533Y0227334D01*
X0158533Y0226736D02*
X0159133Y0226736D01*
X0159133Y0226137D02*
X0158533Y0226137D01*
X0158533Y0225539D02*
X0159133Y0225539D01*
X0158533Y0224940D02*
X0119133Y0224940D01*
X0119133Y0224700D02*
X0119133Y0225300D01*
X0118533Y0225300D01*
X0118533Y0224700D01*
X0113833Y0224700D01*
X0113833Y0224606D01*
X0113956Y0223829D01*
X0114200Y0223081D01*
X0114557Y0222379D01*
X0115020Y0221743D01*
X0115576Y0221186D01*
X0116213Y0220724D01*
X0116914Y0220366D01*
X0117662Y0220123D01*
X0118440Y0220000D01*
X0118533Y0220000D01*
X0118533Y0224700D01*
X0119133Y0224700D01*
X0119133Y0220000D01*
X0119227Y0220000D01*
X0120004Y0220123D01*
X0120753Y0220366D01*
X0121454Y0220724D01*
X0122091Y0221186D01*
X0122647Y0221743D01*
X0123110Y0222379D01*
X0123467Y0223081D01*
X0123710Y0223829D01*
X0123833Y0224606D01*
X0123833Y0224700D01*
X0119133Y0224700D01*
X0119133Y0224341D02*
X0118533Y0224341D01*
X0118533Y0223743D02*
X0119133Y0223743D01*
X0119133Y0223144D02*
X0118533Y0223144D01*
X0118533Y0222546D02*
X0119133Y0222546D01*
X0119133Y0221947D02*
X0118533Y0221947D01*
X0118533Y0221349D02*
X0119133Y0221349D01*
X0119133Y0220750D02*
X0118533Y0220750D01*
X0118533Y0220152D02*
X0119133Y0220152D01*
X0118861Y0219553D02*
X0156806Y0219553D01*
X0157574Y0220152D02*
X0120093Y0220152D01*
X0120306Y0218955D02*
X0155361Y0218955D01*
X0156176Y0220750D02*
X0121491Y0220750D01*
X0122253Y0221349D02*
X0155413Y0221349D01*
X0154871Y0221947D02*
X0122796Y0221947D01*
X0123195Y0222546D02*
X0154472Y0222546D01*
X0154179Y0223144D02*
X0123488Y0223144D01*
X0123682Y0223743D02*
X0153984Y0223743D01*
X0153875Y0224341D02*
X0123791Y0224341D01*
X0123833Y0225300D02*
X0123833Y0225394D01*
X0123710Y0226171D01*
X0123467Y0226919D01*
X0123110Y0227621D01*
X0122647Y0228257D01*
X0122091Y0228814D01*
X0121454Y0229276D01*
X0120753Y0229634D01*
X0120004Y0229877D01*
X0119227Y0230000D01*
X0119133Y0230000D01*
X0119133Y0225300D01*
X0123833Y0225300D01*
X0123810Y0225539D02*
X0153856Y0225539D01*
X0153951Y0226137D02*
X0123716Y0226137D01*
X0123527Y0226736D02*
X0154140Y0226736D01*
X0154411Y0227334D02*
X0123256Y0227334D01*
X0122883Y0227933D02*
X0154784Y0227933D01*
X0155293Y0228531D02*
X0122373Y0228531D01*
X0121656Y0229130D02*
X0156011Y0229130D01*
X0157205Y0229728D02*
X0120462Y0229728D01*
X0119133Y0229728D02*
X0118533Y0229728D01*
X0118533Y0230000D02*
X0118440Y0230000D01*
X0117662Y0229877D01*
X0116914Y0229634D01*
X0116213Y0229276D01*
X0115576Y0228814D01*
X0115020Y0228257D01*
X0114557Y0227621D01*
X0114200Y0226919D01*
X0113956Y0226171D01*
X0113833Y0225394D01*
X0113833Y0225300D01*
X0118533Y0225300D01*
X0118533Y0230000D01*
X0118533Y0229130D02*
X0119133Y0229130D01*
X0119133Y0228531D02*
X0118533Y0228531D01*
X0118533Y0227933D02*
X0119133Y0227933D01*
X0119133Y0227334D02*
X0118533Y0227334D01*
X0118533Y0226736D02*
X0119133Y0226736D01*
X0119133Y0226137D02*
X0118533Y0226137D01*
X0118533Y0225539D02*
X0119133Y0225539D01*
X0118533Y0224940D02*
X0079133Y0224940D01*
X0079133Y0225300D02*
X0083833Y0225300D01*
X0083833Y0225394D01*
X0083710Y0226171D01*
X0083467Y0226919D01*
X0083110Y0227621D01*
X0082647Y0228257D01*
X0082091Y0228814D01*
X0081454Y0229276D01*
X0080753Y0229634D01*
X0080004Y0229877D01*
X0079227Y0230000D01*
X0079133Y0230000D01*
X0079133Y0225300D01*
X0079133Y0225539D02*
X0078533Y0225539D01*
X0078533Y0226137D02*
X0079133Y0226137D01*
X0079133Y0226736D02*
X0078533Y0226736D01*
X0078533Y0227334D02*
X0079133Y0227334D01*
X0079133Y0227933D02*
X0078533Y0227933D01*
X0078533Y0228531D02*
X0079133Y0228531D01*
X0079133Y0229130D02*
X0078533Y0229130D01*
X0078533Y0229728D02*
X0079133Y0229728D01*
X0080462Y0229728D02*
X0117205Y0229728D01*
X0116011Y0229130D02*
X0081656Y0229130D01*
X0082373Y0228531D02*
X0115293Y0228531D01*
X0114784Y0227933D02*
X0082883Y0227933D01*
X0083256Y0227334D02*
X0114411Y0227334D01*
X0114140Y0226736D02*
X0083527Y0226736D01*
X0083716Y0226137D02*
X0113951Y0226137D01*
X0113856Y0225539D02*
X0083810Y0225539D01*
X0083791Y0224341D02*
X0113875Y0224341D01*
X0113984Y0223743D02*
X0083682Y0223743D01*
X0083488Y0223144D02*
X0114179Y0223144D01*
X0114472Y0222546D02*
X0083195Y0222546D01*
X0082796Y0221947D02*
X0114871Y0221947D01*
X0115413Y0221349D02*
X0082253Y0221349D01*
X0081491Y0220750D02*
X0116176Y0220750D01*
X0116806Y0219553D02*
X0078861Y0219553D01*
X0079133Y0220152D02*
X0078533Y0220152D01*
X0078533Y0220750D02*
X0079133Y0220750D01*
X0079133Y0221349D02*
X0078533Y0221349D01*
X0078533Y0221947D02*
X0079133Y0221947D01*
X0079133Y0222546D02*
X0078533Y0222546D01*
X0078533Y0223144D02*
X0079133Y0223144D01*
X0079133Y0223743D02*
X0078533Y0223743D01*
X0078533Y0224341D02*
X0079133Y0224341D01*
X0075413Y0221349D02*
X0004633Y0221349D01*
X0004633Y0221947D02*
X0074871Y0221947D01*
X0074472Y0222546D02*
X0004633Y0222546D01*
X0004633Y0223144D02*
X0074179Y0223144D01*
X0073984Y0223743D02*
X0004633Y0223743D01*
X0004633Y0224341D02*
X0073875Y0224341D01*
X0076176Y0220750D02*
X0004633Y0220750D01*
X0004633Y0220152D02*
X0077574Y0220152D01*
X0076806Y0219553D02*
X0004633Y0219553D01*
X0004633Y0218955D02*
X0075361Y0218955D01*
X0072552Y0218356D02*
X0004633Y0218356D01*
X0004633Y0217758D02*
X0016157Y0217758D01*
X0016742Y0218000D02*
X0013802Y0216782D01*
X0013802Y0216782D01*
X0011551Y0214532D01*
X0011551Y0214532D01*
X0010333Y0211591D01*
X0010333Y0208409D01*
X0011551Y0205468D01*
X0013802Y0203218D01*
X0016742Y0202000D01*
X0018623Y0202000D01*
X0019925Y0202000D01*
X0022865Y0203218D01*
X0025115Y0205468D01*
X0026333Y0208409D01*
X0026333Y0211591D01*
X0025115Y0214532D01*
X0022865Y0216782D01*
X0022865Y0216782D01*
X0019925Y0218000D01*
X0016742Y0218000D01*
X0014713Y0217159D02*
X0004633Y0217159D01*
X0004633Y0216561D02*
X0013580Y0216561D01*
X0012982Y0215962D02*
X0004633Y0215962D01*
X0004633Y0215364D02*
X0012383Y0215364D01*
X0011785Y0214765D02*
X0004633Y0214765D01*
X0004633Y0214167D02*
X0011400Y0214167D01*
X0011152Y0213568D02*
X0004633Y0213568D01*
X0004633Y0212970D02*
X0010904Y0212970D01*
X0010656Y0212371D02*
X0004633Y0212371D01*
X0004633Y0211773D02*
X0010408Y0211773D01*
X0010333Y0211174D02*
X0004633Y0211174D01*
X0004633Y0210576D02*
X0010333Y0210576D01*
X0010333Y0209977D02*
X0004633Y0209977D01*
X0004633Y0209379D02*
X0010333Y0209379D01*
X0010333Y0208780D02*
X0004633Y0208780D01*
X0004633Y0208182D02*
X0010427Y0208182D01*
X0010675Y0207583D02*
X0004633Y0207583D01*
X0004633Y0206985D02*
X0010923Y0206985D01*
X0011171Y0206386D02*
X0004633Y0206386D01*
X0004633Y0205788D02*
X0011419Y0205788D01*
X0011551Y0205468D02*
X0011551Y0205468D01*
X0011830Y0205189D02*
X0004633Y0205189D01*
X0004633Y0204591D02*
X0012429Y0204591D01*
X0013028Y0203992D02*
X0004633Y0203992D01*
X0004633Y0203394D02*
X0013626Y0203394D01*
X0013802Y0203218D02*
X0013802Y0203218D01*
X0014823Y0202795D02*
X0004633Y0202795D01*
X0004633Y0202197D02*
X0016267Y0202197D01*
X0019925Y0202000D02*
X0019925Y0202000D01*
X0020399Y0202197D02*
X0059933Y0202197D01*
X0059933Y0202795D02*
X0021844Y0202795D01*
X0022865Y0203218D02*
X0022865Y0203218D01*
X0023041Y0203394D02*
X0059933Y0203394D01*
X0059933Y0203992D02*
X0023639Y0203992D01*
X0024238Y0204591D02*
X0059933Y0204591D01*
X0059933Y0205189D02*
X0024836Y0205189D01*
X0025115Y0205468D02*
X0025115Y0205468D01*
X0025248Y0205788D02*
X0059979Y0205788D01*
X0060227Y0206386D02*
X0025496Y0206386D01*
X0025743Y0206985D02*
X0060510Y0206985D01*
X0061108Y0207583D02*
X0025991Y0207583D01*
X0026239Y0208182D02*
X0061707Y0208182D01*
X0062305Y0208780D02*
X0026333Y0208780D01*
X0026333Y0209379D02*
X0062904Y0209379D01*
X0063502Y0209977D02*
X0026333Y0209977D01*
X0026333Y0210576D02*
X0064101Y0210576D01*
X0064699Y0211174D02*
X0026333Y0211174D01*
X0026258Y0211773D02*
X0065298Y0211773D01*
X0065896Y0212371D02*
X0026010Y0212371D01*
X0025762Y0212970D02*
X0066495Y0212970D01*
X0067093Y0213568D02*
X0025514Y0213568D01*
X0025267Y0214167D02*
X0067692Y0214167D01*
X0068290Y0214765D02*
X0024882Y0214765D01*
X0025115Y0214532D02*
X0025115Y0214532D01*
X0024283Y0215364D02*
X0068889Y0215364D01*
X0069487Y0215962D02*
X0023685Y0215962D01*
X0023086Y0216561D02*
X0070086Y0216561D01*
X0070684Y0217159D02*
X0021954Y0217159D01*
X0020509Y0217758D02*
X0071283Y0217758D01*
X0074316Y0211174D02*
X0075154Y0211174D01*
X0076494Y0210576D02*
X0073717Y0210576D01*
X0073119Y0209977D02*
X0258548Y0209977D01*
X0259146Y0209379D02*
X0240283Y0209379D01*
X0241559Y0208780D02*
X0259745Y0208780D01*
X0260343Y0208182D02*
X0242157Y0208182D01*
X0242742Y0207583D02*
X0260942Y0207583D01*
X0261540Y0206985D02*
X0242990Y0206985D01*
X0243238Y0206386D02*
X0262139Y0206386D01*
X0262737Y0205788D02*
X0243433Y0205788D01*
X0243433Y0205189D02*
X0263336Y0205189D01*
X0263934Y0204591D02*
X0243433Y0204591D01*
X0243395Y0203992D02*
X0264533Y0203992D01*
X0264933Y0203394D02*
X0243147Y0203394D01*
X0242899Y0202795D02*
X0264933Y0202795D01*
X0264933Y0202197D02*
X0242535Y0202197D01*
X0241937Y0201598D02*
X0264933Y0201598D01*
X0264933Y0201000D02*
X0241196Y0201000D01*
X0239751Y0200401D02*
X0264933Y0200401D01*
X0264933Y0199803D02*
X0238444Y0199803D01*
X0237846Y0199204D02*
X0264933Y0199204D01*
X0264933Y0198605D02*
X0237247Y0198605D01*
X0236649Y0198007D02*
X0264933Y0198007D01*
X0264933Y0197408D02*
X0236050Y0197408D01*
X0235452Y0196810D02*
X0264933Y0196810D01*
X0264933Y0196211D02*
X0234853Y0196211D01*
X0234255Y0195613D02*
X0264933Y0195613D01*
X0264933Y0195014D02*
X0233656Y0195014D01*
X0233058Y0194416D02*
X0264933Y0194416D01*
X0264933Y0193817D02*
X0232459Y0193817D01*
X0231861Y0193219D02*
X0264933Y0193219D01*
X0264933Y0192620D02*
X0231262Y0192620D01*
X0230664Y0192022D02*
X0264933Y0192022D01*
X0264933Y0191423D02*
X0230065Y0191423D01*
X0229466Y0190825D02*
X0264933Y0190825D01*
X0264933Y0190226D02*
X0228868Y0190226D01*
X0228269Y0189628D02*
X0264933Y0189628D01*
X0264933Y0189029D02*
X0227671Y0189029D01*
X0227072Y0188431D02*
X0264933Y0188431D01*
X0264933Y0187832D02*
X0226474Y0187832D01*
X0225875Y0187234D02*
X0264933Y0187234D01*
X0264933Y0186635D02*
X0225633Y0186635D01*
X0225633Y0186037D02*
X0264933Y0186037D01*
X0264933Y0185438D02*
X0225633Y0185438D01*
X0225633Y0184840D02*
X0264933Y0184840D01*
X0264933Y0184241D02*
X0225633Y0184241D01*
X0225633Y0183643D02*
X0264933Y0183643D01*
X0264933Y0183044D02*
X0225633Y0183044D01*
X0225633Y0182446D02*
X0264933Y0182446D01*
X0264933Y0181847D02*
X0225633Y0181847D01*
X0225633Y0181249D02*
X0264933Y0181249D01*
X0264933Y0180650D02*
X0225633Y0180650D01*
X0225633Y0180052D02*
X0264933Y0180052D01*
X0264933Y0179453D02*
X0225633Y0179453D01*
X0225633Y0178855D02*
X0264933Y0178855D01*
X0264933Y0178256D02*
X0225633Y0178256D01*
X0225633Y0177658D02*
X0264933Y0177658D01*
X0264933Y0177059D02*
X0225633Y0177059D01*
X0225633Y0176461D02*
X0264933Y0176461D01*
X0264933Y0175862D02*
X0225633Y0175862D01*
X0225633Y0175264D02*
X0264933Y0175264D01*
X0264933Y0174665D02*
X0225633Y0174665D01*
X0225633Y0174067D02*
X0264933Y0174067D01*
X0264933Y0173468D02*
X0245885Y0173468D01*
X0245084Y0173800D02*
X0241583Y0173800D01*
X0238349Y0172460D01*
X0235873Y0169985D01*
X0234533Y0166750D01*
X0234533Y0163250D01*
X0235873Y0160015D01*
X0238349Y0157540D01*
X0241583Y0156200D01*
X0245084Y0156200D01*
X0248318Y0157540D01*
X0250794Y0160015D01*
X0252133Y0163250D01*
X0252133Y0166750D01*
X0250794Y0169985D01*
X0248318Y0172460D01*
X0245084Y0173800D01*
X0247330Y0172870D02*
X0264933Y0172870D01*
X0264933Y0172271D02*
X0248507Y0172271D01*
X0249106Y0171672D02*
X0264933Y0171672D01*
X0264933Y0171074D02*
X0249704Y0171074D01*
X0250303Y0170475D02*
X0264933Y0170475D01*
X0264933Y0169877D02*
X0250838Y0169877D01*
X0251086Y0169278D02*
X0264933Y0169278D01*
X0264933Y0168680D02*
X0251334Y0168680D01*
X0251582Y0168081D02*
X0264933Y0168081D01*
X0264933Y0167483D02*
X0251830Y0167483D01*
X0252078Y0166884D02*
X0264933Y0166884D01*
X0264933Y0166286D02*
X0252133Y0166286D01*
X0252133Y0165687D02*
X0264933Y0165687D01*
X0264933Y0165089D02*
X0252133Y0165089D01*
X0252133Y0164490D02*
X0264933Y0164490D01*
X0264933Y0163892D02*
X0252133Y0163892D01*
X0252133Y0163293D02*
X0264933Y0163293D01*
X0264933Y0162695D02*
X0251904Y0162695D01*
X0251656Y0162096D02*
X0264933Y0162096D01*
X0264933Y0161498D02*
X0251408Y0161498D01*
X0251160Y0160899D02*
X0264933Y0160899D01*
X0264933Y0160301D02*
X0250912Y0160301D01*
X0250481Y0159702D02*
X0264933Y0159702D01*
X0264933Y0159104D02*
X0249882Y0159104D01*
X0249284Y0158505D02*
X0264933Y0158505D01*
X0264933Y0157907D02*
X0248685Y0157907D01*
X0247759Y0157308D02*
X0264933Y0157308D01*
X0264933Y0156710D02*
X0246314Y0156710D01*
X0240352Y0156710D02*
X0232227Y0156710D01*
X0232233Y0157308D02*
X0238907Y0157308D01*
X0237982Y0157907D02*
X0232233Y0157907D01*
X0232138Y0158505D02*
X0237383Y0158505D01*
X0236784Y0159104D02*
X0231890Y0159104D01*
X0231642Y0159702D02*
X0236186Y0159702D01*
X0235755Y0160301D02*
X0231048Y0160301D01*
X0230318Y0160899D02*
X0235507Y0160899D01*
X0235259Y0161498D02*
X0225633Y0161498D01*
X0225633Y0162096D02*
X0235011Y0162096D01*
X0234763Y0162695D02*
X0225633Y0162695D01*
X0225633Y0163293D02*
X0234533Y0163293D01*
X0234533Y0163892D02*
X0225633Y0163892D01*
X0225633Y0164490D02*
X0234533Y0164490D01*
X0234533Y0165089D02*
X0225633Y0165089D01*
X0225633Y0165687D02*
X0234533Y0165687D01*
X0234533Y0166286D02*
X0225633Y0166286D01*
X0225633Y0166884D02*
X0234589Y0166884D01*
X0234837Y0167483D02*
X0225633Y0167483D01*
X0225633Y0168081D02*
X0235085Y0168081D01*
X0235333Y0168680D02*
X0225633Y0168680D01*
X0225633Y0169278D02*
X0235580Y0169278D01*
X0235828Y0169877D02*
X0225633Y0169877D01*
X0225633Y0170475D02*
X0236364Y0170475D01*
X0236962Y0171074D02*
X0225633Y0171074D01*
X0225633Y0171672D02*
X0237561Y0171672D01*
X0238159Y0172271D02*
X0225633Y0172271D01*
X0225633Y0172870D02*
X0239337Y0172870D01*
X0240781Y0173468D02*
X0225633Y0173468D01*
X0218833Y0173468D02*
X0202233Y0173468D01*
X0202233Y0172870D02*
X0218833Y0172870D01*
X0218833Y0172271D02*
X0202233Y0172271D01*
X0202233Y0171672D02*
X0218833Y0171672D01*
X0218833Y0171074D02*
X0202233Y0171074D01*
X0202233Y0170475D02*
X0218833Y0170475D01*
X0218833Y0169877D02*
X0202233Y0169877D01*
X0202233Y0169278D02*
X0218833Y0169278D01*
X0218833Y0168680D02*
X0202233Y0168680D01*
X0202233Y0168081D02*
X0218833Y0168081D01*
X0218833Y0167483D02*
X0202233Y0167483D01*
X0202233Y0166884D02*
X0218833Y0166884D01*
X0218833Y0166286D02*
X0202233Y0166286D01*
X0202233Y0165687D02*
X0218833Y0165687D01*
X0218833Y0165089D02*
X0202233Y0165089D01*
X0202233Y0164490D02*
X0218833Y0164490D01*
X0218833Y0163892D02*
X0202233Y0163892D01*
X0202233Y0163293D02*
X0218833Y0163293D01*
X0218833Y0162695D02*
X0202233Y0162695D01*
X0202233Y0162096D02*
X0218833Y0162096D01*
X0218833Y0161498D02*
X0202233Y0161498D01*
X0202233Y0160899D02*
X0218833Y0160899D01*
X0218833Y0160301D02*
X0202233Y0160301D01*
X0202233Y0159702D02*
X0218833Y0159702D01*
X0218833Y0159104D02*
X0202233Y0159104D01*
X0202233Y0158505D02*
X0218833Y0158505D01*
X0218833Y0157907D02*
X0202735Y0157907D01*
X0203333Y0157308D02*
X0218833Y0157308D01*
X0218833Y0156710D02*
X0203932Y0156710D01*
X0204530Y0156111D02*
X0218833Y0156111D01*
X0218833Y0155513D02*
X0205129Y0155513D01*
X0205727Y0154914D02*
X0218833Y0154914D01*
X0218833Y0154316D02*
X0206326Y0154316D01*
X0206924Y0153717D02*
X0218833Y0153717D01*
X0218833Y0153119D02*
X0207523Y0153119D01*
X0208122Y0152520D02*
X0218833Y0152520D01*
X0218833Y0151922D02*
X0208720Y0151922D01*
X0209319Y0151323D02*
X0218833Y0151323D01*
X0218833Y0150725D02*
X0209917Y0150725D01*
X0210516Y0150126D02*
X0218833Y0150126D01*
X0218833Y0149528D02*
X0211114Y0149528D01*
X0211713Y0148929D02*
X0218833Y0148929D01*
X0218833Y0148331D02*
X0212311Y0148331D01*
X0212910Y0147732D02*
X0218833Y0147732D01*
X0218833Y0147134D02*
X0213508Y0147134D01*
X0214107Y0146535D02*
X0218833Y0146535D01*
X0218833Y0145937D02*
X0214705Y0145937D01*
X0215304Y0145338D02*
X0218833Y0145338D01*
X0218833Y0144739D02*
X0215902Y0144739D01*
X0216501Y0144141D02*
X0218898Y0144141D01*
X0219146Y0143542D02*
X0217099Y0143542D01*
X0217698Y0142944D02*
X0219454Y0142944D01*
X0220053Y0142345D02*
X0218296Y0142345D01*
X0218895Y0141747D02*
X0220651Y0141747D01*
X0221250Y0141148D02*
X0219493Y0141148D01*
X0220092Y0140550D02*
X0221848Y0140550D01*
X0222447Y0139951D02*
X0220690Y0139951D01*
X0221289Y0139353D02*
X0223045Y0139353D01*
X0223644Y0138754D02*
X0221887Y0138754D01*
X0222486Y0138156D02*
X0224242Y0138156D01*
X0224433Y0137557D02*
X0223084Y0137557D01*
X0223683Y0136959D02*
X0224433Y0136959D01*
X0224281Y0136360D02*
X0224584Y0136360D01*
X0227274Y0133368D02*
X0268445Y0133368D01*
X0269954Y0133368D02*
X0276713Y0133368D01*
X0276791Y0133400D02*
X0276458Y0133262D01*
X0274732Y0133262D01*
X0274205Y0132735D01*
X0274205Y0131009D01*
X0274067Y0130676D01*
X0274067Y0129324D01*
X0274205Y0128991D01*
X0274205Y0127265D01*
X0274732Y0126738D01*
X0276458Y0126738D01*
X0276791Y0126600D01*
X0291134Y0126600D01*
X0291134Y0126478D01*
X0291661Y0125950D01*
X0297525Y0125950D01*
X0298052Y0126478D01*
X0298052Y0133522D01*
X0297525Y0134050D01*
X0291661Y0134050D01*
X0291134Y0133522D01*
X0291134Y0133400D01*
X0276791Y0133400D01*
X0274239Y0132769D02*
X0272427Y0132769D01*
X0272462Y0132171D02*
X0274205Y0132171D01*
X0274205Y0131572D02*
X0272462Y0131572D01*
X0272476Y0130974D02*
X0274190Y0130974D01*
X0274067Y0130375D02*
X0272599Y0130375D01*
X0272599Y0129777D02*
X0274067Y0129777D01*
X0274127Y0129178D02*
X0272539Y0129178D01*
X0272462Y0128580D02*
X0274205Y0128580D01*
X0274205Y0127981D02*
X0272462Y0127981D01*
X0272462Y0127383D02*
X0274205Y0127383D01*
X0274686Y0126784D02*
X0271981Y0126784D01*
X0270193Y0126186D02*
X0291426Y0126186D01*
X0297760Y0126186D02*
X0298397Y0126186D01*
X0298474Y0126052D02*
X0298716Y0125810D01*
X0299013Y0125639D01*
X0299343Y0125550D01*
X0301773Y0125550D01*
X0301773Y0129700D01*
X0298214Y0129700D01*
X0298214Y0126679D01*
X0298303Y0126349D01*
X0298474Y0126052D01*
X0298214Y0126784D02*
X0298052Y0126784D01*
X0298052Y0127383D02*
X0298214Y0127383D01*
X0298214Y0127981D02*
X0298052Y0127981D01*
X0298052Y0128580D02*
X0298214Y0128580D01*
X0298214Y0129178D02*
X0298052Y0129178D01*
X0298052Y0129777D02*
X0301773Y0129777D01*
X0301773Y0129700D02*
X0301773Y0130300D01*
X0298214Y0130300D01*
X0298214Y0133321D01*
X0298303Y0133651D01*
X0298474Y0133948D01*
X0298716Y0134190D01*
X0299013Y0134361D01*
X0299343Y0134450D01*
X0301773Y0134450D01*
X0301773Y0130300D01*
X0302373Y0130300D01*
X0302373Y0134450D01*
X0304804Y0134450D01*
X0305134Y0134361D01*
X0305431Y0134190D01*
X0305673Y0133948D01*
X0305844Y0133651D01*
X0305933Y0133321D01*
X0305933Y0130300D01*
X0302374Y0130300D01*
X0302374Y0129700D01*
X0305933Y0129700D01*
X0305933Y0126679D01*
X0305844Y0126349D01*
X0305673Y0126052D01*
X0305431Y0125810D01*
X0305134Y0125639D01*
X0304804Y0125550D01*
X0302373Y0125550D01*
X0302373Y0129700D01*
X0301773Y0129700D01*
X0301773Y0129178D02*
X0302373Y0129178D01*
X0302373Y0128580D02*
X0301773Y0128580D01*
X0301773Y0127981D02*
X0302373Y0127981D01*
X0302373Y0127383D02*
X0301773Y0127383D01*
X0301773Y0126784D02*
X0302373Y0126784D01*
X0302373Y0126186D02*
X0301773Y0126186D01*
X0301773Y0125587D02*
X0302373Y0125587D01*
X0304941Y0125587D02*
X0317033Y0125587D01*
X0317033Y0124989D02*
X0268996Y0124989D01*
X0269595Y0125587D02*
X0299206Y0125587D01*
X0305750Y0126186D02*
X0317033Y0126186D01*
X0317033Y0126784D02*
X0305933Y0126784D01*
X0305933Y0127383D02*
X0317033Y0127383D01*
X0317033Y0127981D02*
X0305933Y0127981D01*
X0305933Y0128580D02*
X0317033Y0128580D01*
X0317033Y0129178D02*
X0305933Y0129178D01*
X0305933Y0130375D02*
X0317033Y0130375D01*
X0317033Y0129777D02*
X0302374Y0129777D01*
X0302373Y0130375D02*
X0301773Y0130375D01*
X0301773Y0130974D02*
X0302373Y0130974D01*
X0302373Y0131572D02*
X0301773Y0131572D01*
X0301773Y0132171D02*
X0302373Y0132171D01*
X0302373Y0132769D02*
X0301773Y0132769D01*
X0301773Y0133368D02*
X0302373Y0133368D01*
X0302373Y0133966D02*
X0301773Y0133966D01*
X0298493Y0133966D02*
X0297608Y0133966D01*
X0298052Y0133368D02*
X0298227Y0133368D01*
X0298214Y0132769D02*
X0298052Y0132769D01*
X0298052Y0132171D02*
X0298214Y0132171D01*
X0298214Y0131572D02*
X0298052Y0131572D01*
X0298052Y0130974D02*
X0298214Y0130974D01*
X0298214Y0130375D02*
X0298052Y0130375D01*
X0291578Y0133966D02*
X0249993Y0133966D01*
X0250914Y0134565D02*
X0317033Y0134565D01*
X0317033Y0135163D02*
X0251512Y0135163D01*
X0251835Y0135762D02*
X0317033Y0135762D01*
X0317033Y0136360D02*
X0252083Y0136360D01*
X0250138Y0130974D02*
X0265365Y0130974D01*
X0265937Y0131572D02*
X0229069Y0131572D01*
X0228471Y0132171D02*
X0265937Y0132171D01*
X0265972Y0132769D02*
X0227872Y0132769D01*
X0229993Y0133966D02*
X0246673Y0133966D01*
X0245753Y0134565D02*
X0230914Y0134565D01*
X0231512Y0135163D02*
X0245155Y0135163D01*
X0244832Y0135762D02*
X0231835Y0135762D01*
X0232083Y0136360D02*
X0244584Y0136360D01*
X0244433Y0136959D02*
X0232233Y0136959D01*
X0232233Y0137557D02*
X0244433Y0137557D01*
X0244433Y0138156D02*
X0232233Y0138156D01*
X0232035Y0138754D02*
X0244632Y0138754D01*
X0244879Y0139353D02*
X0231787Y0139353D01*
X0231567Y0139951D02*
X0245269Y0139951D01*
X0245868Y0140550D02*
X0231319Y0140550D01*
X0230866Y0141148D02*
X0246950Y0141148D01*
X0247772Y0141747D02*
X0230268Y0141747D01*
X0229669Y0142345D02*
X0248370Y0142345D01*
X0248633Y0143200D02*
X0248672Y0143200D01*
X0249340Y0143306D01*
X0249984Y0143515D01*
X0250587Y0143822D01*
X0251135Y0144220D01*
X0251613Y0144699D01*
X0252011Y0145246D01*
X0252318Y0145849D01*
X0252527Y0146493D01*
X0252633Y0147162D01*
X0252633Y0147200D01*
X0248633Y0147200D01*
X0248633Y0143200D01*
X0248633Y0143542D02*
X0248033Y0143542D01*
X0248033Y0143200D02*
X0248033Y0147200D01*
X0244033Y0147200D01*
X0244033Y0147162D01*
X0244139Y0146493D01*
X0244348Y0145849D01*
X0244656Y0145246D01*
X0245053Y0144699D01*
X0245532Y0144220D01*
X0246080Y0143822D01*
X0246683Y0143515D01*
X0247326Y0143306D01*
X0247995Y0143200D01*
X0248033Y0143200D01*
X0248033Y0144141D02*
X0248633Y0144141D01*
X0248633Y0144739D02*
X0248033Y0144739D01*
X0248033Y0145338D02*
X0248633Y0145338D01*
X0248633Y0145937D02*
X0248033Y0145937D01*
X0248033Y0146535D02*
X0248633Y0146535D01*
X0248633Y0147134D02*
X0248033Y0147134D01*
X0248033Y0147200D02*
X0248633Y0147200D01*
X0248633Y0147800D01*
X0248033Y0147800D01*
X0248033Y0147200D01*
X0248033Y0147732D02*
X0232233Y0147732D01*
X0232233Y0147134D02*
X0244038Y0147134D01*
X0244133Y0146535D02*
X0232155Y0146535D01*
X0231907Y0145937D02*
X0244320Y0145937D01*
X0244609Y0145338D02*
X0231659Y0145338D01*
X0231088Y0144739D02*
X0245024Y0144739D01*
X0245641Y0144141D02*
X0230415Y0144141D01*
X0229071Y0142944D02*
X0249056Y0142944D01*
X0250038Y0143542D02*
X0257067Y0143542D01*
X0257666Y0144141D02*
X0251026Y0144141D01*
X0251643Y0144739D02*
X0258264Y0144739D01*
X0258863Y0145338D02*
X0252058Y0145338D01*
X0252347Y0145937D02*
X0259462Y0145937D01*
X0260060Y0146535D02*
X0252534Y0146535D01*
X0252629Y0147134D02*
X0260659Y0147134D01*
X0261257Y0147732D02*
X0248633Y0147732D01*
X0248633Y0147800D02*
X0252633Y0147800D01*
X0252633Y0147838D01*
X0252527Y0148507D01*
X0252318Y0149151D01*
X0252011Y0149754D01*
X0251613Y0150301D01*
X0251135Y0150780D01*
X0250587Y0151178D01*
X0249984Y0151485D01*
X0249340Y0151694D01*
X0248672Y0151800D01*
X0248633Y0151800D01*
X0248633Y0147800D01*
X0248633Y0148331D02*
X0248033Y0148331D01*
X0248033Y0147800D02*
X0248033Y0151800D01*
X0247995Y0151800D01*
X0247326Y0151694D01*
X0246683Y0151485D01*
X0246080Y0151178D01*
X0245532Y0150780D01*
X0245053Y0150301D01*
X0244656Y0149754D01*
X0244348Y0149151D01*
X0244139Y0148507D01*
X0244033Y0147838D01*
X0244033Y0147800D01*
X0248033Y0147800D01*
X0248033Y0148929D02*
X0248633Y0148929D01*
X0248633Y0149528D02*
X0248033Y0149528D01*
X0248033Y0150126D02*
X0248633Y0150126D01*
X0248633Y0150725D02*
X0248033Y0150725D01*
X0248033Y0151323D02*
X0248633Y0151323D01*
X0250302Y0151323D02*
X0264848Y0151323D01*
X0264933Y0151922D02*
X0225633Y0151922D01*
X0225633Y0152520D02*
X0264933Y0152520D01*
X0264933Y0153119D02*
X0225633Y0153119D01*
X0225633Y0153717D02*
X0227275Y0153717D01*
X0226002Y0154316D02*
X0225633Y0154316D01*
X0225633Y0151323D02*
X0227372Y0151323D01*
X0226043Y0150725D02*
X0225633Y0150725D01*
X0229295Y0151323D02*
X0246365Y0151323D01*
X0245477Y0150725D02*
X0230624Y0150725D01*
X0231223Y0150126D02*
X0244926Y0150126D01*
X0244540Y0149528D02*
X0231715Y0149528D01*
X0231963Y0148929D02*
X0244276Y0148929D01*
X0244111Y0148331D02*
X0232211Y0148331D01*
X0228472Y0143542D02*
X0246629Y0143542D01*
X0252555Y0148331D02*
X0261856Y0148331D01*
X0262454Y0148929D02*
X0252390Y0148929D01*
X0252126Y0149528D02*
X0263053Y0149528D01*
X0263651Y0150126D02*
X0251740Y0150126D01*
X0251190Y0150725D02*
X0264250Y0150725D01*
X0269078Y0145937D02*
X0317033Y0145937D01*
X0317033Y0146535D02*
X0269677Y0146535D01*
X0270275Y0147134D02*
X0317033Y0147134D01*
X0317033Y0147732D02*
X0270874Y0147732D01*
X0271322Y0148331D02*
X0317033Y0148331D01*
X0317033Y0148929D02*
X0271570Y0148929D01*
X0271733Y0149528D02*
X0317033Y0149528D01*
X0317033Y0150126D02*
X0271733Y0150126D01*
X0271733Y0150725D02*
X0317033Y0150725D01*
X0317033Y0151323D02*
X0271733Y0151323D01*
X0271733Y0151922D02*
X0317033Y0151922D01*
X0317033Y0152520D02*
X0271733Y0152520D01*
X0271733Y0153119D02*
X0317033Y0153119D01*
X0317033Y0153717D02*
X0271733Y0153717D01*
X0271733Y0154316D02*
X0317033Y0154316D01*
X0317033Y0154914D02*
X0271733Y0154914D01*
X0271733Y0155513D02*
X0317033Y0155513D01*
X0317033Y0156111D02*
X0271733Y0156111D01*
X0271733Y0156710D02*
X0317033Y0156710D01*
X0317033Y0157308D02*
X0271733Y0157308D01*
X0271733Y0157907D02*
X0317033Y0157907D01*
X0317033Y0158505D02*
X0271733Y0158505D01*
X0271733Y0159104D02*
X0317033Y0159104D01*
X0317033Y0159702D02*
X0271733Y0159702D01*
X0271733Y0160301D02*
X0317033Y0160301D01*
X0317033Y0160899D02*
X0271733Y0160899D01*
X0271733Y0161498D02*
X0317033Y0161498D01*
X0317033Y0162096D02*
X0271733Y0162096D01*
X0271733Y0162695D02*
X0317033Y0162695D01*
X0317033Y0163293D02*
X0271733Y0163293D01*
X0271733Y0163892D02*
X0317033Y0163892D01*
X0317033Y0164490D02*
X0271733Y0164490D01*
X0271733Y0165089D02*
X0317033Y0165089D01*
X0317033Y0165687D02*
X0271733Y0165687D01*
X0271733Y0166286D02*
X0317033Y0166286D01*
X0317033Y0166884D02*
X0271733Y0166884D01*
X0271733Y0167483D02*
X0317033Y0167483D01*
X0317033Y0168081D02*
X0271733Y0168081D01*
X0271733Y0168680D02*
X0317033Y0168680D01*
X0317033Y0169278D02*
X0271733Y0169278D01*
X0271733Y0169877D02*
X0317033Y0169877D01*
X0317033Y0170475D02*
X0271733Y0170475D01*
X0271733Y0171074D02*
X0317033Y0171074D01*
X0317033Y0171672D02*
X0271733Y0171672D01*
X0271733Y0172271D02*
X0317033Y0172271D01*
X0317033Y0172870D02*
X0271733Y0172870D01*
X0271733Y0173468D02*
X0317033Y0173468D01*
X0317033Y0174067D02*
X0271733Y0174067D01*
X0271733Y0174665D02*
X0317033Y0174665D01*
X0317033Y0175264D02*
X0271733Y0175264D01*
X0271733Y0175862D02*
X0317033Y0175862D01*
X0317033Y0176461D02*
X0271733Y0176461D01*
X0271733Y0177059D02*
X0317033Y0177059D01*
X0317033Y0177658D02*
X0271733Y0177658D01*
X0271733Y0178256D02*
X0317033Y0178256D01*
X0317033Y0178855D02*
X0271733Y0178855D01*
X0271733Y0179453D02*
X0317033Y0179453D01*
X0317033Y0180052D02*
X0271733Y0180052D01*
X0271733Y0180650D02*
X0317033Y0180650D01*
X0317033Y0181249D02*
X0271733Y0181249D01*
X0271733Y0181847D02*
X0317033Y0181847D01*
X0317033Y0182446D02*
X0271733Y0182446D01*
X0271733Y0183044D02*
X0317033Y0183044D01*
X0317033Y0183643D02*
X0271733Y0183643D01*
X0271733Y0184241D02*
X0317033Y0184241D01*
X0317033Y0184840D02*
X0271733Y0184840D01*
X0271733Y0185438D02*
X0317033Y0185438D01*
X0317033Y0186037D02*
X0271733Y0186037D01*
X0271733Y0186635D02*
X0317033Y0186635D01*
X0317033Y0187234D02*
X0271733Y0187234D01*
X0271733Y0187832D02*
X0317033Y0187832D01*
X0317033Y0188431D02*
X0271733Y0188431D01*
X0271733Y0189029D02*
X0317033Y0189029D01*
X0317033Y0189628D02*
X0271733Y0189628D01*
X0271733Y0190226D02*
X0317033Y0190226D01*
X0317033Y0190825D02*
X0271733Y0190825D01*
X0271733Y0191423D02*
X0317033Y0191423D01*
X0317033Y0192022D02*
X0271733Y0192022D01*
X0271733Y0192620D02*
X0317033Y0192620D01*
X0317033Y0193219D02*
X0271733Y0193219D01*
X0271733Y0193817D02*
X0317033Y0193817D01*
X0317033Y0194416D02*
X0271733Y0194416D01*
X0271733Y0195014D02*
X0317033Y0195014D01*
X0317033Y0195613D02*
X0271733Y0195613D01*
X0271733Y0196211D02*
X0317033Y0196211D01*
X0317033Y0196810D02*
X0271733Y0196810D01*
X0271733Y0197408D02*
X0317033Y0197408D01*
X0317033Y0198007D02*
X0271733Y0198007D01*
X0271733Y0198605D02*
X0317033Y0198605D01*
X0317033Y0199204D02*
X0271733Y0199204D01*
X0271733Y0199803D02*
X0317033Y0199803D01*
X0317033Y0200401D02*
X0271733Y0200401D01*
X0271733Y0201000D02*
X0317033Y0201000D01*
X0317033Y0201598D02*
X0271733Y0201598D01*
X0271733Y0202197D02*
X0301267Y0202197D01*
X0301742Y0202000D02*
X0303623Y0202000D01*
X0304925Y0202000D01*
X0307865Y0203218D01*
X0310115Y0205468D01*
X0311333Y0208409D01*
X0311333Y0211591D01*
X0310115Y0214532D01*
X0307865Y0216782D01*
X0307865Y0216782D01*
X0304925Y0218000D01*
X0301742Y0218000D01*
X0298802Y0216782D01*
X0298802Y0216782D01*
X0296551Y0214532D01*
X0296551Y0214532D01*
X0295333Y0211591D01*
X0295333Y0208409D01*
X0296551Y0205468D01*
X0298802Y0203218D01*
X0301742Y0202000D01*
X0299823Y0202795D02*
X0271733Y0202795D01*
X0271733Y0203394D02*
X0298626Y0203394D01*
X0298802Y0203218D02*
X0298802Y0203218D01*
X0298028Y0203992D02*
X0271733Y0203992D01*
X0271733Y0204591D02*
X0297429Y0204591D01*
X0296830Y0205189D02*
X0271733Y0205189D01*
X0271687Y0205788D02*
X0296419Y0205788D01*
X0296551Y0205468D02*
X0296551Y0205468D01*
X0296171Y0206386D02*
X0271439Y0206386D01*
X0271157Y0206985D02*
X0295923Y0206985D01*
X0295675Y0207583D02*
X0270558Y0207583D01*
X0269960Y0208182D02*
X0295427Y0208182D01*
X0295333Y0208780D02*
X0269361Y0208780D01*
X0268763Y0209379D02*
X0295333Y0209379D01*
X0295333Y0209977D02*
X0268164Y0209977D01*
X0267566Y0210576D02*
X0295333Y0210576D01*
X0295333Y0211174D02*
X0266967Y0211174D01*
X0266369Y0211773D02*
X0295408Y0211773D01*
X0295656Y0212371D02*
X0265770Y0212371D01*
X0265172Y0212970D02*
X0295904Y0212970D01*
X0296152Y0213568D02*
X0264573Y0213568D01*
X0263975Y0214167D02*
X0296400Y0214167D01*
X0296785Y0214765D02*
X0263376Y0214765D01*
X0262778Y0215364D02*
X0297383Y0215364D01*
X0297982Y0215962D02*
X0262179Y0215962D01*
X0261581Y0216561D02*
X0298580Y0216561D01*
X0299713Y0217159D02*
X0260982Y0217159D01*
X0260384Y0217758D02*
X0301157Y0217758D01*
X0305509Y0217758D02*
X0317033Y0217758D01*
X0317033Y0218356D02*
X0259115Y0218356D01*
X0257351Y0211174D02*
X0240513Y0211174D01*
X0239173Y0210576D02*
X0257949Y0210576D01*
X0242796Y0221947D02*
X0317033Y0221947D01*
X0317033Y0221349D02*
X0242253Y0221349D01*
X0241491Y0220750D02*
X0317033Y0220750D01*
X0317033Y0220152D02*
X0240093Y0220152D01*
X0239133Y0220152D02*
X0238533Y0220152D01*
X0238533Y0220750D02*
X0239133Y0220750D01*
X0239133Y0221349D02*
X0238533Y0221349D01*
X0238533Y0221947D02*
X0239133Y0221947D01*
X0239133Y0222546D02*
X0238533Y0222546D01*
X0238533Y0223144D02*
X0239133Y0223144D01*
X0239133Y0223743D02*
X0238533Y0223743D01*
X0238533Y0224341D02*
X0239133Y0224341D01*
X0239133Y0226137D02*
X0238533Y0226137D01*
X0238533Y0226736D02*
X0239133Y0226736D01*
X0239133Y0227334D02*
X0238533Y0227334D01*
X0238533Y0227933D02*
X0239133Y0227933D01*
X0239133Y0228531D02*
X0238533Y0228531D01*
X0238533Y0229130D02*
X0239133Y0229130D01*
X0239133Y0229728D02*
X0238533Y0229728D01*
X0243791Y0224341D02*
X0317033Y0224341D01*
X0317033Y0223743D02*
X0243682Y0223743D01*
X0243488Y0223144D02*
X0317033Y0223144D01*
X0317033Y0222546D02*
X0243195Y0222546D01*
X0240306Y0218955D02*
X0317033Y0218955D01*
X0317033Y0219553D02*
X0238861Y0219553D01*
X0235154Y0211174D02*
X0200513Y0211174D01*
X0199173Y0210576D02*
X0236494Y0210576D01*
X0237384Y0209379D02*
X0200283Y0209379D01*
X0201559Y0208780D02*
X0236108Y0208780D01*
X0235510Y0208182D02*
X0202157Y0208182D01*
X0202742Y0207583D02*
X0234924Y0207583D01*
X0234676Y0206985D02*
X0202990Y0206985D01*
X0203238Y0206386D02*
X0234428Y0206386D01*
X0234233Y0205788D02*
X0203433Y0205788D01*
X0203433Y0205189D02*
X0234214Y0205189D01*
X0233616Y0204591D02*
X0203433Y0204591D01*
X0203395Y0203992D02*
X0233017Y0203992D01*
X0232419Y0203394D02*
X0203147Y0203394D01*
X0202899Y0202795D02*
X0231820Y0202795D01*
X0231222Y0202197D02*
X0202535Y0202197D01*
X0202233Y0201598D02*
X0230623Y0201598D01*
X0230025Y0201000D02*
X0202233Y0201000D01*
X0202233Y0200401D02*
X0229426Y0200401D01*
X0228828Y0199803D02*
X0202233Y0199803D01*
X0202233Y0199204D02*
X0228229Y0199204D01*
X0227631Y0198605D02*
X0202233Y0198605D01*
X0202233Y0198007D02*
X0227032Y0198007D01*
X0226433Y0197408D02*
X0202233Y0197408D01*
X0202233Y0196810D02*
X0225835Y0196810D01*
X0225236Y0196211D02*
X0202233Y0196211D01*
X0202233Y0195613D02*
X0224638Y0195613D01*
X0224039Y0195014D02*
X0202233Y0195014D01*
X0202233Y0194416D02*
X0223441Y0194416D01*
X0222842Y0193817D02*
X0202233Y0193817D01*
X0202233Y0193219D02*
X0222244Y0193219D01*
X0221645Y0192620D02*
X0202233Y0192620D01*
X0202233Y0192022D02*
X0221047Y0192022D01*
X0220448Y0191423D02*
X0202233Y0191423D01*
X0202233Y0190825D02*
X0219850Y0190825D01*
X0219310Y0190226D02*
X0202233Y0190226D01*
X0202233Y0189628D02*
X0219062Y0189628D01*
X0218833Y0189029D02*
X0202233Y0189029D01*
X0202233Y0188431D02*
X0218833Y0188431D01*
X0218833Y0187832D02*
X0202233Y0187832D01*
X0202233Y0187234D02*
X0218833Y0187234D01*
X0218833Y0186635D02*
X0202233Y0186635D01*
X0202233Y0186037D02*
X0218833Y0186037D01*
X0218833Y0185438D02*
X0202233Y0185438D01*
X0202233Y0184840D02*
X0218833Y0184840D01*
X0218833Y0184241D02*
X0202233Y0184241D01*
X0202233Y0183643D02*
X0218833Y0183643D01*
X0218833Y0183044D02*
X0202233Y0183044D01*
X0202233Y0182446D02*
X0218833Y0182446D01*
X0218833Y0181847D02*
X0202233Y0181847D01*
X0202233Y0181249D02*
X0218833Y0181249D01*
X0218833Y0180650D02*
X0202233Y0180650D01*
X0202233Y0180052D02*
X0218833Y0180052D01*
X0218833Y0179453D02*
X0202233Y0179453D01*
X0202233Y0178855D02*
X0218833Y0178855D01*
X0218833Y0178256D02*
X0202233Y0178256D01*
X0202233Y0177658D02*
X0218833Y0177658D01*
X0218833Y0177059D02*
X0202233Y0177059D01*
X0202233Y0176461D02*
X0218833Y0176461D01*
X0218833Y0175862D02*
X0202233Y0175862D01*
X0202233Y0175264D02*
X0218833Y0175264D01*
X0218833Y0174665D02*
X0202233Y0174665D01*
X0202233Y0174067D02*
X0218833Y0174067D01*
X0225633Y0160899D02*
X0226349Y0160899D01*
X0231979Y0156111D02*
X0264933Y0156111D01*
X0264933Y0155513D02*
X0231731Y0155513D01*
X0231263Y0154914D02*
X0264933Y0154914D01*
X0264933Y0154316D02*
X0230664Y0154316D01*
X0229392Y0153717D02*
X0264933Y0153717D01*
X0268480Y0145338D02*
X0317033Y0145338D01*
X0317033Y0144739D02*
X0267881Y0144739D01*
X0267283Y0144141D02*
X0317033Y0144141D01*
X0317033Y0143542D02*
X0266684Y0143542D01*
X0266086Y0142944D02*
X0317033Y0142944D01*
X0317033Y0142345D02*
X0265487Y0142345D01*
X0264889Y0141747D02*
X0317033Y0141747D01*
X0317033Y0141148D02*
X0264290Y0141148D01*
X0263692Y0140550D02*
X0317033Y0140550D01*
X0317033Y0139951D02*
X0263093Y0139951D01*
X0262495Y0139353D02*
X0317033Y0139353D01*
X0317033Y0138754D02*
X0261896Y0138754D01*
X0261298Y0138156D02*
X0317033Y0138156D01*
X0317033Y0137557D02*
X0260699Y0137557D01*
X0259876Y0136959D02*
X0317033Y0136959D01*
X0317033Y0133966D02*
X0305654Y0133966D01*
X0305920Y0133368D02*
X0317033Y0133368D01*
X0317033Y0132769D02*
X0305933Y0132769D01*
X0305933Y0132171D02*
X0317033Y0132171D01*
X0317033Y0131572D02*
X0305933Y0131572D01*
X0305933Y0130974D02*
X0317033Y0130974D01*
X0317033Y0124390D02*
X0268398Y0124390D01*
X0267799Y0123792D02*
X0317033Y0123792D01*
X0317033Y0123193D02*
X0267201Y0123193D01*
X0266602Y0122595D02*
X0317033Y0122595D01*
X0317033Y0121996D02*
X0266004Y0121996D01*
X0265405Y0121398D02*
X0317033Y0121398D01*
X0317033Y0120799D02*
X0264807Y0120799D01*
X0264208Y0120201D02*
X0317033Y0120201D01*
X0317033Y0119602D02*
X0263610Y0119602D01*
X0263011Y0119003D02*
X0291615Y0119003D01*
X0291661Y0119050D02*
X0291134Y0118522D01*
X0291134Y0118400D01*
X0276791Y0118400D01*
X0276458Y0118262D01*
X0274732Y0118262D01*
X0274205Y0117735D01*
X0274205Y0116009D01*
X0274067Y0115676D01*
X0274067Y0114324D01*
X0274205Y0113991D01*
X0274205Y0112265D01*
X0274732Y0111738D01*
X0276458Y0111738D01*
X0276791Y0111600D01*
X0291134Y0111600D01*
X0291134Y0111478D01*
X0291661Y0110950D01*
X0297525Y0110950D01*
X0298052Y0111478D01*
X0298052Y0118522D01*
X0297525Y0119050D01*
X0291661Y0119050D01*
X0291134Y0118405D02*
X0262413Y0118405D01*
X0261814Y0117806D02*
X0263831Y0117806D01*
X0263233Y0117208D02*
X0261216Y0117208D01*
X0260617Y0116609D02*
X0262634Y0116609D01*
X0262036Y0116011D02*
X0260019Y0116011D01*
X0259420Y0115412D02*
X0261437Y0115412D01*
X0260839Y0114814D02*
X0258822Y0114814D01*
X0258223Y0114215D02*
X0260240Y0114215D01*
X0259642Y0113617D02*
X0257625Y0113617D01*
X0257287Y0113018D02*
X0259043Y0113018D01*
X0258445Y0112420D02*
X0256688Y0112420D01*
X0256090Y0111821D02*
X0257846Y0111821D01*
X0257248Y0111223D02*
X0255491Y0111223D01*
X0254893Y0110624D02*
X0256649Y0110624D01*
X0256051Y0110026D02*
X0254294Y0110026D01*
X0253696Y0109427D02*
X0255452Y0109427D01*
X0254854Y0108829D02*
X0253097Y0108829D01*
X0252499Y0108230D02*
X0254255Y0108230D01*
X0253657Y0107632D02*
X0252233Y0107632D01*
X0252233Y0107033D02*
X0253058Y0107033D01*
X0252460Y0106435D02*
X0252113Y0106435D01*
X0249467Y0103442D02*
X0243433Y0103442D01*
X0243433Y0102844D02*
X0248869Y0102844D01*
X0248270Y0102245D02*
X0243433Y0102245D01*
X0243433Y0101647D02*
X0247672Y0101647D01*
X0246708Y0101048D02*
X0243433Y0101048D01*
X0243433Y0100450D02*
X0245768Y0100450D01*
X0245169Y0099851D02*
X0243433Y0099851D01*
X0243433Y0099253D02*
X0244838Y0099253D01*
X0244590Y0098654D02*
X0243433Y0098654D01*
X0243433Y0098056D02*
X0244433Y0098056D01*
X0244433Y0097457D02*
X0243433Y0097457D01*
X0243433Y0096859D02*
X0244433Y0096859D01*
X0244626Y0096260D02*
X0243433Y0096260D01*
X0243433Y0095662D02*
X0244873Y0095662D01*
X0245255Y0095063D02*
X0243433Y0095063D01*
X0243433Y0094465D02*
X0245853Y0094465D01*
X0246915Y0093866D02*
X0243433Y0093866D01*
X0243433Y0093268D02*
X0257659Y0093268D01*
X0258257Y0093866D02*
X0249751Y0093866D01*
X0250813Y0094465D02*
X0258856Y0094465D01*
X0259454Y0095063D02*
X0251412Y0095063D01*
X0251793Y0095662D02*
X0260053Y0095662D01*
X0260651Y0096260D02*
X0252041Y0096260D01*
X0252500Y0096859D02*
X0261250Y0096859D01*
X0261848Y0097457D02*
X0253099Y0097457D01*
X0253697Y0098056D02*
X0262447Y0098056D01*
X0263045Y0098654D02*
X0254296Y0098654D01*
X0254894Y0099253D02*
X0263644Y0099253D01*
X0264242Y0099851D02*
X0255493Y0099851D01*
X0256091Y0100450D02*
X0264841Y0100450D01*
X0265439Y0101048D02*
X0256690Y0101048D01*
X0257288Y0101647D02*
X0265937Y0101647D01*
X0265937Y0101546D02*
X0255291Y0090900D01*
X0250316Y0090900D01*
X0249109Y0091400D01*
X0247558Y0091400D01*
X0246124Y0090806D01*
X0245027Y0089709D01*
X0244433Y0088276D01*
X0244433Y0086724D01*
X0245027Y0085291D01*
X0246124Y0084194D01*
X0247558Y0083600D01*
X0249109Y0083600D01*
X0250316Y0084100D01*
X0257376Y0084100D01*
X0257801Y0084276D01*
X0256925Y0083400D01*
X0250157Y0083400D01*
X0248907Y0082882D01*
X0247331Y0081306D01*
X0246124Y0080806D01*
X0245027Y0079709D01*
X0244433Y0078276D01*
X0244433Y0076724D01*
X0245027Y0075291D01*
X0246124Y0074194D01*
X0247558Y0073600D01*
X0249109Y0073600D01*
X0250542Y0074194D01*
X0251640Y0075291D01*
X0252140Y0076498D01*
X0252242Y0076600D01*
X0259010Y0076600D01*
X0260259Y0077118D01*
X0261216Y0078074D01*
X0264742Y0081600D01*
X0269876Y0081600D01*
X0270208Y0081738D01*
X0271934Y0081738D01*
X0272462Y0082265D01*
X0272462Y0083991D01*
X0272599Y0084324D01*
X0272599Y0085676D01*
X0272462Y0086009D01*
X0272462Y0087735D01*
X0271934Y0088262D01*
X0270208Y0088262D01*
X0269876Y0088400D01*
X0262657Y0088400D01*
X0262232Y0088224D01*
X0270746Y0096738D01*
X0271934Y0096738D01*
X0272462Y0097265D01*
X0272462Y0098991D01*
X0272599Y0099324D01*
X0272599Y0100676D01*
X0272462Y0101009D01*
X0272462Y0102735D01*
X0271934Y0103262D01*
X0270208Y0103262D01*
X0269876Y0103400D01*
X0268523Y0103400D01*
X0268190Y0103262D01*
X0266464Y0103262D01*
X0265937Y0102735D01*
X0265937Y0101546D01*
X0265937Y0102245D02*
X0257887Y0102245D01*
X0258485Y0102844D02*
X0266046Y0102844D01*
X0260879Y0105238D02*
X0317033Y0105238D01*
X0317033Y0105836D02*
X0261478Y0105836D01*
X0262076Y0106435D02*
X0317033Y0106435D01*
X0317033Y0107033D02*
X0262675Y0107033D01*
X0263273Y0107632D02*
X0317033Y0107632D01*
X0317033Y0108230D02*
X0263872Y0108230D01*
X0264470Y0108829D02*
X0317033Y0108829D01*
X0317033Y0109427D02*
X0265069Y0109427D01*
X0265667Y0110026D02*
X0317033Y0110026D01*
X0317033Y0110624D02*
X0305080Y0110624D01*
X0305134Y0110639D02*
X0305431Y0110810D01*
X0305673Y0111052D01*
X0305844Y0111349D01*
X0305933Y0111679D01*
X0305933Y0114700D01*
X0302374Y0114700D01*
X0302374Y0115300D01*
X0305933Y0115300D01*
X0305933Y0118321D01*
X0305844Y0118651D01*
X0305673Y0118948D01*
X0305431Y0119190D01*
X0305134Y0119361D01*
X0304804Y0119450D01*
X0302373Y0119450D01*
X0302373Y0115300D01*
X0301773Y0115300D01*
X0301773Y0114700D01*
X0298214Y0114700D01*
X0298214Y0111679D01*
X0298303Y0111349D01*
X0298474Y0111052D01*
X0298716Y0110810D01*
X0299013Y0110639D01*
X0299343Y0110550D01*
X0301773Y0110550D01*
X0301773Y0114700D01*
X0302373Y0114700D01*
X0302373Y0110550D01*
X0304804Y0110550D01*
X0305134Y0110639D01*
X0305771Y0111223D02*
X0317033Y0111223D01*
X0317033Y0111821D02*
X0305933Y0111821D01*
X0305933Y0112420D02*
X0317033Y0112420D01*
X0317033Y0113018D02*
X0305933Y0113018D01*
X0305933Y0113617D02*
X0317033Y0113617D01*
X0317033Y0114215D02*
X0305933Y0114215D01*
X0305933Y0115412D02*
X0317033Y0115412D01*
X0317033Y0114814D02*
X0302374Y0114814D01*
X0302373Y0115412D02*
X0301773Y0115412D01*
X0301773Y0115300D02*
X0301773Y0119450D01*
X0299343Y0119450D01*
X0299013Y0119361D01*
X0298716Y0119190D01*
X0298474Y0118948D01*
X0298303Y0118651D01*
X0298214Y0118321D01*
X0298214Y0115300D01*
X0301773Y0115300D01*
X0301773Y0114814D02*
X0298052Y0114814D01*
X0298052Y0115412D02*
X0298214Y0115412D01*
X0298214Y0116011D02*
X0298052Y0116011D01*
X0298052Y0116609D02*
X0298214Y0116609D01*
X0298214Y0117208D02*
X0298052Y0117208D01*
X0298052Y0117806D02*
X0298214Y0117806D01*
X0298237Y0118405D02*
X0298052Y0118405D01*
X0298530Y0119003D02*
X0297571Y0119003D01*
X0301773Y0119003D02*
X0302373Y0119003D01*
X0302373Y0118405D02*
X0301773Y0118405D01*
X0301773Y0117806D02*
X0302373Y0117806D01*
X0302373Y0117208D02*
X0301773Y0117208D01*
X0301773Y0116609D02*
X0302373Y0116609D01*
X0302373Y0116011D02*
X0301773Y0116011D01*
X0301773Y0114215D02*
X0302373Y0114215D01*
X0302373Y0113617D02*
X0301773Y0113617D01*
X0301773Y0113018D02*
X0302373Y0113018D01*
X0302373Y0112420D02*
X0301773Y0112420D01*
X0301773Y0111821D02*
X0302373Y0111821D01*
X0302373Y0111223D02*
X0301773Y0111223D01*
X0301773Y0110624D02*
X0302373Y0110624D01*
X0299067Y0110624D02*
X0266266Y0110624D01*
X0266864Y0111223D02*
X0291389Y0111223D01*
X0297797Y0111223D02*
X0298376Y0111223D01*
X0298214Y0111821D02*
X0298052Y0111821D01*
X0298052Y0112420D02*
X0298214Y0112420D01*
X0298214Y0113018D02*
X0298052Y0113018D01*
X0298052Y0113617D02*
X0298214Y0113617D01*
X0298214Y0114215D02*
X0298052Y0114215D01*
X0305933Y0116011D02*
X0317033Y0116011D01*
X0317033Y0116609D02*
X0305933Y0116609D01*
X0305933Y0117208D02*
X0317033Y0117208D01*
X0317033Y0117806D02*
X0305933Y0117806D01*
X0305910Y0118405D02*
X0317033Y0118405D01*
X0317033Y0119003D02*
X0305617Y0119003D01*
X0304804Y0104450D02*
X0302373Y0104450D01*
X0302373Y0100300D01*
X0301773Y0100300D01*
X0301773Y0099700D01*
X0298214Y0099700D01*
X0298214Y0096679D01*
X0298303Y0096349D01*
X0298474Y0096052D01*
X0298716Y0095810D01*
X0299013Y0095639D01*
X0299343Y0095550D01*
X0301773Y0095550D01*
X0301773Y0099700D01*
X0302373Y0099700D01*
X0302373Y0095550D01*
X0304804Y0095550D01*
X0305134Y0095639D01*
X0305431Y0095810D01*
X0305673Y0096052D01*
X0305844Y0096349D01*
X0305933Y0096679D01*
X0305933Y0099700D01*
X0302374Y0099700D01*
X0302374Y0100300D01*
X0305933Y0100300D01*
X0305933Y0103321D01*
X0305844Y0103651D01*
X0305673Y0103948D01*
X0305431Y0104190D01*
X0305134Y0104361D01*
X0304804Y0104450D01*
X0305580Y0104041D02*
X0317033Y0104041D01*
X0317033Y0104639D02*
X0260281Y0104639D01*
X0259682Y0104041D02*
X0291652Y0104041D01*
X0291661Y0104050D02*
X0291134Y0103522D01*
X0291134Y0103400D01*
X0276791Y0103400D01*
X0276458Y0103262D01*
X0274732Y0103262D01*
X0274205Y0102735D01*
X0274205Y0101009D01*
X0274067Y0100676D01*
X0274067Y0099324D01*
X0274205Y0098991D01*
X0274205Y0097265D01*
X0274732Y0096738D01*
X0276458Y0096738D01*
X0276791Y0096600D01*
X0291134Y0096600D01*
X0291134Y0096478D01*
X0291661Y0095950D01*
X0297525Y0095950D01*
X0298052Y0096478D01*
X0298052Y0103522D01*
X0297525Y0104050D01*
X0291661Y0104050D01*
X0291134Y0103442D02*
X0259084Y0103442D01*
X0269669Y0095662D02*
X0298974Y0095662D01*
X0298354Y0096260D02*
X0297835Y0096260D01*
X0298052Y0096859D02*
X0298214Y0096859D01*
X0298214Y0097457D02*
X0298052Y0097457D01*
X0298052Y0098056D02*
X0298214Y0098056D01*
X0298214Y0098654D02*
X0298052Y0098654D01*
X0298052Y0099253D02*
X0298214Y0099253D01*
X0298052Y0099851D02*
X0301773Y0099851D01*
X0301773Y0100300D02*
X0298214Y0100300D01*
X0298214Y0103321D01*
X0298303Y0103651D01*
X0298474Y0103948D01*
X0298716Y0104190D01*
X0299013Y0104361D01*
X0299343Y0104450D01*
X0301773Y0104450D01*
X0301773Y0100300D01*
X0301773Y0100450D02*
X0302373Y0100450D01*
X0302373Y0101048D02*
X0301773Y0101048D01*
X0301773Y0101647D02*
X0302373Y0101647D01*
X0302373Y0102245D02*
X0301773Y0102245D01*
X0301773Y0102844D02*
X0302373Y0102844D01*
X0302373Y0103442D02*
X0301773Y0103442D01*
X0301773Y0104041D02*
X0302373Y0104041D01*
X0305900Y0103442D02*
X0317033Y0103442D01*
X0317033Y0102844D02*
X0305933Y0102844D01*
X0305933Y0102245D02*
X0317033Y0102245D01*
X0317033Y0101647D02*
X0305933Y0101647D01*
X0305933Y0101048D02*
X0317033Y0101048D01*
X0317033Y0100450D02*
X0305933Y0100450D01*
X0305933Y0099253D02*
X0317033Y0099253D01*
X0317033Y0099851D02*
X0302374Y0099851D01*
X0302373Y0099253D02*
X0301773Y0099253D01*
X0301773Y0098654D02*
X0302373Y0098654D01*
X0302373Y0098056D02*
X0301773Y0098056D01*
X0301773Y0097457D02*
X0302373Y0097457D01*
X0302373Y0096859D02*
X0301773Y0096859D01*
X0301773Y0096260D02*
X0302373Y0096260D01*
X0302373Y0095662D02*
X0301773Y0095662D01*
X0305173Y0095662D02*
X0317033Y0095662D01*
X0317033Y0096260D02*
X0305793Y0096260D01*
X0305933Y0096859D02*
X0317033Y0096859D01*
X0317033Y0097457D02*
X0305933Y0097457D01*
X0305933Y0098056D02*
X0317033Y0098056D01*
X0317033Y0098654D02*
X0305933Y0098654D01*
X0298214Y0100450D02*
X0298052Y0100450D01*
X0298052Y0101048D02*
X0298214Y0101048D01*
X0298214Y0101647D02*
X0298052Y0101647D01*
X0298052Y0102245D02*
X0298214Y0102245D01*
X0298214Y0102844D02*
X0298052Y0102844D01*
X0298052Y0103442D02*
X0298247Y0103442D01*
X0298567Y0104041D02*
X0297534Y0104041D01*
X0291352Y0096260D02*
X0270268Y0096260D01*
X0269071Y0095063D02*
X0317033Y0095063D01*
X0317033Y0094465D02*
X0268472Y0094465D01*
X0267874Y0093866D02*
X0317033Y0093866D01*
X0317033Y0093268D02*
X0267275Y0093268D01*
X0266677Y0092669D02*
X0317033Y0092669D01*
X0317033Y0092070D02*
X0266078Y0092070D01*
X0265480Y0091472D02*
X0317033Y0091472D01*
X0317033Y0090873D02*
X0264881Y0090873D01*
X0264283Y0090275D02*
X0317033Y0090275D01*
X0317033Y0089676D02*
X0263684Y0089676D01*
X0263086Y0089078D02*
X0298604Y0089078D01*
X0298716Y0089190D02*
X0298474Y0088948D01*
X0298303Y0088651D01*
X0298214Y0088321D01*
X0298214Y0085300D01*
X0301773Y0085300D01*
X0301773Y0084700D01*
X0298214Y0084700D01*
X0298214Y0081679D01*
X0298303Y0081349D01*
X0298474Y0081052D01*
X0298716Y0080810D01*
X0299013Y0080639D01*
X0299343Y0080550D01*
X0301773Y0080550D01*
X0301773Y0084700D01*
X0302373Y0084700D01*
X0302373Y0080550D01*
X0304804Y0080550D01*
X0305134Y0080639D01*
X0305431Y0080810D01*
X0305673Y0081052D01*
X0305844Y0081349D01*
X0305933Y0081679D01*
X0305933Y0084700D01*
X0302374Y0084700D01*
X0302374Y0085300D01*
X0305933Y0085300D01*
X0305933Y0088321D01*
X0305844Y0088651D01*
X0305673Y0088948D01*
X0305431Y0089190D01*
X0305134Y0089361D01*
X0304804Y0089450D01*
X0302373Y0089450D01*
X0302373Y0085300D01*
X0301773Y0085300D01*
X0301773Y0089450D01*
X0299343Y0089450D01*
X0299013Y0089361D01*
X0298716Y0089190D01*
X0298257Y0088479D02*
X0298052Y0088479D01*
X0298052Y0088522D02*
X0297525Y0089050D01*
X0291661Y0089050D01*
X0291134Y0088522D01*
X0291134Y0088400D01*
X0276791Y0088400D01*
X0276458Y0088262D01*
X0274732Y0088262D01*
X0274205Y0087735D01*
X0274205Y0086009D01*
X0274067Y0085676D01*
X0274067Y0084324D01*
X0274205Y0083991D01*
X0274205Y0082265D01*
X0274732Y0081738D01*
X0276458Y0081738D01*
X0276791Y0081600D01*
X0291134Y0081600D01*
X0291134Y0081478D01*
X0291661Y0080950D01*
X0297525Y0080950D01*
X0298052Y0081478D01*
X0298052Y0088522D01*
X0298052Y0087881D02*
X0298214Y0087881D01*
X0298214Y0087282D02*
X0298052Y0087282D01*
X0298052Y0086684D02*
X0298214Y0086684D01*
X0298214Y0086085D02*
X0298052Y0086085D01*
X0298052Y0085487D02*
X0298214Y0085487D01*
X0298052Y0084888D02*
X0301773Y0084888D01*
X0301773Y0084290D02*
X0302373Y0084290D01*
X0302374Y0084888D02*
X0317033Y0084888D01*
X0317033Y0084290D02*
X0305933Y0084290D01*
X0305933Y0083691D02*
X0317033Y0083691D01*
X0317033Y0083093D02*
X0305933Y0083093D01*
X0305933Y0082494D02*
X0317033Y0082494D01*
X0317033Y0081896D02*
X0305933Y0081896D01*
X0305814Y0081297D02*
X0317033Y0081297D01*
X0317033Y0080699D02*
X0305238Y0080699D01*
X0302373Y0080699D02*
X0301773Y0080699D01*
X0301773Y0081297D02*
X0302373Y0081297D01*
X0302373Y0081896D02*
X0301773Y0081896D01*
X0301773Y0082494D02*
X0302373Y0082494D01*
X0302373Y0083093D02*
X0301773Y0083093D01*
X0301773Y0083691D02*
X0302373Y0083691D01*
X0302373Y0085487D02*
X0301773Y0085487D01*
X0301773Y0086085D02*
X0302373Y0086085D01*
X0302373Y0086684D02*
X0301773Y0086684D01*
X0301773Y0087282D02*
X0302373Y0087282D01*
X0302373Y0087881D02*
X0301773Y0087881D01*
X0301773Y0088479D02*
X0302373Y0088479D01*
X0302373Y0089078D02*
X0301773Y0089078D01*
X0305543Y0089078D02*
X0317033Y0089078D01*
X0317033Y0088479D02*
X0305890Y0088479D01*
X0305933Y0087881D02*
X0317033Y0087881D01*
X0317033Y0087282D02*
X0305933Y0087282D01*
X0305933Y0086684D02*
X0317033Y0086684D01*
X0317033Y0086085D02*
X0305933Y0086085D01*
X0305933Y0085487D02*
X0317033Y0085487D01*
X0317033Y0080100D02*
X0263242Y0080100D01*
X0262643Y0079502D02*
X0317033Y0079502D01*
X0317033Y0078903D02*
X0262045Y0078903D01*
X0261446Y0078305D02*
X0317033Y0078305D01*
X0317033Y0077706D02*
X0260848Y0077706D01*
X0261216Y0078074D02*
X0261216Y0078074D01*
X0260235Y0077108D02*
X0317033Y0077108D01*
X0317033Y0076509D02*
X0252151Y0076509D01*
X0251896Y0075911D02*
X0317033Y0075911D01*
X0317033Y0075312D02*
X0251648Y0075312D01*
X0251062Y0074714D02*
X0317033Y0074714D01*
X0317033Y0074115D02*
X0250353Y0074115D01*
X0246314Y0074115D02*
X0004633Y0074115D01*
X0004633Y0073517D02*
X0317033Y0073517D01*
X0317033Y0072918D02*
X0004633Y0072918D01*
X0004633Y0072320D02*
X0317033Y0072320D01*
X0317033Y0071721D02*
X0004633Y0071721D01*
X0004633Y0071123D02*
X0317033Y0071123D01*
X0317033Y0070524D02*
X0004633Y0070524D01*
X0004633Y0069926D02*
X0317033Y0069926D01*
X0317033Y0069327D02*
X0004633Y0069327D01*
X0004633Y0068729D02*
X0136410Y0068729D01*
X0136583Y0068800D02*
X0133349Y0067460D01*
X0130873Y0064985D01*
X0129533Y0061750D01*
X0129533Y0058250D01*
X0130873Y0055015D01*
X0133349Y0052540D01*
X0136583Y0051200D01*
X0140084Y0051200D01*
X0143318Y0052540D01*
X0145794Y0055015D01*
X0147133Y0058250D01*
X0147133Y0061750D01*
X0145794Y0064985D01*
X0143318Y0067460D01*
X0140084Y0068800D01*
X0136583Y0068800D01*
X0134965Y0068130D02*
X0004633Y0068130D01*
X0004633Y0067532D02*
X0133521Y0067532D01*
X0132821Y0066933D02*
X0004633Y0066933D01*
X0004633Y0066334D02*
X0132223Y0066334D01*
X0131624Y0065736D02*
X0004633Y0065736D01*
X0004633Y0065137D02*
X0131026Y0065137D01*
X0130688Y0064539D02*
X0004633Y0064539D01*
X0004633Y0063940D02*
X0130440Y0063940D01*
X0130193Y0063342D02*
X0004633Y0063342D01*
X0004633Y0062743D02*
X0016123Y0062743D01*
X0016742Y0063000D02*
X0013802Y0061782D01*
X0013802Y0061782D01*
X0011551Y0059532D01*
X0011551Y0059532D01*
X0010333Y0056591D01*
X0010333Y0053409D01*
X0011551Y0050468D01*
X0013802Y0048218D01*
X0016742Y0047000D01*
X0018043Y0047000D01*
X0019925Y0047000D01*
X0022865Y0048218D01*
X0025115Y0050468D01*
X0026333Y0053409D01*
X0026333Y0056591D01*
X0025115Y0059532D01*
X0022865Y0061782D01*
X0022865Y0061782D01*
X0019925Y0063000D01*
X0016742Y0063000D01*
X0014678Y0062145D02*
X0004633Y0062145D01*
X0004633Y0061546D02*
X0013566Y0061546D01*
X0012968Y0060948D02*
X0004633Y0060948D01*
X0004633Y0060349D02*
X0012369Y0060349D01*
X0011770Y0059751D02*
X0004633Y0059751D01*
X0004633Y0059152D02*
X0011394Y0059152D01*
X0011146Y0058554D02*
X0004633Y0058554D01*
X0004633Y0057955D02*
X0010898Y0057955D01*
X0010650Y0057357D02*
X0004633Y0057357D01*
X0004633Y0056758D02*
X0010403Y0056758D01*
X0010333Y0056160D02*
X0004633Y0056160D01*
X0004633Y0055561D02*
X0010333Y0055561D01*
X0010333Y0054963D02*
X0004633Y0054963D01*
X0004633Y0054364D02*
X0010333Y0054364D01*
X0010333Y0053766D02*
X0004633Y0053766D01*
X0004633Y0053167D02*
X0010433Y0053167D01*
X0010681Y0052569D02*
X0004633Y0052569D01*
X0004633Y0051970D02*
X0010929Y0051970D01*
X0011177Y0051372D02*
X0004633Y0051372D01*
X0004633Y0050773D02*
X0011425Y0050773D01*
X0011551Y0050468D02*
X0011551Y0050468D01*
X0011845Y0050175D02*
X0004633Y0050175D01*
X0004633Y0049576D02*
X0012443Y0049576D01*
X0013042Y0048978D02*
X0004633Y0048978D01*
X0004633Y0048379D02*
X0013640Y0048379D01*
X0014857Y0047781D02*
X0004633Y0047781D01*
X0004633Y0047182D02*
X0016302Y0047182D01*
X0020364Y0047182D02*
X0301302Y0047182D01*
X0301742Y0047000D02*
X0303043Y0047000D01*
X0304925Y0047000D01*
X0307865Y0048218D01*
X0310115Y0050468D01*
X0311333Y0053409D01*
X0311333Y0056591D01*
X0310115Y0059532D01*
X0307865Y0061782D01*
X0307865Y0061782D01*
X0304925Y0063000D01*
X0301742Y0063000D01*
X0298802Y0061782D01*
X0298802Y0061782D01*
X0296551Y0059532D01*
X0296551Y0059532D01*
X0295333Y0056591D01*
X0295333Y0053409D01*
X0296551Y0050468D01*
X0298802Y0048218D01*
X0301742Y0047000D01*
X0299857Y0047781D02*
X0021809Y0047781D01*
X0022865Y0048218D02*
X0022865Y0048218D01*
X0023026Y0048379D02*
X0298640Y0048379D01*
X0298802Y0048218D02*
X0298802Y0048218D01*
X0298042Y0048978D02*
X0023625Y0048978D01*
X0024223Y0049576D02*
X0297443Y0049576D01*
X0296845Y0050175D02*
X0024822Y0050175D01*
X0025115Y0050468D02*
X0025115Y0050468D01*
X0025242Y0050773D02*
X0296425Y0050773D01*
X0296551Y0050468D02*
X0296551Y0050468D01*
X0296177Y0051372D02*
X0245498Y0051372D01*
X0245084Y0051200D02*
X0248318Y0052540D01*
X0250794Y0055015D01*
X0252133Y0058250D01*
X0252133Y0061750D01*
X0250794Y0064985D01*
X0248318Y0067460D01*
X0245084Y0068800D01*
X0241583Y0068800D01*
X0238349Y0067460D01*
X0235873Y0064985D01*
X0234533Y0061750D01*
X0234533Y0058250D01*
X0235873Y0055015D01*
X0238349Y0052540D01*
X0241583Y0051200D01*
X0245084Y0051200D01*
X0246943Y0051970D02*
X0295929Y0051970D01*
X0295681Y0052569D02*
X0248347Y0052569D01*
X0248946Y0053167D02*
X0295433Y0053167D01*
X0295333Y0053766D02*
X0249544Y0053766D01*
X0250143Y0054364D02*
X0295333Y0054364D01*
X0295333Y0054963D02*
X0250741Y0054963D01*
X0251020Y0055561D02*
X0295333Y0055561D01*
X0295333Y0056160D02*
X0251268Y0056160D01*
X0251516Y0056758D02*
X0295403Y0056758D01*
X0295650Y0057357D02*
X0251764Y0057357D01*
X0252011Y0057955D02*
X0295898Y0057955D01*
X0296146Y0058554D02*
X0252133Y0058554D01*
X0252133Y0059152D02*
X0296394Y0059152D01*
X0296770Y0059751D02*
X0252133Y0059751D01*
X0252133Y0060349D02*
X0297369Y0060349D01*
X0297968Y0060948D02*
X0252133Y0060948D01*
X0252133Y0061546D02*
X0298566Y0061546D01*
X0299678Y0062145D02*
X0251970Y0062145D01*
X0251722Y0062743D02*
X0301123Y0062743D01*
X0305544Y0062743D02*
X0317033Y0062743D01*
X0317033Y0062145D02*
X0306989Y0062145D01*
X0308101Y0061546D02*
X0317033Y0061546D01*
X0317033Y0060948D02*
X0308699Y0060948D01*
X0309298Y0060349D02*
X0317033Y0060349D01*
X0317033Y0059751D02*
X0309896Y0059751D01*
X0310115Y0059532D02*
X0310115Y0059532D01*
X0310272Y0059152D02*
X0317033Y0059152D01*
X0317033Y0058554D02*
X0310520Y0058554D01*
X0310768Y0057955D02*
X0317033Y0057955D01*
X0317033Y0057357D02*
X0311016Y0057357D01*
X0311264Y0056758D02*
X0317033Y0056758D01*
X0317033Y0056160D02*
X0311333Y0056160D01*
X0311333Y0055561D02*
X0317033Y0055561D01*
X0317033Y0054963D02*
X0311333Y0054963D01*
X0311333Y0054364D02*
X0317033Y0054364D01*
X0317033Y0053766D02*
X0311333Y0053766D01*
X0311233Y0053167D02*
X0317033Y0053167D01*
X0317033Y0052569D02*
X0310985Y0052569D01*
X0310737Y0051970D02*
X0317033Y0051970D01*
X0317033Y0051372D02*
X0310490Y0051372D01*
X0310242Y0050773D02*
X0317033Y0050773D01*
X0317033Y0050175D02*
X0309822Y0050175D01*
X0310115Y0050468D02*
X0310115Y0050468D01*
X0309223Y0049576D02*
X0317033Y0049576D01*
X0317033Y0048978D02*
X0308625Y0048978D01*
X0308026Y0048379D02*
X0317033Y0048379D01*
X0317033Y0047781D02*
X0306809Y0047781D01*
X0307865Y0048218D02*
X0307865Y0048218D01*
X0305364Y0047182D02*
X0317033Y0047182D01*
X0317033Y0046584D02*
X0004633Y0046584D01*
X0004633Y0045985D02*
X0317033Y0045985D01*
X0317033Y0045387D02*
X0004633Y0045387D01*
X0004633Y0044788D02*
X0317033Y0044788D01*
X0317033Y0044190D02*
X0004633Y0044190D01*
X0004633Y0043591D02*
X0317033Y0043591D01*
X0317033Y0042993D02*
X0004633Y0042993D01*
X0004633Y0042394D02*
X0317033Y0042394D01*
X0317033Y0041796D02*
X0004633Y0041796D01*
X0025490Y0051372D02*
X0136168Y0051372D01*
X0134723Y0051970D02*
X0025737Y0051970D01*
X0025985Y0052569D02*
X0133320Y0052569D01*
X0132721Y0053167D02*
X0026233Y0053167D01*
X0026333Y0053766D02*
X0132122Y0053766D01*
X0131524Y0054364D02*
X0026333Y0054364D01*
X0026333Y0054963D02*
X0130925Y0054963D01*
X0130647Y0055561D02*
X0026333Y0055561D01*
X0026333Y0056160D02*
X0130399Y0056160D01*
X0130151Y0056758D02*
X0026264Y0056758D01*
X0026016Y0057357D02*
X0129903Y0057357D01*
X0129655Y0057955D02*
X0025768Y0057955D01*
X0025520Y0058554D02*
X0129533Y0058554D01*
X0129533Y0059152D02*
X0025272Y0059152D01*
X0025115Y0059532D02*
X0025115Y0059532D01*
X0024896Y0059751D02*
X0129533Y0059751D01*
X0129533Y0060349D02*
X0024298Y0060349D01*
X0023699Y0060948D02*
X0129533Y0060948D01*
X0129533Y0061546D02*
X0023101Y0061546D01*
X0021989Y0062145D02*
X0129697Y0062145D01*
X0129945Y0062743D02*
X0020544Y0062743D01*
X0004633Y0074714D02*
X0245604Y0074714D01*
X0245018Y0075312D02*
X0004633Y0075312D01*
X0004633Y0075911D02*
X0244770Y0075911D01*
X0244522Y0076509D02*
X0004633Y0076509D01*
X0004633Y0077108D02*
X0244433Y0077108D01*
X0244433Y0077706D02*
X0004633Y0077706D01*
X0004633Y0078305D02*
X0244445Y0078305D01*
X0244693Y0078903D02*
X0004633Y0078903D01*
X0004633Y0079502D02*
X0244941Y0079502D01*
X0245418Y0080100D02*
X0004633Y0080100D01*
X0004633Y0080699D02*
X0246017Y0080699D01*
X0247310Y0081297D02*
X0004633Y0081297D01*
X0004633Y0081896D02*
X0247921Y0081896D01*
X0248519Y0082494D02*
X0234084Y0082494D01*
X0235281Y0083093D02*
X0249415Y0083093D01*
X0249330Y0083691D02*
X0257216Y0083691D01*
X0262487Y0088479D02*
X0291134Y0088479D01*
X0298052Y0084290D02*
X0298214Y0084290D01*
X0298214Y0083691D02*
X0298052Y0083691D01*
X0298052Y0083093D02*
X0298214Y0083093D01*
X0298214Y0082494D02*
X0298052Y0082494D01*
X0298052Y0081896D02*
X0298214Y0081896D01*
X0298333Y0081297D02*
X0297872Y0081297D01*
X0298909Y0080699D02*
X0263840Y0080699D01*
X0264439Y0081297D02*
X0291314Y0081297D01*
X0274574Y0081896D02*
X0272092Y0081896D01*
X0272462Y0082494D02*
X0274205Y0082494D01*
X0274205Y0083093D02*
X0272462Y0083093D01*
X0272462Y0083691D02*
X0274205Y0083691D01*
X0274081Y0084290D02*
X0272585Y0084290D01*
X0272599Y0084888D02*
X0274067Y0084888D01*
X0274067Y0085487D02*
X0272599Y0085487D01*
X0272462Y0086085D02*
X0274205Y0086085D01*
X0274205Y0086684D02*
X0272462Y0086684D01*
X0272462Y0087282D02*
X0274205Y0087282D01*
X0274351Y0087881D02*
X0272316Y0087881D01*
X0272055Y0096859D02*
X0274611Y0096859D01*
X0274205Y0097457D02*
X0272462Y0097457D01*
X0272462Y0098056D02*
X0274205Y0098056D01*
X0274205Y0098654D02*
X0272462Y0098654D01*
X0272570Y0099253D02*
X0274097Y0099253D01*
X0274067Y0099851D02*
X0272599Y0099851D01*
X0272599Y0100450D02*
X0274067Y0100450D01*
X0274205Y0101048D02*
X0272462Y0101048D01*
X0272462Y0101647D02*
X0274205Y0101647D01*
X0274205Y0102245D02*
X0272462Y0102245D01*
X0272353Y0102844D02*
X0274314Y0102844D01*
X0274649Y0111821D02*
X0272018Y0111821D01*
X0272462Y0112420D02*
X0274205Y0112420D01*
X0274205Y0113018D02*
X0272462Y0113018D01*
X0272462Y0113617D02*
X0274205Y0113617D01*
X0274112Y0114215D02*
X0272555Y0114215D01*
X0272599Y0114814D02*
X0274067Y0114814D01*
X0274067Y0115412D02*
X0272599Y0115412D01*
X0272462Y0116011D02*
X0274205Y0116011D01*
X0274205Y0116609D02*
X0272462Y0116609D01*
X0272462Y0117208D02*
X0274205Y0117208D01*
X0274276Y0117806D02*
X0272390Y0117806D01*
X0262372Y0127981D02*
X0252233Y0127981D01*
X0252233Y0127383D02*
X0261774Y0127383D01*
X0261175Y0126784D02*
X0252233Y0126784D01*
X0252010Y0126186D02*
X0260577Y0126186D01*
X0259978Y0125587D02*
X0251762Y0125587D01*
X0251337Y0124989D02*
X0259380Y0124989D01*
X0258781Y0124390D02*
X0250739Y0124390D01*
X0249572Y0123792D02*
X0258183Y0123792D01*
X0257584Y0123193D02*
X0248835Y0123193D01*
X0248236Y0122595D02*
X0256986Y0122595D01*
X0256387Y0121996D02*
X0247638Y0121996D01*
X0247552Y0121398D02*
X0247039Y0121398D01*
X0249115Y0121398D02*
X0255789Y0121398D01*
X0255190Y0120799D02*
X0250550Y0120799D01*
X0251148Y0120201D02*
X0254592Y0120201D01*
X0253993Y0119602D02*
X0251684Y0119602D01*
X0251932Y0119003D02*
X0253395Y0119003D01*
X0252796Y0118405D02*
X0252180Y0118405D01*
X0243408Y0127383D02*
X0232233Y0127383D01*
X0232233Y0127981D02*
X0244006Y0127981D01*
X0244559Y0128580D02*
X0232107Y0128580D01*
X0231860Y0129178D02*
X0244807Y0129178D01*
X0245095Y0129777D02*
X0231572Y0129777D01*
X0230974Y0130375D02*
X0245693Y0130375D01*
X0246528Y0130974D02*
X0230138Y0130974D01*
X0232233Y0126784D02*
X0242809Y0126784D01*
X0242211Y0126186D02*
X0232010Y0126186D01*
X0231762Y0125587D02*
X0241612Y0125587D01*
X0241014Y0124989D02*
X0231337Y0124989D01*
X0230739Y0124390D02*
X0240415Y0124390D01*
X0239817Y0123792D02*
X0229572Y0123792D01*
X0228047Y0122595D02*
X0238620Y0122595D01*
X0239218Y0123193D02*
X0227449Y0123193D01*
X0227095Y0123792D02*
X0226850Y0123792D01*
X0228646Y0121996D02*
X0238021Y0121996D01*
X0237423Y0121398D02*
X0229244Y0121398D01*
X0230550Y0120799D02*
X0236824Y0120799D01*
X0236226Y0120201D02*
X0231148Y0120201D01*
X0231684Y0119602D02*
X0235627Y0119602D01*
X0235029Y0119003D02*
X0231932Y0119003D01*
X0232180Y0118405D02*
X0234430Y0118405D01*
X0233831Y0117806D02*
X0232233Y0117806D01*
X0232233Y0117208D02*
X0233233Y0117208D01*
X0232634Y0116609D02*
X0232186Y0116609D01*
X0232036Y0116011D02*
X0231938Y0116011D01*
X0224729Y0116011D02*
X0224631Y0116011D01*
X0224416Y0116609D02*
X0224032Y0116609D01*
X0223817Y0117208D02*
X0223434Y0117208D01*
X0223219Y0117806D02*
X0222835Y0117806D01*
X0222620Y0118405D02*
X0222237Y0118405D01*
X0222022Y0119003D02*
X0221638Y0119003D01*
X0221423Y0119602D02*
X0221040Y0119602D01*
X0220824Y0120201D02*
X0220441Y0120201D01*
X0220226Y0120799D02*
X0219843Y0120799D01*
X0219627Y0121398D02*
X0219244Y0121398D01*
X0219029Y0121996D02*
X0218646Y0121996D01*
X0218430Y0122595D02*
X0218047Y0122595D01*
X0217832Y0123193D02*
X0217449Y0123193D01*
X0217233Y0123792D02*
X0216850Y0123792D01*
X0216635Y0124390D02*
X0216252Y0124390D01*
X0216036Y0124989D02*
X0215653Y0124989D01*
X0215438Y0125587D02*
X0215055Y0125587D01*
X0214839Y0126186D02*
X0214456Y0126186D01*
X0214241Y0126784D02*
X0213857Y0126784D01*
X0213642Y0127383D02*
X0213259Y0127383D01*
X0213044Y0127981D02*
X0212660Y0127981D01*
X0212445Y0128580D02*
X0212062Y0128580D01*
X0211847Y0129178D02*
X0211463Y0129178D01*
X0211248Y0129777D02*
X0210865Y0129777D01*
X0210650Y0130375D02*
X0210266Y0130375D01*
X0210051Y0130974D02*
X0209668Y0130974D01*
X0209453Y0131572D02*
X0209069Y0131572D01*
X0208854Y0132171D02*
X0208471Y0132171D01*
X0208256Y0132769D02*
X0207872Y0132769D01*
X0207657Y0133368D02*
X0207274Y0133368D01*
X0207059Y0133966D02*
X0206675Y0133966D01*
X0206460Y0134565D02*
X0206077Y0134565D01*
X0205862Y0135163D02*
X0205478Y0135163D01*
X0205263Y0135762D02*
X0204880Y0135762D01*
X0204665Y0136360D02*
X0204281Y0136360D01*
X0204066Y0136959D02*
X0203683Y0136959D01*
X0203468Y0137557D02*
X0203084Y0137557D01*
X0202869Y0138156D02*
X0202486Y0138156D01*
X0202271Y0138754D02*
X0201887Y0138754D01*
X0201672Y0139353D02*
X0201289Y0139353D01*
X0201074Y0139951D02*
X0200690Y0139951D01*
X0200475Y0140550D02*
X0200092Y0140550D01*
X0199877Y0141148D02*
X0199493Y0141148D01*
X0199278Y0141747D02*
X0198895Y0141747D01*
X0198680Y0142345D02*
X0198296Y0142345D01*
X0198081Y0142944D02*
X0197698Y0142944D01*
X0197483Y0143542D02*
X0197099Y0143542D01*
X0196884Y0144141D02*
X0196501Y0144141D01*
X0196286Y0144739D02*
X0195902Y0144739D01*
X0195687Y0145338D02*
X0195304Y0145338D01*
X0195088Y0145937D02*
X0194705Y0145937D01*
X0194490Y0146535D02*
X0194107Y0146535D01*
X0193891Y0147134D02*
X0193508Y0147134D01*
X0193293Y0147732D02*
X0192910Y0147732D01*
X0192694Y0148331D02*
X0192311Y0148331D01*
X0192096Y0148929D02*
X0191713Y0148929D01*
X0191497Y0149528D02*
X0191114Y0149528D01*
X0190899Y0150126D02*
X0190516Y0150126D01*
X0190300Y0150725D02*
X0189917Y0150725D01*
X0189702Y0151323D02*
X0189319Y0151323D01*
X0189103Y0151922D02*
X0188720Y0151922D01*
X0188505Y0152520D02*
X0188122Y0152520D01*
X0187906Y0153119D02*
X0187523Y0153119D01*
X0187308Y0153717D02*
X0186924Y0153717D01*
X0186709Y0154316D02*
X0186326Y0154316D01*
X0186111Y0154914D02*
X0185727Y0154914D01*
X0185512Y0155513D02*
X0185129Y0155513D01*
X0184914Y0156111D02*
X0184530Y0156111D01*
X0184315Y0156710D02*
X0183932Y0156710D01*
X0183717Y0157308D02*
X0183333Y0157308D01*
X0183118Y0157907D02*
X0182735Y0157907D01*
X0182520Y0158505D02*
X0182136Y0158505D01*
X0181921Y0159104D02*
X0181538Y0159104D01*
X0181323Y0159702D02*
X0180939Y0159702D01*
X0180724Y0160301D02*
X0180341Y0160301D01*
X0180126Y0160899D02*
X0179742Y0160899D01*
X0179527Y0161498D02*
X0179144Y0161498D01*
X0178929Y0162096D02*
X0178545Y0162096D01*
X0178330Y0162695D02*
X0177947Y0162695D01*
X0177732Y0163293D02*
X0177348Y0163293D01*
X0177133Y0163892D02*
X0176750Y0163892D01*
X0176535Y0164490D02*
X0176151Y0164490D01*
X0175936Y0165089D02*
X0175553Y0165089D01*
X0175338Y0165687D02*
X0174954Y0165687D01*
X0174739Y0166286D02*
X0174356Y0166286D01*
X0174141Y0166884D02*
X0173757Y0166884D01*
X0173542Y0167483D02*
X0173159Y0167483D01*
X0172944Y0168081D02*
X0172560Y0168081D01*
X0172345Y0168680D02*
X0171962Y0168680D01*
X0171747Y0169278D02*
X0171363Y0169278D01*
X0171148Y0169877D02*
X0170765Y0169877D01*
X0170550Y0170475D02*
X0170166Y0170475D01*
X0169951Y0171074D02*
X0169568Y0171074D01*
X0169353Y0171672D02*
X0168969Y0171672D01*
X0168754Y0172271D02*
X0168371Y0172271D01*
X0168155Y0172870D02*
X0167772Y0172870D01*
X0167557Y0173468D02*
X0167174Y0173468D01*
X0166958Y0174067D02*
X0166575Y0174067D01*
X0166360Y0174665D02*
X0165977Y0174665D01*
X0165761Y0175264D02*
X0165378Y0175264D01*
X0165163Y0175862D02*
X0164780Y0175862D01*
X0164564Y0176461D02*
X0164181Y0176461D01*
X0163966Y0177059D02*
X0163583Y0177059D01*
X0163367Y0177658D02*
X0162984Y0177658D01*
X0162769Y0178256D02*
X0162386Y0178256D01*
X0162170Y0178855D02*
X0161787Y0178855D01*
X0161572Y0179453D02*
X0161188Y0179453D01*
X0160973Y0180052D02*
X0160590Y0180052D01*
X0160375Y0180650D02*
X0159991Y0180650D01*
X0159776Y0181249D02*
X0159393Y0181249D01*
X0159178Y0181847D02*
X0158794Y0181847D01*
X0158579Y0182446D02*
X0158196Y0182446D01*
X0157981Y0183044D02*
X0157597Y0183044D01*
X0157382Y0183643D02*
X0156999Y0183643D01*
X0156784Y0184241D02*
X0156400Y0184241D01*
X0156185Y0184840D02*
X0155802Y0184840D01*
X0155800Y0185438D02*
X0155203Y0185438D01*
X0155552Y0186037D02*
X0154605Y0186037D01*
X0154006Y0186635D02*
X0155433Y0186635D01*
X0155433Y0187234D02*
X0153408Y0187234D01*
X0152809Y0187832D02*
X0155433Y0187832D01*
X0155433Y0188431D02*
X0152211Y0188431D01*
X0151612Y0189029D02*
X0155433Y0189029D01*
X0155433Y0189628D02*
X0151014Y0189628D01*
X0150415Y0190226D02*
X0155433Y0190226D01*
X0155433Y0190825D02*
X0149817Y0190825D01*
X0149218Y0191423D02*
X0155433Y0191423D01*
X0155433Y0192022D02*
X0148620Y0192022D01*
X0148021Y0192620D02*
X0155433Y0192620D01*
X0155433Y0193219D02*
X0147423Y0193219D01*
X0146824Y0193817D02*
X0155433Y0193817D01*
X0155433Y0194416D02*
X0146226Y0194416D01*
X0145627Y0195014D02*
X0155433Y0195014D01*
X0155433Y0195613D02*
X0145029Y0195613D01*
X0144430Y0196211D02*
X0155433Y0196211D01*
X0155433Y0196810D02*
X0143832Y0196810D01*
X0143233Y0197408D02*
X0155433Y0197408D01*
X0155433Y0198007D02*
X0142635Y0198007D01*
X0142036Y0198605D02*
X0155433Y0198605D01*
X0155433Y0199204D02*
X0141438Y0199204D01*
X0140839Y0199803D02*
X0155433Y0199803D01*
X0155433Y0200401D02*
X0140241Y0200401D01*
X0139642Y0201000D02*
X0155433Y0201000D01*
X0155433Y0201598D02*
X0139044Y0201598D01*
X0138445Y0202197D02*
X0155131Y0202197D01*
X0154768Y0202795D02*
X0137847Y0202795D01*
X0137248Y0203394D02*
X0154520Y0203394D01*
X0154272Y0203992D02*
X0136650Y0203992D01*
X0136051Y0204591D02*
X0154233Y0204591D01*
X0154233Y0205189D02*
X0135453Y0205189D01*
X0134854Y0205788D02*
X0154233Y0205788D01*
X0154428Y0206386D02*
X0134255Y0206386D01*
X0133657Y0206985D02*
X0154676Y0206985D01*
X0154924Y0207583D02*
X0133058Y0207583D01*
X0132037Y0208182D02*
X0155510Y0208182D01*
X0156108Y0208780D02*
X0121559Y0208780D01*
X0120283Y0209379D02*
X0157384Y0209379D01*
X0156494Y0210576D02*
X0119173Y0210576D01*
X0120513Y0211174D02*
X0155154Y0211174D01*
X0159173Y0210576D02*
X0196494Y0210576D01*
X0195154Y0211174D02*
X0160513Y0211174D01*
X0160283Y0209379D02*
X0197384Y0209379D01*
X0196108Y0208780D02*
X0161559Y0208780D01*
X0162157Y0208182D02*
X0195510Y0208182D01*
X0194924Y0207583D02*
X0162742Y0207583D01*
X0162990Y0206985D02*
X0194676Y0206985D01*
X0194428Y0206386D02*
X0163238Y0206386D01*
X0163433Y0205788D02*
X0194233Y0205788D01*
X0194233Y0205189D02*
X0163433Y0205189D01*
X0163433Y0204591D02*
X0194233Y0204591D01*
X0194272Y0203992D02*
X0163395Y0203992D01*
X0163147Y0203394D02*
X0194520Y0203394D01*
X0194768Y0202795D02*
X0162899Y0202795D01*
X0162535Y0202197D02*
X0195131Y0202197D01*
X0195433Y0201598D02*
X0162233Y0201598D01*
X0162233Y0201000D02*
X0195433Y0201000D01*
X0195433Y0200401D02*
X0162233Y0200401D01*
X0162233Y0199803D02*
X0195433Y0199803D01*
X0195433Y0199204D02*
X0162233Y0199204D01*
X0162233Y0198605D02*
X0195433Y0198605D01*
X0195433Y0198007D02*
X0162233Y0198007D01*
X0162233Y0197408D02*
X0195433Y0197408D01*
X0195433Y0196810D02*
X0162233Y0196810D01*
X0162233Y0196211D02*
X0195433Y0196211D01*
X0195433Y0195613D02*
X0162233Y0195613D01*
X0162233Y0195014D02*
X0195433Y0195014D01*
X0195433Y0194416D02*
X0162233Y0194416D01*
X0162233Y0193817D02*
X0195433Y0193817D01*
X0195433Y0193219D02*
X0162233Y0193219D01*
X0162233Y0192620D02*
X0195433Y0192620D01*
X0195433Y0192022D02*
X0162233Y0192022D01*
X0162233Y0191423D02*
X0195433Y0191423D01*
X0195433Y0190825D02*
X0162233Y0190825D01*
X0162233Y0190226D02*
X0195433Y0190226D01*
X0195433Y0189628D02*
X0162233Y0189628D01*
X0162233Y0189029D02*
X0195433Y0189029D01*
X0195433Y0188431D02*
X0162233Y0188431D01*
X0162809Y0187832D02*
X0195433Y0187832D01*
X0195433Y0187234D02*
X0163408Y0187234D01*
X0164006Y0186635D02*
X0195433Y0186635D01*
X0195433Y0186037D02*
X0164605Y0186037D01*
X0165203Y0185438D02*
X0195433Y0185438D01*
X0195433Y0184840D02*
X0165802Y0184840D01*
X0166400Y0184241D02*
X0195433Y0184241D01*
X0195433Y0183643D02*
X0166999Y0183643D01*
X0167597Y0183044D02*
X0195433Y0183044D01*
X0195433Y0182446D02*
X0168196Y0182446D01*
X0168794Y0181847D02*
X0195433Y0181847D01*
X0195433Y0181249D02*
X0169393Y0181249D01*
X0169991Y0180650D02*
X0195433Y0180650D01*
X0195433Y0180052D02*
X0170590Y0180052D01*
X0171188Y0179453D02*
X0195433Y0179453D01*
X0195433Y0178855D02*
X0171787Y0178855D01*
X0172386Y0178256D02*
X0195433Y0178256D01*
X0195433Y0177658D02*
X0172984Y0177658D01*
X0173583Y0177059D02*
X0195433Y0177059D01*
X0195433Y0176461D02*
X0174181Y0176461D01*
X0174780Y0175862D02*
X0195433Y0175862D01*
X0195433Y0175264D02*
X0175378Y0175264D01*
X0175977Y0174665D02*
X0195433Y0174665D01*
X0195433Y0174067D02*
X0176575Y0174067D01*
X0177174Y0173468D02*
X0195433Y0173468D01*
X0195433Y0172870D02*
X0177772Y0172870D01*
X0178371Y0172271D02*
X0195433Y0172271D01*
X0195433Y0171672D02*
X0178969Y0171672D01*
X0179568Y0171074D02*
X0195433Y0171074D01*
X0195433Y0170475D02*
X0180166Y0170475D01*
X0180765Y0169877D02*
X0195433Y0169877D01*
X0195433Y0169278D02*
X0181363Y0169278D01*
X0181962Y0168680D02*
X0195433Y0168680D01*
X0195433Y0168081D02*
X0182560Y0168081D01*
X0183159Y0167483D02*
X0195433Y0167483D01*
X0195433Y0166884D02*
X0183757Y0166884D01*
X0184356Y0166286D02*
X0195433Y0166286D01*
X0195433Y0165687D02*
X0184954Y0165687D01*
X0185553Y0165089D02*
X0195433Y0165089D01*
X0195433Y0164490D02*
X0186151Y0164490D01*
X0186750Y0163892D02*
X0195433Y0163892D01*
X0195433Y0163293D02*
X0187348Y0163293D01*
X0187947Y0162695D02*
X0195433Y0162695D01*
X0195433Y0162096D02*
X0188545Y0162096D01*
X0189144Y0161498D02*
X0195433Y0161498D01*
X0195433Y0160899D02*
X0189742Y0160899D01*
X0190341Y0160301D02*
X0195433Y0160301D01*
X0195433Y0159702D02*
X0190939Y0159702D01*
X0191538Y0159104D02*
X0195433Y0159104D01*
X0195433Y0158505D02*
X0192136Y0158505D01*
X0192735Y0157907D02*
X0195433Y0157907D01*
X0195433Y0157308D02*
X0193333Y0157308D01*
X0193932Y0156710D02*
X0195433Y0156710D01*
X0195521Y0156111D02*
X0194530Y0156111D01*
X0195129Y0155513D02*
X0195769Y0155513D01*
X0195727Y0154914D02*
X0196111Y0154914D01*
X0196326Y0154316D02*
X0196709Y0154316D01*
X0196924Y0153717D02*
X0197308Y0153717D01*
X0197523Y0153119D02*
X0197906Y0153119D01*
X0198122Y0152520D02*
X0198505Y0152520D01*
X0198720Y0151922D02*
X0199103Y0151922D01*
X0199319Y0151323D02*
X0199702Y0151323D01*
X0199917Y0150725D02*
X0200300Y0150725D01*
X0200516Y0150126D02*
X0200899Y0150126D01*
X0201114Y0149528D02*
X0201497Y0149528D01*
X0201713Y0148929D02*
X0202096Y0148929D01*
X0202311Y0148331D02*
X0202694Y0148331D01*
X0202910Y0147732D02*
X0203293Y0147732D01*
X0203508Y0147134D02*
X0203891Y0147134D01*
X0204107Y0146535D02*
X0204490Y0146535D01*
X0204705Y0145937D02*
X0205088Y0145937D01*
X0205304Y0145338D02*
X0205687Y0145338D01*
X0205902Y0144739D02*
X0206286Y0144739D01*
X0206501Y0144141D02*
X0206884Y0144141D01*
X0207099Y0143542D02*
X0207483Y0143542D01*
X0207698Y0142944D02*
X0208081Y0142944D01*
X0208296Y0142345D02*
X0208680Y0142345D01*
X0208895Y0141747D02*
X0209278Y0141747D01*
X0209493Y0141148D02*
X0209877Y0141148D01*
X0210092Y0140550D02*
X0210475Y0140550D01*
X0210690Y0139951D02*
X0211074Y0139951D01*
X0211289Y0139353D02*
X0211672Y0139353D01*
X0211887Y0138754D02*
X0212271Y0138754D01*
X0212486Y0138156D02*
X0212869Y0138156D01*
X0213084Y0137557D02*
X0213468Y0137557D01*
X0213683Y0136959D02*
X0214066Y0136959D01*
X0214281Y0136360D02*
X0214665Y0136360D01*
X0214880Y0135762D02*
X0215263Y0135762D01*
X0215478Y0135163D02*
X0215862Y0135163D01*
X0216077Y0134565D02*
X0216460Y0134565D01*
X0216675Y0133966D02*
X0217059Y0133966D01*
X0217274Y0133368D02*
X0217657Y0133368D01*
X0217872Y0132769D02*
X0218256Y0132769D01*
X0218471Y0132171D02*
X0218854Y0132171D01*
X0219069Y0131572D02*
X0219453Y0131572D01*
X0219668Y0130974D02*
X0220051Y0130974D01*
X0220266Y0130375D02*
X0220650Y0130375D01*
X0220865Y0129777D02*
X0221248Y0129777D01*
X0221463Y0129178D02*
X0221847Y0129178D01*
X0222062Y0128580D02*
X0222445Y0128580D01*
X0222660Y0127981D02*
X0223044Y0127981D01*
X0223259Y0127383D02*
X0223642Y0127383D01*
X0223857Y0126784D02*
X0224241Y0126784D01*
X0224456Y0126186D02*
X0224656Y0126186D01*
X0212620Y0118405D02*
X0189737Y0118405D01*
X0190335Y0117806D02*
X0213219Y0117806D01*
X0213817Y0117208D02*
X0190934Y0117208D01*
X0191532Y0116609D02*
X0214416Y0116609D01*
X0215014Y0116011D02*
X0192131Y0116011D01*
X0192729Y0115412D02*
X0215613Y0115412D01*
X0216211Y0114814D02*
X0193328Y0114814D01*
X0193926Y0114215D02*
X0216810Y0114215D01*
X0217408Y0113617D02*
X0194525Y0113617D01*
X0195123Y0113018D02*
X0218007Y0113018D01*
X0218605Y0112420D02*
X0195722Y0112420D01*
X0196320Y0111821D02*
X0219204Y0111821D01*
X0219802Y0111223D02*
X0196919Y0111223D01*
X0197517Y0110624D02*
X0220401Y0110624D01*
X0220999Y0110026D02*
X0198116Y0110026D01*
X0198714Y0109427D02*
X0221598Y0109427D01*
X0222196Y0108829D02*
X0199313Y0108829D01*
X0199911Y0108230D02*
X0222795Y0108230D01*
X0223393Y0107632D02*
X0200510Y0107632D01*
X0201108Y0107033D02*
X0223992Y0107033D01*
X0224553Y0106435D02*
X0201707Y0106435D01*
X0202305Y0105836D02*
X0224801Y0105836D01*
X0225080Y0105238D02*
X0202904Y0105238D01*
X0203502Y0104639D02*
X0225679Y0104639D01*
X0226494Y0104041D02*
X0204101Y0104041D01*
X0204699Y0103442D02*
X0231033Y0103442D01*
X0231033Y0102844D02*
X0227798Y0102844D01*
X0228396Y0102245D02*
X0231033Y0102245D01*
X0231033Y0101647D02*
X0228995Y0101647D01*
X0229958Y0101048D02*
X0231033Y0101048D01*
X0231033Y0100450D02*
X0230899Y0100450D01*
X0231033Y0104041D02*
X0230173Y0104041D01*
X0230988Y0104639D02*
X0231033Y0104639D01*
X0224626Y0096260D02*
X0151882Y0096260D01*
X0152480Y0095662D02*
X0224873Y0095662D01*
X0225255Y0095063D02*
X0153079Y0095063D01*
X0151283Y0096859D02*
X0202033Y0096859D01*
X0201068Y0097457D02*
X0150685Y0097457D01*
X0150086Y0098056D02*
X0200469Y0098056D01*
X0199871Y0098654D02*
X0149488Y0098654D01*
X0148889Y0099253D02*
X0199272Y0099253D01*
X0198674Y0099851D02*
X0148291Y0099851D01*
X0147692Y0100450D02*
X0198075Y0100450D01*
X0197477Y0101048D02*
X0147093Y0101048D01*
X0146495Y0101647D02*
X0196878Y0101647D01*
X0196280Y0102245D02*
X0145896Y0102245D01*
X0145298Y0102844D02*
X0195681Y0102844D01*
X0195083Y0103442D02*
X0144699Y0103442D01*
X0144101Y0104041D02*
X0194484Y0104041D01*
X0193886Y0104639D02*
X0143502Y0104639D01*
X0142904Y0105238D02*
X0193287Y0105238D01*
X0192689Y0105836D02*
X0142305Y0105836D01*
X0141707Y0106435D02*
X0192090Y0106435D01*
X0191492Y0107033D02*
X0141108Y0107033D01*
X0140510Y0107632D02*
X0190893Y0107632D01*
X0190295Y0108230D02*
X0139911Y0108230D01*
X0139313Y0108829D02*
X0189696Y0108829D01*
X0189098Y0109427D02*
X0138714Y0109427D01*
X0138116Y0110026D02*
X0188499Y0110026D01*
X0187901Y0110624D02*
X0137517Y0110624D01*
X0136919Y0111223D02*
X0187302Y0111223D01*
X0186704Y0111821D02*
X0136320Y0111821D01*
X0135722Y0112420D02*
X0186105Y0112420D01*
X0185507Y0113018D02*
X0135123Y0113018D01*
X0134525Y0113617D02*
X0184908Y0113617D01*
X0184310Y0114215D02*
X0133926Y0114215D01*
X0133328Y0114814D02*
X0183711Y0114814D01*
X0183113Y0115412D02*
X0132729Y0115412D01*
X0132131Y0116011D02*
X0182514Y0116011D01*
X0181916Y0116609D02*
X0135339Y0116609D01*
X0136057Y0117208D02*
X0181317Y0117208D01*
X0180719Y0117806D02*
X0136646Y0117806D01*
X0136894Y0118405D02*
X0180120Y0118405D01*
X0179522Y0119003D02*
X0137142Y0119003D01*
X0137233Y0119602D02*
X0178923Y0119602D01*
X0178324Y0120201D02*
X0137233Y0120201D01*
X0137224Y0120799D02*
X0177726Y0120799D01*
X0177127Y0121398D02*
X0136976Y0121398D01*
X0136728Y0121996D02*
X0176529Y0121996D01*
X0175930Y0122595D02*
X0136254Y0122595D01*
X0135656Y0123193D02*
X0175332Y0123193D01*
X0174733Y0123792D02*
X0134371Y0123792D01*
X0132296Y0123792D02*
X0124350Y0123792D01*
X0123752Y0124390D02*
X0174135Y0124390D01*
X0173536Y0124989D02*
X0123153Y0124989D01*
X0122555Y0125587D02*
X0172938Y0125587D01*
X0172339Y0126186D02*
X0134316Y0126186D01*
X0134109Y0126100D02*
X0135542Y0126694D01*
X0136640Y0127791D01*
X0137233Y0129224D01*
X0137233Y0130776D01*
X0136640Y0132209D01*
X0135542Y0133306D01*
X0134109Y0133900D01*
X0132558Y0133900D01*
X0131124Y0133306D01*
X0130027Y0132209D01*
X0129433Y0130776D01*
X0129433Y0129224D01*
X0130027Y0127791D01*
X0131124Y0126694D01*
X0132558Y0126100D01*
X0134109Y0126100D01*
X0135633Y0126784D02*
X0171741Y0126784D01*
X0171142Y0127383D02*
X0136231Y0127383D01*
X0136718Y0127981D02*
X0170544Y0127981D01*
X0169945Y0128580D02*
X0136966Y0128580D01*
X0137214Y0129178D02*
X0169347Y0129178D01*
X0168748Y0129777D02*
X0137233Y0129777D01*
X0137233Y0130375D02*
X0168150Y0130375D01*
X0167551Y0130974D02*
X0137151Y0130974D01*
X0136903Y0131572D02*
X0166953Y0131572D01*
X0166354Y0132171D02*
X0136655Y0132171D01*
X0136079Y0132769D02*
X0165756Y0132769D01*
X0165157Y0133368D02*
X0135394Y0133368D01*
X0134738Y0136360D02*
X0162165Y0136360D01*
X0162763Y0135762D02*
X0112380Y0135762D01*
X0111781Y0136360D02*
X0131929Y0136360D01*
X0131273Y0133368D02*
X0114774Y0133368D01*
X0114175Y0133966D02*
X0164559Y0133966D01*
X0163960Y0134565D02*
X0113577Y0134565D01*
X0112978Y0135163D02*
X0163362Y0135163D01*
X0161566Y0136959D02*
X0135808Y0136959D01*
X0136406Y0137557D02*
X0160968Y0137557D01*
X0160369Y0138156D02*
X0136791Y0138156D01*
X0137039Y0138754D02*
X0159771Y0138754D01*
X0159172Y0139353D02*
X0137233Y0139353D01*
X0137233Y0139951D02*
X0158574Y0139951D01*
X0157975Y0140550D02*
X0137233Y0140550D01*
X0137079Y0141148D02*
X0157377Y0141148D01*
X0156778Y0141747D02*
X0136831Y0141747D01*
X0136503Y0142345D02*
X0156180Y0142345D01*
X0155581Y0142944D02*
X0135905Y0142944D01*
X0134972Y0143542D02*
X0154983Y0143542D01*
X0154384Y0144141D02*
X0114001Y0144141D01*
X0114599Y0143542D02*
X0131694Y0143542D01*
X0133033Y0145700D02*
X0130162Y0145700D01*
X0129832Y0145789D01*
X0129535Y0145960D01*
X0129293Y0146202D01*
X0129122Y0146498D01*
X0129033Y0146829D01*
X0129033Y0149700D01*
X0133033Y0149700D01*
X0133033Y0150300D01*
X0129033Y0150300D01*
X0129033Y0153171D01*
X0129122Y0153502D01*
X0129293Y0153798D01*
X0129535Y0154040D01*
X0129832Y0154211D01*
X0130162Y0154300D01*
X0133033Y0154300D01*
X0133033Y0150300D01*
X0133633Y0150300D01*
X0133633Y0154300D01*
X0136504Y0154300D01*
X0136835Y0154211D01*
X0137132Y0154040D01*
X0137374Y0153798D01*
X0137545Y0153502D01*
X0137633Y0153171D01*
X0137633Y0150300D01*
X0133633Y0150300D01*
X0133633Y0149700D01*
X0133633Y0145700D01*
X0136504Y0145700D01*
X0136835Y0145789D01*
X0137132Y0145960D01*
X0137374Y0146202D01*
X0137545Y0146498D01*
X0137633Y0146829D01*
X0137633Y0149700D01*
X0133633Y0149700D01*
X0133033Y0149700D01*
X0133033Y0145700D01*
X0133033Y0145937D02*
X0133633Y0145937D01*
X0133633Y0146535D02*
X0133033Y0146535D01*
X0133033Y0147134D02*
X0133633Y0147134D01*
X0133633Y0147732D02*
X0133033Y0147732D01*
X0133033Y0148331D02*
X0133633Y0148331D01*
X0133633Y0148929D02*
X0133033Y0148929D01*
X0133033Y0149528D02*
X0133633Y0149528D01*
X0133633Y0150126D02*
X0149015Y0150126D01*
X0148933Y0150725D02*
X0137633Y0150725D01*
X0137633Y0151323D02*
X0148933Y0151323D01*
X0148933Y0151922D02*
X0137633Y0151922D01*
X0137633Y0152520D02*
X0148933Y0152520D01*
X0148933Y0153119D02*
X0137633Y0153119D01*
X0137420Y0153717D02*
X0148933Y0153717D01*
X0148933Y0154316D02*
X0078826Y0154316D01*
X0078227Y0154914D02*
X0148933Y0154914D01*
X0148933Y0155513D02*
X0077629Y0155513D01*
X0077030Y0156111D02*
X0099384Y0156111D01*
X0099293Y0156202D02*
X0099535Y0155960D01*
X0099832Y0155789D01*
X0100162Y0155700D01*
X0103033Y0155700D01*
X0103033Y0159700D01*
X0099033Y0159700D01*
X0099033Y0156829D01*
X0099122Y0156498D01*
X0099293Y0156202D01*
X0099065Y0156710D02*
X0076432Y0156710D01*
X0075833Y0157308D02*
X0099033Y0157308D01*
X0099033Y0157907D02*
X0075235Y0157907D01*
X0074636Y0158505D02*
X0099033Y0158505D01*
X0099033Y0159104D02*
X0074038Y0159104D01*
X0073439Y0159702D02*
X0103033Y0159702D01*
X0103033Y0159700D02*
X0103033Y0160300D01*
X0099033Y0160300D01*
X0099033Y0163171D01*
X0099122Y0163502D01*
X0099293Y0163798D01*
X0099535Y0164040D01*
X0099832Y0164211D01*
X0100162Y0164300D01*
X0103033Y0164300D01*
X0103033Y0160300D01*
X0103633Y0160300D01*
X0103633Y0164300D01*
X0106504Y0164300D01*
X0106835Y0164211D01*
X0107132Y0164040D01*
X0107374Y0163798D01*
X0107545Y0163502D01*
X0107633Y0163171D01*
X0107633Y0160300D01*
X0103633Y0160300D01*
X0103633Y0159700D01*
X0103633Y0155700D01*
X0106504Y0155700D01*
X0106835Y0155789D01*
X0107132Y0155960D01*
X0107374Y0156202D01*
X0107545Y0156498D01*
X0107633Y0156829D01*
X0107633Y0159700D01*
X0103633Y0159700D01*
X0103033Y0159700D01*
X0103033Y0159104D02*
X0103633Y0159104D01*
X0103633Y0159702D02*
X0131186Y0159702D01*
X0130873Y0160015D02*
X0133349Y0157540D01*
X0136583Y0156200D01*
X0140084Y0156200D01*
X0143318Y0157540D01*
X0145794Y0160015D01*
X0147133Y0163250D01*
X0147133Y0166750D01*
X0145794Y0169985D01*
X0143318Y0172460D01*
X0140084Y0173800D01*
X0136583Y0173800D01*
X0133349Y0172460D01*
X0130873Y0169985D01*
X0129533Y0166750D01*
X0129533Y0163250D01*
X0130873Y0160015D01*
X0130755Y0160301D02*
X0107633Y0160301D01*
X0107633Y0160899D02*
X0130507Y0160899D01*
X0130259Y0161498D02*
X0107633Y0161498D01*
X0107633Y0162096D02*
X0130011Y0162096D01*
X0129763Y0162695D02*
X0107633Y0162695D01*
X0107601Y0163293D02*
X0129533Y0163293D01*
X0129533Y0163892D02*
X0107280Y0163892D01*
X0103633Y0163892D02*
X0103033Y0163892D01*
X0103033Y0163293D02*
X0103633Y0163293D01*
X0103633Y0162695D02*
X0103033Y0162695D01*
X0103033Y0162096D02*
X0103633Y0162096D01*
X0103633Y0161498D02*
X0103033Y0161498D01*
X0103033Y0160899D02*
X0103633Y0160899D01*
X0103633Y0160301D02*
X0103033Y0160301D01*
X0103033Y0158505D02*
X0103633Y0158505D01*
X0103633Y0157907D02*
X0103033Y0157907D01*
X0103033Y0157308D02*
X0103633Y0157308D01*
X0103633Y0156710D02*
X0103033Y0156710D01*
X0103033Y0156111D02*
X0103633Y0156111D01*
X0104550Y0153717D02*
X0129246Y0153717D01*
X0129033Y0153119D02*
X0105730Y0153119D01*
X0106329Y0152520D02*
X0129033Y0152520D01*
X0129033Y0151922D02*
X0106759Y0151922D01*
X0107007Y0151323D02*
X0129033Y0151323D01*
X0129033Y0150725D02*
X0107417Y0150725D01*
X0108016Y0150126D02*
X0133033Y0150126D01*
X0133033Y0150725D02*
X0133633Y0150725D01*
X0133633Y0151323D02*
X0133033Y0151323D01*
X0133033Y0151922D02*
X0133633Y0151922D01*
X0133633Y0152520D02*
X0133033Y0152520D01*
X0133033Y0153119D02*
X0133633Y0153119D01*
X0133633Y0153717D02*
X0133033Y0153717D01*
X0133907Y0157308D02*
X0107633Y0157308D01*
X0107633Y0157907D02*
X0132982Y0157907D01*
X0132383Y0158505D02*
X0107633Y0158505D01*
X0107633Y0159104D02*
X0131784Y0159104D01*
X0135352Y0156710D02*
X0107601Y0156710D01*
X0107283Y0156111D02*
X0148933Y0156111D01*
X0148933Y0156710D02*
X0141314Y0156710D01*
X0142759Y0157308D02*
X0148933Y0157308D01*
X0148933Y0157907D02*
X0143685Y0157907D01*
X0144284Y0158505D02*
X0148933Y0158505D01*
X0148933Y0159104D02*
X0144882Y0159104D01*
X0145481Y0159702D02*
X0148933Y0159702D01*
X0148933Y0160301D02*
X0145912Y0160301D01*
X0146160Y0160899D02*
X0148933Y0160899D01*
X0148933Y0161498D02*
X0146408Y0161498D01*
X0146656Y0162096D02*
X0148933Y0162096D01*
X0148933Y0162695D02*
X0146904Y0162695D01*
X0147133Y0163293D02*
X0148933Y0163293D01*
X0148933Y0163892D02*
X0147133Y0163892D01*
X0147133Y0164490D02*
X0148933Y0164490D01*
X0148933Y0165089D02*
X0147133Y0165089D01*
X0147133Y0165687D02*
X0148933Y0165687D01*
X0148933Y0166286D02*
X0147133Y0166286D01*
X0147078Y0166884D02*
X0148933Y0166884D01*
X0148933Y0167483D02*
X0146830Y0167483D01*
X0146582Y0168081D02*
X0148933Y0168081D01*
X0148933Y0168680D02*
X0146334Y0168680D01*
X0146086Y0169278D02*
X0148933Y0169278D01*
X0148447Y0169877D02*
X0145838Y0169877D01*
X0145303Y0170475D02*
X0147849Y0170475D01*
X0147250Y0171074D02*
X0144704Y0171074D01*
X0144106Y0171672D02*
X0146652Y0171672D01*
X0146053Y0172271D02*
X0143507Y0172271D01*
X0142330Y0172870D02*
X0145454Y0172870D01*
X0144856Y0173468D02*
X0140885Y0173468D01*
X0143060Y0175264D02*
X0066733Y0175264D01*
X0066733Y0175862D02*
X0123024Y0175862D01*
X0122064Y0176461D02*
X0066733Y0176461D01*
X0066733Y0177059D02*
X0121466Y0177059D01*
X0120867Y0177658D02*
X0066733Y0177658D01*
X0066733Y0178256D02*
X0120269Y0178256D01*
X0119670Y0178855D02*
X0066733Y0178855D01*
X0066733Y0179453D02*
X0119072Y0179453D01*
X0118473Y0180052D02*
X0066733Y0180052D01*
X0066733Y0180650D02*
X0117875Y0180650D01*
X0117276Y0181249D02*
X0066733Y0181249D01*
X0066733Y0181847D02*
X0116678Y0181847D01*
X0116079Y0182446D02*
X0066733Y0182446D01*
X0066733Y0183044D02*
X0115481Y0183044D01*
X0114882Y0183643D02*
X0066733Y0183643D01*
X0066733Y0184241D02*
X0114284Y0184241D01*
X0113685Y0184840D02*
X0066733Y0184840D01*
X0066733Y0185438D02*
X0113087Y0185438D01*
X0112488Y0186037D02*
X0066733Y0186037D01*
X0066733Y0186635D02*
X0111890Y0186635D01*
X0111291Y0187234D02*
X0066733Y0187234D01*
X0066733Y0187832D02*
X0110693Y0187832D01*
X0110094Y0188431D02*
X0066733Y0188431D01*
X0066733Y0189029D02*
X0109496Y0189029D01*
X0108897Y0189628D02*
X0066733Y0189628D01*
X0066733Y0190226D02*
X0108299Y0190226D01*
X0107700Y0190825D02*
X0066733Y0190825D01*
X0066733Y0191423D02*
X0107102Y0191423D01*
X0106503Y0192022D02*
X0066733Y0192022D01*
X0066733Y0192620D02*
X0105905Y0192620D01*
X0105306Y0193219D02*
X0066733Y0193219D01*
X0066733Y0193817D02*
X0104708Y0193817D01*
X0104109Y0194416D02*
X0066733Y0194416D01*
X0066733Y0195014D02*
X0103511Y0195014D01*
X0102912Y0195613D02*
X0066733Y0195613D01*
X0066733Y0196211D02*
X0102314Y0196211D01*
X0101715Y0196810D02*
X0066733Y0196810D01*
X0066733Y0197408D02*
X0101117Y0197408D01*
X0100518Y0198007D02*
X0066733Y0198007D01*
X0066733Y0198605D02*
X0099920Y0198605D01*
X0099321Y0199204D02*
X0066733Y0199204D01*
X0066733Y0199803D02*
X0098722Y0199803D01*
X0098124Y0200401D02*
X0079751Y0200401D01*
X0081196Y0201000D02*
X0097525Y0201000D01*
X0096927Y0201598D02*
X0081937Y0201598D01*
X0077916Y0200401D02*
X0066733Y0200401D01*
X0066733Y0201000D02*
X0076471Y0201000D01*
X0075730Y0201598D02*
X0066733Y0201598D01*
X0066733Y0202197D02*
X0075131Y0202197D01*
X0074768Y0202795D02*
X0066733Y0202795D01*
X0066733Y0203394D02*
X0074520Y0203394D01*
X0074272Y0203992D02*
X0067134Y0203992D01*
X0067732Y0204591D02*
X0074233Y0204591D01*
X0074233Y0205189D02*
X0068331Y0205189D01*
X0068929Y0205788D02*
X0074233Y0205788D01*
X0074428Y0206386D02*
X0069528Y0206386D01*
X0070126Y0206985D02*
X0074676Y0206985D01*
X0074924Y0207583D02*
X0070725Y0207583D01*
X0071323Y0208182D02*
X0075510Y0208182D01*
X0076108Y0208780D02*
X0071922Y0208780D01*
X0072520Y0209379D02*
X0077384Y0209379D01*
X0079173Y0210576D02*
X0116494Y0210576D01*
X0115154Y0211174D02*
X0080513Y0211174D01*
X0080283Y0209379D02*
X0117384Y0209379D01*
X0116108Y0208780D02*
X0081559Y0208780D01*
X0080306Y0218955D02*
X0115361Y0218955D01*
X0117574Y0220152D02*
X0080093Y0220152D01*
X0099537Y0208182D02*
X0115510Y0208182D01*
X0114924Y0207583D02*
X0100558Y0207583D01*
X0101157Y0206985D02*
X0114676Y0206985D01*
X0114428Y0206386D02*
X0101755Y0206386D01*
X0102354Y0205788D02*
X0114233Y0205788D01*
X0114233Y0205189D02*
X0102953Y0205189D01*
X0103551Y0204591D02*
X0114233Y0204591D01*
X0114272Y0203992D02*
X0104150Y0203992D01*
X0104748Y0203394D02*
X0114520Y0203394D01*
X0114768Y0202795D02*
X0105347Y0202795D01*
X0105945Y0202197D02*
X0115131Y0202197D01*
X0115730Y0201598D02*
X0106544Y0201598D01*
X0107142Y0201000D02*
X0116471Y0201000D01*
X0117916Y0200401D02*
X0107741Y0200401D01*
X0108339Y0199803D02*
X0131222Y0199803D01*
X0130624Y0200401D02*
X0119751Y0200401D01*
X0121196Y0201000D02*
X0130025Y0201000D01*
X0129427Y0201598D02*
X0121937Y0201598D01*
X0131821Y0199204D02*
X0108938Y0199204D01*
X0109536Y0198605D02*
X0132420Y0198605D01*
X0133018Y0198007D02*
X0110135Y0198007D01*
X0110733Y0197408D02*
X0133617Y0197408D01*
X0134215Y0196810D02*
X0111332Y0196810D01*
X0111930Y0196211D02*
X0134814Y0196211D01*
X0135412Y0195613D02*
X0112529Y0195613D01*
X0113127Y0195014D02*
X0136011Y0195014D01*
X0136609Y0194416D02*
X0113726Y0194416D01*
X0114324Y0193817D02*
X0137208Y0193817D01*
X0137806Y0193219D02*
X0114923Y0193219D01*
X0115521Y0192620D02*
X0138405Y0192620D01*
X0139003Y0192022D02*
X0116120Y0192022D01*
X0116718Y0191423D02*
X0139602Y0191423D01*
X0140200Y0190825D02*
X0117317Y0190825D01*
X0117915Y0190226D02*
X0140799Y0190226D01*
X0141397Y0189628D02*
X0118514Y0189628D01*
X0119112Y0189029D02*
X0141996Y0189029D01*
X0142594Y0188431D02*
X0119711Y0188431D01*
X0120309Y0187832D02*
X0143193Y0187832D01*
X0143791Y0187234D02*
X0120908Y0187234D01*
X0121506Y0186635D02*
X0144390Y0186635D01*
X0144988Y0186037D02*
X0122105Y0186037D01*
X0122703Y0185438D02*
X0145587Y0185438D01*
X0146185Y0184840D02*
X0123302Y0184840D01*
X0123900Y0184241D02*
X0146784Y0184241D01*
X0147382Y0183643D02*
X0124499Y0183643D01*
X0125097Y0183044D02*
X0147981Y0183044D01*
X0148579Y0182446D02*
X0125696Y0182446D01*
X0135781Y0173468D02*
X0066733Y0173468D01*
X0066733Y0172870D02*
X0134337Y0172870D01*
X0133159Y0172271D02*
X0066733Y0172271D01*
X0066733Y0171672D02*
X0132561Y0171672D01*
X0131962Y0171074D02*
X0066733Y0171074D01*
X0066733Y0170475D02*
X0131364Y0170475D01*
X0130828Y0169877D02*
X0066733Y0169877D01*
X0066733Y0169278D02*
X0130580Y0169278D01*
X0130333Y0168680D02*
X0066733Y0168680D01*
X0066733Y0168081D02*
X0130085Y0168081D01*
X0129837Y0167483D02*
X0066733Y0167483D01*
X0066733Y0166884D02*
X0129589Y0166884D01*
X0129533Y0166286D02*
X0066856Y0166286D01*
X0067454Y0165687D02*
X0129533Y0165687D01*
X0129533Y0165089D02*
X0068053Y0165089D01*
X0068651Y0164490D02*
X0129533Y0164490D01*
X0143659Y0174665D02*
X0066733Y0174665D01*
X0066733Y0174067D02*
X0144257Y0174067D01*
X0149086Y0178855D02*
X0152170Y0178855D01*
X0151572Y0179453D02*
X0148487Y0179453D01*
X0147889Y0180052D02*
X0150973Y0180052D01*
X0150375Y0180650D02*
X0147290Y0180650D01*
X0146692Y0181249D02*
X0149776Y0181249D01*
X0149178Y0181847D02*
X0146093Y0181847D01*
X0149685Y0178256D02*
X0152769Y0178256D01*
X0153367Y0177658D02*
X0150283Y0177658D01*
X0150882Y0177059D02*
X0153966Y0177059D01*
X0154564Y0176461D02*
X0151480Y0176461D01*
X0152079Y0175862D02*
X0155163Y0175862D01*
X0155761Y0175264D02*
X0152677Y0175264D01*
X0153276Y0174665D02*
X0156360Y0174665D01*
X0156958Y0174067D02*
X0153874Y0174067D01*
X0154259Y0173681D02*
X0154259Y0173681D01*
X0154473Y0173468D02*
X0157557Y0173468D01*
X0158155Y0172870D02*
X0155071Y0172870D01*
X0155404Y0172271D02*
X0158754Y0172271D01*
X0159353Y0171672D02*
X0155652Y0171672D01*
X0155733Y0171074D02*
X0159951Y0171074D01*
X0160550Y0170475D02*
X0155733Y0170475D01*
X0155733Y0169877D02*
X0161148Y0169877D01*
X0161747Y0169278D02*
X0155733Y0169278D01*
X0155733Y0168680D02*
X0162345Y0168680D01*
X0162944Y0168081D02*
X0155733Y0168081D01*
X0155733Y0167483D02*
X0163542Y0167483D01*
X0164141Y0166884D02*
X0155733Y0166884D01*
X0155733Y0166286D02*
X0164739Y0166286D01*
X0165338Y0165687D02*
X0155733Y0165687D01*
X0155733Y0165089D02*
X0165936Y0165089D01*
X0166535Y0164490D02*
X0155733Y0164490D01*
X0155733Y0163892D02*
X0167133Y0163892D01*
X0167732Y0163293D02*
X0155733Y0163293D01*
X0155733Y0162695D02*
X0168330Y0162695D01*
X0168929Y0162096D02*
X0155733Y0162096D01*
X0155733Y0161498D02*
X0169527Y0161498D01*
X0170126Y0160899D02*
X0155733Y0160899D01*
X0155733Y0160301D02*
X0170724Y0160301D01*
X0171323Y0159702D02*
X0155733Y0159702D01*
X0155733Y0159104D02*
X0171921Y0159104D01*
X0172520Y0158505D02*
X0155733Y0158505D01*
X0155733Y0157907D02*
X0173118Y0157907D01*
X0173717Y0157308D02*
X0155733Y0157308D01*
X0155733Y0156710D02*
X0174315Y0156710D01*
X0174914Y0156111D02*
X0155733Y0156111D01*
X0155733Y0155513D02*
X0175512Y0155513D01*
X0176111Y0154914D02*
X0155733Y0154914D01*
X0155733Y0154316D02*
X0176709Y0154316D01*
X0177308Y0153717D02*
X0155733Y0153717D01*
X0155733Y0153119D02*
X0177906Y0153119D01*
X0178505Y0152520D02*
X0155733Y0152520D01*
X0156220Y0151922D02*
X0179103Y0151922D01*
X0179702Y0151323D02*
X0156819Y0151323D01*
X0157417Y0150725D02*
X0180300Y0150725D01*
X0180899Y0150126D02*
X0158016Y0150126D01*
X0158614Y0149528D02*
X0181497Y0149528D01*
X0182096Y0148929D02*
X0159213Y0148929D01*
X0159811Y0148331D02*
X0182694Y0148331D01*
X0183293Y0147732D02*
X0160410Y0147732D01*
X0161008Y0147134D02*
X0183891Y0147134D01*
X0184490Y0146535D02*
X0161607Y0146535D01*
X0162205Y0145937D02*
X0185088Y0145937D01*
X0185687Y0145338D02*
X0162804Y0145338D01*
X0163402Y0144739D02*
X0186286Y0144739D01*
X0186884Y0144141D02*
X0164001Y0144141D01*
X0164599Y0143542D02*
X0187483Y0143542D01*
X0188081Y0142944D02*
X0165198Y0142944D01*
X0165796Y0142345D02*
X0188680Y0142345D01*
X0189278Y0141747D02*
X0166395Y0141747D01*
X0166993Y0141148D02*
X0189877Y0141148D01*
X0190475Y0140550D02*
X0167592Y0140550D01*
X0168190Y0139951D02*
X0191074Y0139951D01*
X0191672Y0139353D02*
X0168789Y0139353D01*
X0169387Y0138754D02*
X0192271Y0138754D01*
X0192869Y0138156D02*
X0169986Y0138156D01*
X0170584Y0137557D02*
X0193468Y0137557D01*
X0194066Y0136959D02*
X0171183Y0136959D01*
X0171781Y0136360D02*
X0194665Y0136360D01*
X0195263Y0135762D02*
X0172380Y0135762D01*
X0172978Y0135163D02*
X0195862Y0135163D01*
X0196460Y0134565D02*
X0173577Y0134565D01*
X0174175Y0133966D02*
X0197059Y0133966D01*
X0197657Y0133368D02*
X0174774Y0133368D01*
X0175372Y0132769D02*
X0198256Y0132769D01*
X0198854Y0132171D02*
X0175971Y0132171D01*
X0176569Y0131572D02*
X0199453Y0131572D01*
X0200051Y0130974D02*
X0177168Y0130974D01*
X0177766Y0130375D02*
X0200650Y0130375D01*
X0201248Y0129777D02*
X0178365Y0129777D01*
X0178963Y0129178D02*
X0201847Y0129178D01*
X0202445Y0128580D02*
X0179562Y0128580D01*
X0180160Y0127981D02*
X0203044Y0127981D01*
X0203642Y0127383D02*
X0180759Y0127383D01*
X0181357Y0126784D02*
X0204241Y0126784D01*
X0204839Y0126186D02*
X0181956Y0126186D01*
X0182555Y0125587D02*
X0205438Y0125587D01*
X0206036Y0124989D02*
X0183153Y0124989D01*
X0183752Y0124390D02*
X0206635Y0124390D01*
X0207233Y0123792D02*
X0184350Y0123792D01*
X0184949Y0123193D02*
X0207832Y0123193D01*
X0208430Y0122595D02*
X0185547Y0122595D01*
X0186146Y0121996D02*
X0209029Y0121996D01*
X0209627Y0121398D02*
X0186744Y0121398D01*
X0187343Y0120799D02*
X0210226Y0120799D01*
X0210824Y0120201D02*
X0187941Y0120201D01*
X0188540Y0119602D02*
X0211423Y0119602D01*
X0212022Y0119003D02*
X0189138Y0119003D01*
X0153786Y0144739D02*
X0113402Y0144739D01*
X0112804Y0145338D02*
X0153187Y0145338D01*
X0152588Y0145937D02*
X0137091Y0145937D01*
X0137555Y0146535D02*
X0151990Y0146535D01*
X0151391Y0147134D02*
X0137633Y0147134D01*
X0137633Y0147732D02*
X0150793Y0147732D01*
X0150194Y0148331D02*
X0137633Y0148331D01*
X0137633Y0148929D02*
X0149596Y0148929D01*
X0149263Y0149528D02*
X0137633Y0149528D01*
X0129033Y0149528D02*
X0108614Y0149528D01*
X0109213Y0148929D02*
X0129033Y0148929D01*
X0129033Y0148331D02*
X0109811Y0148331D01*
X0110410Y0147732D02*
X0129033Y0147732D01*
X0129033Y0147134D02*
X0111008Y0147134D01*
X0111607Y0146535D02*
X0129112Y0146535D01*
X0129575Y0145937D02*
X0112205Y0145937D01*
X0107377Y0141148D02*
X0107079Y0141148D01*
X0107592Y0140550D02*
X0107975Y0140550D01*
X0108190Y0139951D02*
X0108574Y0139951D01*
X0108789Y0139353D02*
X0109172Y0139353D01*
X0109387Y0138754D02*
X0109771Y0138754D01*
X0109986Y0138156D02*
X0110369Y0138156D01*
X0110584Y0137557D02*
X0110968Y0137557D01*
X0111183Y0136959D02*
X0111791Y0136959D01*
X0115372Y0132769D02*
X0130587Y0132769D01*
X0130011Y0132171D02*
X0115971Y0132171D01*
X0116569Y0131572D02*
X0129763Y0131572D01*
X0129515Y0130974D02*
X0117168Y0130974D01*
X0117766Y0130375D02*
X0129433Y0130375D01*
X0129433Y0129777D02*
X0118365Y0129777D01*
X0118963Y0129178D02*
X0129452Y0129178D01*
X0129700Y0128580D02*
X0119562Y0128580D01*
X0120160Y0127981D02*
X0129948Y0127981D01*
X0130435Y0127383D02*
X0120759Y0127383D01*
X0121357Y0126784D02*
X0131034Y0126784D01*
X0132351Y0126186D02*
X0121956Y0126186D01*
X0124949Y0123193D02*
X0131011Y0123193D01*
X0130412Y0122595D02*
X0125547Y0122595D01*
X0126146Y0121996D02*
X0129939Y0121996D01*
X0129691Y0121398D02*
X0126744Y0121398D01*
X0127343Y0120799D02*
X0129443Y0120799D01*
X0129433Y0120201D02*
X0127941Y0120201D01*
X0128540Y0119602D02*
X0129433Y0119602D01*
X0129525Y0119003D02*
X0129138Y0119003D01*
X0129737Y0118405D02*
X0129773Y0118405D01*
X0118285Y0110624D02*
X0107233Y0110624D01*
X0107233Y0110776D02*
X0106640Y0112209D01*
X0105542Y0113306D01*
X0104109Y0113900D01*
X0102558Y0113900D01*
X0101124Y0113306D01*
X0100027Y0112209D01*
X0099433Y0110776D01*
X0099433Y0109224D01*
X0100027Y0107791D01*
X0101124Y0106694D01*
X0102558Y0106100D01*
X0104109Y0106100D01*
X0105542Y0106694D01*
X0106640Y0107791D01*
X0107233Y0109224D01*
X0107233Y0110776D01*
X0107048Y0111223D02*
X0117686Y0111223D01*
X0117088Y0111821D02*
X0106800Y0111821D01*
X0106429Y0112420D02*
X0116489Y0112420D01*
X0115891Y0113018D02*
X0105830Y0113018D01*
X0104793Y0113617D02*
X0115292Y0113617D01*
X0114694Y0114215D02*
X0004633Y0114215D01*
X0004633Y0113617D02*
X0041874Y0113617D01*
X0042558Y0113900D02*
X0041124Y0113306D01*
X0040027Y0112209D01*
X0039433Y0110776D01*
X0039433Y0109224D01*
X0040027Y0107791D01*
X0041124Y0106694D01*
X0042558Y0106100D01*
X0044109Y0106100D01*
X0045542Y0106694D01*
X0046640Y0107791D01*
X0047233Y0109224D01*
X0047233Y0110776D01*
X0046640Y0112209D01*
X0045542Y0113306D01*
X0044109Y0113900D01*
X0042558Y0113900D01*
X0040836Y0113018D02*
X0004633Y0113018D01*
X0004633Y0112420D02*
X0040238Y0112420D01*
X0039866Y0111821D02*
X0004633Y0111821D01*
X0004633Y0111223D02*
X0039619Y0111223D01*
X0039433Y0110624D02*
X0004633Y0110624D01*
X0004633Y0110026D02*
X0039433Y0110026D01*
X0039433Y0109427D02*
X0004633Y0109427D01*
X0004633Y0108829D02*
X0039597Y0108829D01*
X0039845Y0108230D02*
X0004633Y0108230D01*
X0004633Y0107632D02*
X0040186Y0107632D01*
X0040785Y0107033D02*
X0004633Y0107033D01*
X0004633Y0106435D02*
X0041749Y0106435D01*
X0042558Y0103900D02*
X0041124Y0103306D01*
X0040027Y0102209D01*
X0039433Y0100776D01*
X0039433Y0099224D01*
X0040027Y0097791D01*
X0041124Y0096694D01*
X0042558Y0096100D01*
X0044109Y0096100D01*
X0045542Y0096694D01*
X0046640Y0097791D01*
X0047233Y0099224D01*
X0047233Y0100776D01*
X0046640Y0102209D01*
X0045542Y0103306D01*
X0044109Y0103900D01*
X0042558Y0103900D01*
X0041452Y0103442D02*
X0004633Y0103442D01*
X0004633Y0102844D02*
X0040662Y0102844D01*
X0040063Y0102245D02*
X0004633Y0102245D01*
X0004633Y0101647D02*
X0039794Y0101647D01*
X0039546Y0101048D02*
X0004633Y0101048D01*
X0004633Y0100450D02*
X0039433Y0100450D01*
X0039433Y0099851D02*
X0004633Y0099851D01*
X0004633Y0099253D02*
X0039433Y0099253D01*
X0039669Y0098654D02*
X0004633Y0098654D01*
X0004633Y0098056D02*
X0039917Y0098056D01*
X0040361Y0097457D02*
X0004633Y0097457D01*
X0004633Y0096859D02*
X0040959Y0096859D01*
X0042171Y0096260D02*
X0004633Y0096260D01*
X0004633Y0095662D02*
X0133248Y0095662D01*
X0133846Y0095063D02*
X0004633Y0095063D01*
X0004633Y0094465D02*
X0134445Y0094465D01*
X0135043Y0093866D02*
X0104191Y0093866D01*
X0104109Y0093900D02*
X0102558Y0093900D01*
X0101124Y0093306D01*
X0100027Y0092209D01*
X0099433Y0090776D01*
X0099433Y0089224D01*
X0100027Y0087791D01*
X0101124Y0086694D01*
X0102558Y0086100D01*
X0104109Y0086100D01*
X0105542Y0086694D01*
X0106640Y0087791D01*
X0107233Y0089224D01*
X0107233Y0090776D01*
X0106640Y0092209D01*
X0105542Y0093306D01*
X0104109Y0093900D01*
X0105581Y0093268D02*
X0135642Y0093268D01*
X0136240Y0092669D02*
X0106180Y0092669D01*
X0106697Y0092070D02*
X0136839Y0092070D01*
X0137437Y0091472D02*
X0106945Y0091472D01*
X0107193Y0090873D02*
X0138036Y0090873D01*
X0138634Y0090275D02*
X0107233Y0090275D01*
X0107233Y0089676D02*
X0139233Y0089676D01*
X0139831Y0089078D02*
X0107173Y0089078D01*
X0106925Y0088479D02*
X0140430Y0088479D01*
X0141028Y0087881D02*
X0106677Y0087881D01*
X0106131Y0087282D02*
X0141627Y0087282D01*
X0142225Y0086684D02*
X0105519Y0086684D01*
X0101148Y0086684D02*
X0045519Y0086684D01*
X0045542Y0086694D02*
X0046640Y0087791D01*
X0047233Y0089224D01*
X0047233Y0090776D01*
X0046640Y0092209D01*
X0045542Y0093306D01*
X0044109Y0093900D01*
X0042558Y0093900D01*
X0041124Y0093306D01*
X0040027Y0092209D01*
X0039433Y0090776D01*
X0039433Y0089224D01*
X0040027Y0087791D01*
X0041124Y0086694D01*
X0042558Y0086100D01*
X0044109Y0086100D01*
X0045542Y0086694D01*
X0046131Y0087282D02*
X0100535Y0087282D01*
X0099990Y0087881D02*
X0046677Y0087881D01*
X0046925Y0088479D02*
X0099742Y0088479D01*
X0099494Y0089078D02*
X0047173Y0089078D01*
X0047233Y0089676D02*
X0099433Y0089676D01*
X0099433Y0090275D02*
X0047233Y0090275D01*
X0047193Y0090873D02*
X0099474Y0090873D01*
X0099722Y0091472D02*
X0046945Y0091472D01*
X0046697Y0092070D02*
X0099970Y0092070D01*
X0100487Y0092669D02*
X0046180Y0092669D01*
X0045581Y0093268D02*
X0101085Y0093268D01*
X0102476Y0093866D02*
X0044191Y0093866D01*
X0042476Y0093866D02*
X0004633Y0093866D01*
X0004633Y0093268D02*
X0041085Y0093268D01*
X0040487Y0092669D02*
X0004633Y0092669D01*
X0004633Y0092070D02*
X0039970Y0092070D01*
X0039722Y0091472D02*
X0004633Y0091472D01*
X0004633Y0090873D02*
X0039474Y0090873D01*
X0039433Y0090275D02*
X0004633Y0090275D01*
X0004633Y0089676D02*
X0039433Y0089676D01*
X0039494Y0089078D02*
X0004633Y0089078D01*
X0004633Y0088479D02*
X0039742Y0088479D01*
X0039990Y0087881D02*
X0004633Y0087881D01*
X0004633Y0087282D02*
X0040535Y0087282D01*
X0041148Y0086684D02*
X0004633Y0086684D01*
X0004633Y0086085D02*
X0142824Y0086085D01*
X0143422Y0085487D02*
X0004633Y0085487D01*
X0004633Y0084888D02*
X0144021Y0084888D01*
X0144619Y0084290D02*
X0004633Y0084290D01*
X0004633Y0083691D02*
X0145218Y0083691D01*
X0145816Y0083093D02*
X0004633Y0083093D01*
X0004633Y0082494D02*
X0147013Y0082494D01*
X0141701Y0068130D02*
X0239965Y0068130D01*
X0238521Y0067532D02*
X0143146Y0067532D01*
X0143845Y0066933D02*
X0237821Y0066933D01*
X0237223Y0066334D02*
X0144444Y0066334D01*
X0145042Y0065736D02*
X0236624Y0065736D01*
X0236026Y0065137D02*
X0145641Y0065137D01*
X0145978Y0064539D02*
X0235688Y0064539D01*
X0235440Y0063940D02*
X0146226Y0063940D01*
X0146474Y0063342D02*
X0235193Y0063342D01*
X0234945Y0062743D02*
X0146722Y0062743D01*
X0146970Y0062145D02*
X0234697Y0062145D01*
X0234533Y0061546D02*
X0147133Y0061546D01*
X0147133Y0060948D02*
X0234533Y0060948D01*
X0234533Y0060349D02*
X0147133Y0060349D01*
X0147133Y0059751D02*
X0234533Y0059751D01*
X0234533Y0059152D02*
X0147133Y0059152D01*
X0147133Y0058554D02*
X0234533Y0058554D01*
X0234655Y0057955D02*
X0147011Y0057955D01*
X0146764Y0057357D02*
X0234903Y0057357D01*
X0235151Y0056758D02*
X0146516Y0056758D01*
X0146268Y0056160D02*
X0235399Y0056160D01*
X0235647Y0055561D02*
X0146020Y0055561D01*
X0145741Y0054963D02*
X0235925Y0054963D01*
X0236524Y0054364D02*
X0145143Y0054364D01*
X0144544Y0053766D02*
X0237122Y0053766D01*
X0237721Y0053167D02*
X0143946Y0053167D01*
X0143347Y0052569D02*
X0238320Y0052569D01*
X0239723Y0051970D02*
X0141943Y0051970D01*
X0140498Y0051372D02*
X0241168Y0051372D01*
X0251474Y0063342D02*
X0317033Y0063342D01*
X0317033Y0063940D02*
X0251226Y0063940D01*
X0250978Y0064539D02*
X0317033Y0064539D01*
X0317033Y0065137D02*
X0250641Y0065137D01*
X0250042Y0065736D02*
X0317033Y0065736D01*
X0317033Y0066334D02*
X0249444Y0066334D01*
X0248845Y0066933D02*
X0317033Y0066933D01*
X0317033Y0067532D02*
X0248146Y0067532D01*
X0246701Y0068130D02*
X0317033Y0068130D01*
X0317033Y0068729D02*
X0245256Y0068729D01*
X0241410Y0068729D02*
X0140256Y0068729D01*
X0132649Y0096260D02*
X0104496Y0096260D01*
X0104109Y0096100D02*
X0105542Y0096694D01*
X0106640Y0097791D01*
X0107233Y0099224D01*
X0107233Y0100776D01*
X0106640Y0102209D01*
X0105542Y0103306D01*
X0104109Y0103900D01*
X0102558Y0103900D01*
X0101124Y0103306D01*
X0100027Y0102209D01*
X0099433Y0100776D01*
X0099433Y0099224D01*
X0100027Y0097791D01*
X0101124Y0096694D01*
X0102558Y0096100D01*
X0104109Y0096100D01*
X0105707Y0096859D02*
X0132050Y0096859D01*
X0131452Y0097457D02*
X0106306Y0097457D01*
X0106749Y0098056D02*
X0130853Y0098056D01*
X0130255Y0098654D02*
X0106997Y0098654D01*
X0107233Y0099253D02*
X0129656Y0099253D01*
X0129058Y0099851D02*
X0107233Y0099851D01*
X0107233Y0100450D02*
X0128459Y0100450D01*
X0127861Y0101048D02*
X0107120Y0101048D01*
X0106873Y0101647D02*
X0127262Y0101647D01*
X0126664Y0102245D02*
X0106604Y0102245D01*
X0106005Y0102844D02*
X0126065Y0102844D01*
X0125467Y0103442D02*
X0105214Y0103442D01*
X0104917Y0106435D02*
X0122474Y0106435D01*
X0121876Y0107033D02*
X0105882Y0107033D01*
X0106481Y0107632D02*
X0121277Y0107632D01*
X0120679Y0108230D02*
X0106822Y0108230D01*
X0107070Y0108829D02*
X0120080Y0108829D01*
X0119482Y0109427D02*
X0107233Y0109427D01*
X0107233Y0110026D02*
X0118883Y0110026D01*
X0123073Y0105836D02*
X0004633Y0105836D01*
X0004633Y0105238D02*
X0123671Y0105238D01*
X0124270Y0104639D02*
X0004633Y0104639D01*
X0004633Y0104041D02*
X0124868Y0104041D01*
X0114095Y0114814D02*
X0004633Y0114814D01*
X0004633Y0115412D02*
X0113497Y0115412D01*
X0112898Y0116011D02*
X0004633Y0116011D01*
X0004633Y0116609D02*
X0039451Y0116609D01*
X0039433Y0116627D02*
X0039961Y0116100D01*
X0046706Y0116100D01*
X0047233Y0116627D01*
X0047233Y0123373D01*
X0046706Y0123900D01*
X0039961Y0123900D01*
X0039433Y0123373D01*
X0039433Y0116627D01*
X0039433Y0117208D02*
X0004633Y0117208D01*
X0004633Y0117806D02*
X0039433Y0117806D01*
X0039433Y0118405D02*
X0004633Y0118405D01*
X0004633Y0119003D02*
X0039433Y0119003D01*
X0039433Y0119602D02*
X0004633Y0119602D01*
X0004633Y0120201D02*
X0039433Y0120201D01*
X0039433Y0120799D02*
X0004633Y0120799D01*
X0004633Y0121398D02*
X0039433Y0121398D01*
X0039433Y0121996D02*
X0004633Y0121996D01*
X0004633Y0122595D02*
X0039433Y0122595D01*
X0039433Y0123193D02*
X0004633Y0123193D01*
X0004633Y0123792D02*
X0039852Y0123792D01*
X0041124Y0126694D02*
X0042558Y0126100D01*
X0044109Y0126100D01*
X0045542Y0126694D01*
X0046640Y0127791D01*
X0047233Y0129224D01*
X0047233Y0130776D01*
X0046640Y0132209D01*
X0045542Y0133306D01*
X0044109Y0133900D01*
X0042558Y0133900D01*
X0041124Y0133306D01*
X0040027Y0132209D01*
X0039433Y0130776D01*
X0039433Y0129224D01*
X0040027Y0127791D01*
X0041124Y0126694D01*
X0041034Y0126784D02*
X0004633Y0126784D01*
X0004633Y0126186D02*
X0042351Y0126186D01*
X0044316Y0126186D02*
X0102339Y0126186D01*
X0102938Y0125587D02*
X0004633Y0125587D01*
X0004633Y0124989D02*
X0103536Y0124989D01*
X0104135Y0124390D02*
X0004633Y0124390D01*
X0004633Y0127383D02*
X0040435Y0127383D01*
X0039948Y0127981D02*
X0004633Y0127981D01*
X0004633Y0128580D02*
X0039700Y0128580D01*
X0039452Y0129178D02*
X0004633Y0129178D01*
X0004633Y0129777D02*
X0039433Y0129777D01*
X0039433Y0130375D02*
X0004633Y0130375D01*
X0004633Y0130974D02*
X0039515Y0130974D01*
X0039763Y0131572D02*
X0004633Y0131572D01*
X0004633Y0132171D02*
X0040011Y0132171D01*
X0040587Y0132769D02*
X0004633Y0132769D01*
X0004633Y0133368D02*
X0041273Y0133368D01*
X0042558Y0136100D02*
X0041124Y0136694D01*
X0040027Y0137791D01*
X0039433Y0139224D01*
X0039433Y0140776D01*
X0040027Y0142209D01*
X0041124Y0143306D01*
X0042558Y0143900D01*
X0044109Y0143900D01*
X0045542Y0143306D01*
X0046640Y0142209D01*
X0047233Y0140776D01*
X0047233Y0139224D01*
X0046640Y0137791D01*
X0045542Y0136694D01*
X0044109Y0136100D01*
X0042558Y0136100D01*
X0041929Y0136360D02*
X0004633Y0136360D01*
X0004633Y0135762D02*
X0102763Y0135762D01*
X0103362Y0135163D02*
X0004633Y0135163D01*
X0004633Y0134565D02*
X0103960Y0134565D01*
X0104559Y0133966D02*
X0004633Y0133966D01*
X0004633Y0136959D02*
X0040859Y0136959D01*
X0040261Y0137557D02*
X0004633Y0137557D01*
X0004633Y0138156D02*
X0039876Y0138156D01*
X0039628Y0138754D02*
X0004633Y0138754D01*
X0004633Y0139353D02*
X0039433Y0139353D01*
X0039433Y0139951D02*
X0004633Y0139951D01*
X0004633Y0140550D02*
X0039433Y0140550D01*
X0039588Y0141148D02*
X0004633Y0141148D01*
X0004633Y0141747D02*
X0039836Y0141747D01*
X0040163Y0142345D02*
X0004633Y0142345D01*
X0004633Y0142944D02*
X0040762Y0142944D01*
X0041694Y0143542D02*
X0004633Y0143542D01*
X0004633Y0144141D02*
X0104384Y0144141D01*
X0104972Y0143542D02*
X0104983Y0143542D01*
X0103786Y0144739D02*
X0004633Y0144739D01*
X0004633Y0145338D02*
X0103187Y0145338D01*
X0102588Y0145937D02*
X0044742Y0145937D01*
X0044984Y0146015D02*
X0045587Y0146322D01*
X0046135Y0146720D01*
X0046613Y0147199D01*
X0047011Y0147746D01*
X0047318Y0148349D01*
X0047527Y0148993D01*
X0047633Y0149662D01*
X0047633Y0149700D01*
X0043633Y0149700D01*
X0043633Y0145700D01*
X0043672Y0145700D01*
X0044340Y0145806D01*
X0044984Y0146015D01*
X0045880Y0146535D02*
X0101507Y0146535D01*
X0101694Y0143542D02*
X0044972Y0143542D01*
X0045905Y0142944D02*
X0100762Y0142944D01*
X0100163Y0142345D02*
X0046503Y0142345D01*
X0046831Y0141747D02*
X0099836Y0141747D01*
X0099588Y0141148D02*
X0047079Y0141148D01*
X0047233Y0140550D02*
X0099433Y0140550D01*
X0099433Y0139951D02*
X0047233Y0139951D01*
X0047233Y0139353D02*
X0099433Y0139353D01*
X0099628Y0138754D02*
X0047039Y0138754D01*
X0046791Y0138156D02*
X0099876Y0138156D01*
X0100261Y0137557D02*
X0046406Y0137557D01*
X0045808Y0136959D02*
X0100859Y0136959D01*
X0101929Y0136360D02*
X0044738Y0136360D01*
X0045394Y0133368D02*
X0101273Y0133368D01*
X0100587Y0132769D02*
X0046079Y0132769D01*
X0046655Y0132171D02*
X0100011Y0132171D01*
X0099763Y0131572D02*
X0046903Y0131572D01*
X0047151Y0130974D02*
X0099515Y0130974D01*
X0099433Y0130375D02*
X0047233Y0130375D01*
X0047233Y0129777D02*
X0099433Y0129777D01*
X0099452Y0129178D02*
X0047214Y0129178D01*
X0046966Y0128580D02*
X0099700Y0128580D01*
X0099948Y0127981D02*
X0046718Y0127981D01*
X0046231Y0127383D02*
X0100435Y0127383D01*
X0101034Y0126784D02*
X0045633Y0126784D01*
X0046815Y0123792D02*
X0099852Y0123792D01*
X0099433Y0123193D02*
X0047233Y0123193D01*
X0047233Y0122595D02*
X0099433Y0122595D01*
X0099433Y0121996D02*
X0047233Y0121996D01*
X0047233Y0121398D02*
X0099433Y0121398D01*
X0099433Y0120799D02*
X0047233Y0120799D01*
X0047233Y0120201D02*
X0099433Y0120201D01*
X0099433Y0119602D02*
X0047233Y0119602D01*
X0047233Y0119003D02*
X0099433Y0119003D01*
X0099433Y0118405D02*
X0047233Y0118405D01*
X0047233Y0117806D02*
X0099433Y0117806D01*
X0099433Y0117208D02*
X0047233Y0117208D01*
X0047216Y0116609D02*
X0099451Y0116609D01*
X0101874Y0113617D02*
X0044793Y0113617D01*
X0045830Y0113018D02*
X0100836Y0113018D01*
X0100238Y0112420D02*
X0046429Y0112420D01*
X0046800Y0111821D02*
X0099866Y0111821D01*
X0099619Y0111223D02*
X0047048Y0111223D01*
X0047233Y0110624D02*
X0099433Y0110624D01*
X0099433Y0110026D02*
X0047233Y0110026D01*
X0047233Y0109427D02*
X0099433Y0109427D01*
X0099597Y0108829D02*
X0047070Y0108829D01*
X0046822Y0108230D02*
X0099845Y0108230D01*
X0100186Y0107632D02*
X0046481Y0107632D01*
X0045882Y0107033D02*
X0100785Y0107033D01*
X0101749Y0106435D02*
X0044917Y0106435D01*
X0045214Y0103442D02*
X0101452Y0103442D01*
X0100662Y0102844D02*
X0046005Y0102844D01*
X0046604Y0102245D02*
X0100063Y0102245D01*
X0099794Y0101647D02*
X0046873Y0101647D01*
X0047120Y0101048D02*
X0099546Y0101048D01*
X0099433Y0100450D02*
X0047233Y0100450D01*
X0047233Y0099851D02*
X0099433Y0099851D01*
X0099433Y0099253D02*
X0047233Y0099253D01*
X0046997Y0098654D02*
X0099669Y0098654D01*
X0099917Y0098056D02*
X0046749Y0098056D01*
X0046306Y0097457D02*
X0100361Y0097457D01*
X0100959Y0096859D02*
X0045707Y0096859D01*
X0044496Y0096260D02*
X0102171Y0096260D01*
X0107216Y0116609D02*
X0112300Y0116609D01*
X0111701Y0117208D02*
X0107233Y0117208D01*
X0107233Y0117806D02*
X0111103Y0117806D01*
X0110504Y0118405D02*
X0107233Y0118405D01*
X0107233Y0119003D02*
X0109906Y0119003D01*
X0109307Y0119602D02*
X0107233Y0119602D01*
X0107233Y0120201D02*
X0108709Y0120201D01*
X0108110Y0120799D02*
X0107233Y0120799D01*
X0107233Y0121398D02*
X0107512Y0121398D01*
X0076391Y0147134D02*
X0046548Y0147134D01*
X0047001Y0147732D02*
X0075793Y0147732D01*
X0075194Y0148331D02*
X0047309Y0148331D01*
X0047507Y0148929D02*
X0074596Y0148929D01*
X0073997Y0149528D02*
X0047612Y0149528D01*
X0047633Y0150300D02*
X0047633Y0150338D01*
X0047527Y0151007D01*
X0047318Y0151651D01*
X0047011Y0152254D01*
X0046613Y0152801D01*
X0046135Y0153280D01*
X0045587Y0153678D01*
X0044984Y0153985D01*
X0044340Y0154194D01*
X0043672Y0154300D01*
X0043633Y0154300D01*
X0043633Y0150300D01*
X0043033Y0150300D01*
X0043033Y0149700D01*
X0039033Y0149700D01*
X0039033Y0149662D01*
X0039139Y0148993D01*
X0039348Y0148349D01*
X0039656Y0147746D01*
X0040053Y0147199D01*
X0040532Y0146720D01*
X0041080Y0146322D01*
X0041683Y0146015D01*
X0042326Y0145806D01*
X0042995Y0145700D01*
X0043033Y0145700D01*
X0043033Y0149700D01*
X0043633Y0149700D01*
X0043633Y0150300D01*
X0047633Y0150300D01*
X0047572Y0150725D02*
X0072800Y0150725D01*
X0072202Y0151323D02*
X0047425Y0151323D01*
X0047180Y0151922D02*
X0071603Y0151922D01*
X0071005Y0152520D02*
X0046817Y0152520D01*
X0046296Y0153119D02*
X0070406Y0153119D01*
X0069808Y0153717D02*
X0045510Y0153717D01*
X0043633Y0153717D02*
X0043033Y0153717D01*
X0043033Y0154300D02*
X0042995Y0154300D01*
X0042326Y0154194D01*
X0041683Y0153985D01*
X0041080Y0153678D01*
X0040532Y0153280D01*
X0040053Y0152801D01*
X0039656Y0152254D01*
X0039348Y0151651D01*
X0039139Y0151007D01*
X0039033Y0150338D01*
X0039033Y0150300D01*
X0043033Y0150300D01*
X0043033Y0154300D01*
X0043033Y0153119D02*
X0043633Y0153119D01*
X0043633Y0152520D02*
X0043033Y0152520D01*
X0043033Y0151922D02*
X0043633Y0151922D01*
X0043633Y0151323D02*
X0043033Y0151323D01*
X0043033Y0150725D02*
X0043633Y0150725D01*
X0043633Y0150126D02*
X0073399Y0150126D01*
X0069209Y0154316D02*
X0004633Y0154316D01*
X0004633Y0154914D02*
X0068611Y0154914D01*
X0068012Y0155513D02*
X0004633Y0155513D01*
X0004633Y0156111D02*
X0039949Y0156111D01*
X0039961Y0156100D02*
X0039433Y0156627D01*
X0039433Y0163373D01*
X0039961Y0163900D01*
X0046706Y0163900D01*
X0047233Y0163373D01*
X0047233Y0156627D01*
X0046706Y0156100D01*
X0039961Y0156100D01*
X0039433Y0156710D02*
X0004633Y0156710D01*
X0004633Y0157308D02*
X0039433Y0157308D01*
X0039433Y0157907D02*
X0004633Y0157907D01*
X0004633Y0158505D02*
X0039433Y0158505D01*
X0039433Y0159104D02*
X0004633Y0159104D01*
X0004633Y0159702D02*
X0039433Y0159702D01*
X0039433Y0160301D02*
X0004633Y0160301D01*
X0004633Y0160899D02*
X0039433Y0160899D01*
X0039433Y0161498D02*
X0004633Y0161498D01*
X0004633Y0162096D02*
X0039433Y0162096D01*
X0039433Y0162695D02*
X0004633Y0162695D01*
X0004633Y0163293D02*
X0039433Y0163293D01*
X0039952Y0163892D02*
X0004633Y0163892D01*
X0004633Y0164490D02*
X0059933Y0164490D01*
X0059933Y0165089D02*
X0004633Y0165089D01*
X0004633Y0165687D02*
X0059933Y0165687D01*
X0059933Y0166286D02*
X0004633Y0166286D01*
X0004633Y0166884D02*
X0059933Y0166884D01*
X0059933Y0167483D02*
X0004633Y0167483D01*
X0004633Y0168081D02*
X0059933Y0168081D01*
X0059933Y0168680D02*
X0004633Y0168680D01*
X0004633Y0169278D02*
X0059933Y0169278D01*
X0059933Y0169877D02*
X0004633Y0169877D01*
X0004633Y0170475D02*
X0059933Y0170475D01*
X0059933Y0171074D02*
X0004633Y0171074D01*
X0004633Y0171672D02*
X0059933Y0171672D01*
X0059933Y0172271D02*
X0004633Y0172271D01*
X0004633Y0172870D02*
X0059933Y0172870D01*
X0059933Y0173468D02*
X0004633Y0173468D01*
X0004633Y0174067D02*
X0059933Y0174067D01*
X0059933Y0174665D02*
X0004633Y0174665D01*
X0004633Y0175264D02*
X0059933Y0175264D01*
X0059933Y0175862D02*
X0004633Y0175862D01*
X0004633Y0176461D02*
X0059933Y0176461D01*
X0059933Y0177059D02*
X0004633Y0177059D01*
X0004633Y0177658D02*
X0059933Y0177658D01*
X0059933Y0178256D02*
X0004633Y0178256D01*
X0004633Y0178855D02*
X0059933Y0178855D01*
X0059933Y0179453D02*
X0004633Y0179453D01*
X0004633Y0180052D02*
X0059933Y0180052D01*
X0059933Y0180650D02*
X0004633Y0180650D01*
X0004633Y0181249D02*
X0059933Y0181249D01*
X0059933Y0181847D02*
X0004633Y0181847D01*
X0004633Y0182446D02*
X0059933Y0182446D01*
X0059933Y0183044D02*
X0004633Y0183044D01*
X0004633Y0183643D02*
X0059933Y0183643D01*
X0059933Y0184241D02*
X0004633Y0184241D01*
X0004633Y0184840D02*
X0059933Y0184840D01*
X0059933Y0185438D02*
X0004633Y0185438D01*
X0004633Y0186037D02*
X0059933Y0186037D01*
X0059933Y0186635D02*
X0004633Y0186635D01*
X0004633Y0187234D02*
X0059933Y0187234D01*
X0059933Y0187832D02*
X0004633Y0187832D01*
X0004633Y0188431D02*
X0059933Y0188431D01*
X0059933Y0189029D02*
X0004633Y0189029D01*
X0004633Y0189628D02*
X0059933Y0189628D01*
X0059933Y0190226D02*
X0004633Y0190226D01*
X0004633Y0190825D02*
X0059933Y0190825D01*
X0059933Y0191423D02*
X0004633Y0191423D01*
X0004633Y0192022D02*
X0059933Y0192022D01*
X0059933Y0192620D02*
X0004633Y0192620D01*
X0004633Y0193219D02*
X0059933Y0193219D01*
X0059933Y0193817D02*
X0004633Y0193817D01*
X0004633Y0194416D02*
X0059933Y0194416D01*
X0059933Y0195014D02*
X0004633Y0195014D01*
X0004633Y0195613D02*
X0059933Y0195613D01*
X0059933Y0196211D02*
X0004633Y0196211D01*
X0004633Y0196810D02*
X0059933Y0196810D01*
X0059933Y0197408D02*
X0004633Y0197408D01*
X0004633Y0198007D02*
X0059933Y0198007D01*
X0059933Y0198605D02*
X0004633Y0198605D01*
X0004633Y0199204D02*
X0059933Y0199204D01*
X0059933Y0199803D02*
X0004633Y0199803D01*
X0004633Y0200401D02*
X0059933Y0200401D01*
X0059933Y0201000D02*
X0004633Y0201000D01*
X0004633Y0201598D02*
X0059933Y0201598D01*
X0060112Y0163892D02*
X0046714Y0163892D01*
X0047233Y0163293D02*
X0060360Y0163293D01*
X0060830Y0162695D02*
X0047233Y0162695D01*
X0047233Y0162096D02*
X0061429Y0162096D01*
X0062027Y0161498D02*
X0047233Y0161498D01*
X0047233Y0160899D02*
X0062626Y0160899D01*
X0063224Y0160301D02*
X0047233Y0160301D01*
X0047233Y0159702D02*
X0063823Y0159702D01*
X0064421Y0159104D02*
X0047233Y0159104D01*
X0047233Y0158505D02*
X0065020Y0158505D01*
X0065618Y0157907D02*
X0047233Y0157907D01*
X0047233Y0157308D02*
X0066217Y0157308D01*
X0066815Y0156710D02*
X0047233Y0156710D01*
X0046717Y0156111D02*
X0067414Y0156111D01*
X0072841Y0160301D02*
X0099033Y0160301D01*
X0099033Y0160899D02*
X0072242Y0160899D01*
X0071644Y0161498D02*
X0099033Y0161498D01*
X0099033Y0162096D02*
X0071045Y0162096D01*
X0070447Y0162695D02*
X0099033Y0162695D01*
X0099066Y0163293D02*
X0069848Y0163293D01*
X0069250Y0163892D02*
X0099387Y0163892D01*
X0102116Y0153717D02*
X0079424Y0153717D01*
X0043633Y0149528D02*
X0043033Y0149528D01*
X0043033Y0150126D02*
X0004633Y0150126D01*
X0004633Y0149528D02*
X0039055Y0149528D01*
X0039160Y0148929D02*
X0004633Y0148929D01*
X0004633Y0148331D02*
X0039358Y0148331D01*
X0039666Y0147732D02*
X0004633Y0147732D01*
X0004633Y0147134D02*
X0040119Y0147134D01*
X0040787Y0146535D02*
X0004633Y0146535D01*
X0004633Y0145937D02*
X0041924Y0145937D01*
X0043033Y0145937D02*
X0043633Y0145937D01*
X0043633Y0146535D02*
X0043033Y0146535D01*
X0043033Y0147134D02*
X0043633Y0147134D01*
X0043633Y0147732D02*
X0043033Y0147732D01*
X0043033Y0148331D02*
X0043633Y0148331D01*
X0043633Y0148929D02*
X0043033Y0148929D01*
X0039095Y0150725D02*
X0004633Y0150725D01*
X0004633Y0151323D02*
X0039242Y0151323D01*
X0039486Y0151922D02*
X0004633Y0151922D01*
X0004633Y0152520D02*
X0039849Y0152520D01*
X0040371Y0153119D02*
X0004633Y0153119D01*
X0004633Y0153717D02*
X0041157Y0153717D01*
X0235879Y0083691D02*
X0247337Y0083691D01*
X0246028Y0084290D02*
X0236478Y0084290D01*
X0237076Y0084888D02*
X0245430Y0084888D01*
X0244946Y0085487D02*
X0237675Y0085487D01*
X0238273Y0086085D02*
X0244698Y0086085D01*
X0244450Y0086684D02*
X0238872Y0086684D01*
X0239470Y0087282D02*
X0244433Y0087282D01*
X0244433Y0087881D02*
X0240069Y0087881D01*
X0240667Y0088479D02*
X0244518Y0088479D01*
X0244766Y0089078D02*
X0241266Y0089078D01*
X0241864Y0089676D02*
X0245014Y0089676D01*
X0245593Y0090275D02*
X0242463Y0090275D01*
X0242976Y0090873D02*
X0246286Y0090873D01*
X0243433Y0092070D02*
X0256462Y0092070D01*
X0255863Y0091472D02*
X0243224Y0091472D01*
X0243433Y0092669D02*
X0257060Y0092669D01*
X0246494Y0104041D02*
X0243433Y0104041D01*
X0243433Y0104639D02*
X0245679Y0104639D01*
X0245080Y0105238D02*
X0243433Y0105238D01*
X0243433Y0105836D02*
X0244801Y0105836D01*
X0244553Y0106435D02*
X0243433Y0106435D01*
X0243433Y0107033D02*
X0244433Y0107033D01*
X0244433Y0107632D02*
X0243433Y0107632D01*
X0243872Y0108230D02*
X0244433Y0108230D01*
X0244470Y0108829D02*
X0244662Y0108829D01*
X0252107Y0128580D02*
X0262971Y0128580D01*
X0263569Y0129178D02*
X0251860Y0129178D01*
X0251572Y0129777D02*
X0264168Y0129777D01*
X0264766Y0130375D02*
X0250974Y0130375D01*
X0304925Y0202000D02*
X0304925Y0202000D01*
X0305399Y0202197D02*
X0317033Y0202197D01*
X0317033Y0202795D02*
X0306844Y0202795D01*
X0307865Y0203218D02*
X0307865Y0203218D01*
X0308041Y0203394D02*
X0317033Y0203394D01*
X0317033Y0203992D02*
X0308639Y0203992D01*
X0309238Y0204591D02*
X0317033Y0204591D01*
X0317033Y0205189D02*
X0309836Y0205189D01*
X0310115Y0205468D02*
X0310115Y0205468D01*
X0310248Y0205788D02*
X0317033Y0205788D01*
X0317033Y0206386D02*
X0310496Y0206386D01*
X0310743Y0206985D02*
X0317033Y0206985D01*
X0317033Y0207583D02*
X0310991Y0207583D01*
X0311239Y0208182D02*
X0317033Y0208182D01*
X0317033Y0208780D02*
X0311333Y0208780D01*
X0311333Y0209379D02*
X0317033Y0209379D01*
X0317033Y0209977D02*
X0311333Y0209977D01*
X0311333Y0210576D02*
X0317033Y0210576D01*
X0317033Y0211174D02*
X0311333Y0211174D01*
X0311258Y0211773D02*
X0317033Y0211773D01*
X0317033Y0212371D02*
X0311010Y0212371D01*
X0310762Y0212970D02*
X0317033Y0212970D01*
X0317033Y0213568D02*
X0310514Y0213568D01*
X0310267Y0214167D02*
X0317033Y0214167D01*
X0317033Y0214765D02*
X0309882Y0214765D01*
X0310115Y0214532D02*
X0310115Y0214532D01*
X0309283Y0215364D02*
X0317033Y0215364D01*
X0317033Y0215962D02*
X0308685Y0215962D01*
X0308086Y0216561D02*
X0317033Y0216561D01*
X0317033Y0217159D02*
X0306954Y0217159D01*
D17*
X0268333Y0205000D02*
X0268333Y0150000D01*
X0258333Y0140000D01*
X0250833Y0140000D01*
X0248333Y0137500D01*
X0248333Y0127500D02*
X0234433Y0113600D01*
X0234433Y0094973D01*
X0230860Y0091400D01*
X0151933Y0091400D01*
X0103333Y0140000D01*
X0113333Y0140000D02*
X0103333Y0150000D01*
X0078333Y0150000D01*
X0063333Y0165000D01*
X0063333Y0205000D01*
X0073333Y0215000D01*
X0077833Y0215000D01*
X0117833Y0215000D01*
X0157833Y0215000D01*
X0197833Y0215000D01*
X0237833Y0215000D01*
X0258333Y0215000D01*
X0268333Y0205000D01*
X0238833Y0205000D02*
X0222233Y0188400D01*
X0222233Y0144973D01*
X0228333Y0138873D01*
X0228333Y0137500D01*
X0228333Y0127500D02*
X0198833Y0157000D01*
X0198833Y0205000D01*
X0158833Y0205000D02*
X0158833Y0187000D01*
X0228333Y0117500D01*
X0228333Y0107500D02*
X0130833Y0205000D01*
X0118833Y0205000D01*
X0098333Y0205000D02*
X0124333Y0179000D01*
X0144132Y0179000D01*
X0152333Y0170799D01*
X0152333Y0151000D01*
X0203333Y0100000D01*
X0225833Y0100000D01*
X0228333Y0097500D01*
X0233180Y0085800D02*
X0147917Y0085800D01*
X0107617Y0126100D01*
X0107233Y0126100D01*
X0103333Y0130000D01*
X0113333Y0140000D02*
X0133333Y0140000D01*
X0098333Y0205000D02*
X0078833Y0205000D01*
X0240033Y0109200D02*
X0240033Y0092654D01*
X0233180Y0085800D01*
X0248333Y0087500D02*
X0256699Y0087500D01*
X0269199Y0100000D01*
X0277467Y0100000D02*
X0294593Y0100000D01*
X0294593Y0085000D02*
X0277467Y0085000D01*
X0269199Y0085000D02*
X0263333Y0085000D01*
X0258333Y0080000D01*
X0250833Y0080000D01*
X0248333Y0077500D01*
X0248333Y0097500D02*
X0265833Y0115000D01*
X0269199Y0115000D01*
X0277467Y0115000D02*
X0294593Y0115000D01*
X0294593Y0130000D02*
X0277467Y0130000D01*
X0269199Y0130000D02*
X0254433Y0115234D01*
X0254433Y0114973D01*
X0248333Y0108873D01*
X0248333Y0107500D01*
X0240033Y0109200D02*
X0248333Y0117500D01*
M02*
